<?xml version="1.0" standalone="no"?>
<!DOCTYPE svg PUBLIC "-//W3C//DTD SVG 1.1//EN" "http://www.w3.org/Graphics/SVG/1.1/DTD/svg11.dtd" >
<svg>
<metadata>
Created by FontForge 20090622 at Fri Nov  9 16:51:39 2018
 By ffonts
Mergic &#194;&#169; 7NTypes. 2018. All Rights Reserved
</metadata>
<defs>
<font id="Mergic" horiz-adv-x="585" >
  <font-face 
    font-family="Mergic"
    font-weight="400"
    font-stretch="normal"
    units-per-em="2048"
    panose-1="2 0 5 0 0 0 0 0 0 0"
    ascent="1638"
    descent="-410"
    x-height="802"
    cap-height="1373"
    bbox="-2931 -1642 6347 2744"
    underline-thickness="150"
    underline-position="-142"
    unicode-range="U+001D-U+E227"
  />
<missing-glyph horiz-adv-x="1024" 
 />
    <glyph glyph-name=".notdef" horiz-adv-x="1024" 
 />
    <glyph glyph-name=".null" horiz-adv-x="0" 
 />
    <glyph glyph-name=".null" horiz-adv-x="0" 
 />
    <glyph glyph-name="nonmarkingreturn" horiz-adv-x="508" 
 />
    <glyph glyph-name="space" unicode=" " horiz-adv-x="350" 
 />
    <glyph glyph-name="space" unicode="&#xa0;" horiz-adv-x="350" 
 />
    <glyph glyph-name="exclam" unicode="!" horiz-adv-x="602" 
d="M275 258q-60 0 -60 72q0 101 -4 218q-11 305 -11 506q0 212 16 409q8 98 117 98q28 0 48.5 -15.5t20.5 -44.5q0 -49 -6 -113q-26 -277 -26 -1061q0 -69 -95 -69zM291 -26q-42 0 -64 32t-22 74q0 53 26 87.5t81 34.5q36 0 61 -32t25 -74q-1 -54 -31 -88t-76 -34z" />
    <glyph glyph-name="quotedbl" unicode="&#x22;" horiz-adv-x="528" 
d="M130 988q-49 0 -58 54q-4 23 -5 49q-2 79 -9 174q-8 122 -8 188q0 40 33.5 64t83.5 24q72 0 72 -53q0 -87 -27 -298q-8 -66 -11 -115q-7 -87 -71 -87zM369 988q-49 0 -58 54q-4 23 -5 49q-2 79 -9 174q-8 122 -8 188q0 40 33.5 64t83.5 24q72 0 72 -53q0 -87 -27 -298
q-8 -66 -11 -115q-7 -87 -71 -87z" />
    <glyph glyph-name="numbersign" unicode="#" horiz-adv-x="848" 
d="M420 80q-55 0 -55 46q0 8 3 18q23 74 43 149h-92q-49 -175 -79 -196q-25 -17 -52 -17q-55 0 -55 46q0 8 3 18l42 144q-56 -4 -93 -4q-19 0 -34.5 10.5t-15.5 32.5q0 28 25 52q29 27 151 36l17 73q-60 -4 -98 -4q-19 0 -34.5 10.5t-15.5 32.5q0 28 25 52q30 27 154 36
q19 74 40 147q8 26 33 43.5t55 17.5q29 0 41 -14.5t12 -29.5q0 -19 -41 -160h93q18 71 39 143q8 26 33 43.5t55 17.5q29 0 41 -14.5t12 -29.5t-42 -161q156 -5 167 -26q8 -14 8 -25q0 -75 -100 -75h-105l-17 -74q158 -5 169 -26q8 -14 8 -25q0 -75 -100 -75h-109
q-49 -174 -79 -195q-25 -17 -52 -17zM444 419l17 74h-93l-17 -74h93z" />
    <glyph glyph-name="dollar" unicode="$" horiz-adv-x="796" 
d="M320 687v92q0 108 1 194q-73 -57 -73 -162q0 -68 72 -124zM425 134q24 12 43 32q45 47 45 101q0 62 -29 104q-25 34 -60 62q0 -191 1 -299zM365 -202q-34 0 -35 42q-3 63 -5 127q-67 6 -117 28q-68 30 -122 103q-31 42 -31 72q0 50 59 63q12 2 22 2q44 0 99 -56
q47 -51 86 -59l-1 377q-79 43 -131 79q-56 39 -93 96t-37 146q0 87 41.5 164t117.5 125q49 31 109 42q7 134 21 153q20 26 47 26q35 0 35 -43l-3 -131q108 -10 203 -91q44 -39 44 -75q0 -48 -44 -64q-12 -5 -25 -5q-29 0 -63 24t-62 39q-24 11 -55 14q-1 -72 -1 -376
q66 -36 130.5 -85t106.5 -123t42 -188t-98 -186q-78 -58 -178 -70l2 -94q0 -21 -10 -40q-21 -36 -54 -36z" />
    <glyph glyph-name="percent" unicode="%" horiz-adv-x="813" 
d="M123 -24q-53 0 -53 45q0 9 4 19q45 125 232 449l162.5 295.5t132.5 292.5q10 26 34.5 42.5t52.5 16.5q54 0 54 -45q0 -10 -4 -20q-72 -203 -299 -599q-185 -324 -226 -436q-10 -26 -35.5 -43t-54.5 -17zM233 787q47 0 68 30t21 69q0 41 -25.5 79t-71.5 38
q-36 0 -52.5 -25.5t-16.5 -60.5q0 -46 22 -88t55 -42zM220 697q-85 0 -131 56.5t-46 128.5q0 55 21 106.5t65.5 84.5t112.5 33q65 0 107 -29t62 -75t20 -96q0 -52 -24.5 -100t-71 -78.5t-115.5 -30.5zM565 66q47 0 68 30t21 69q0 41 -25.5 79t-71.5 38q-36 0 -52.5 -25.5
t-16.5 -60.5q0 -46 22 -88t55 -42zM552 -24q-85 0 -131 56.5t-46 128.5q0 54 21 105.5t65 85t113 33.5q65 0 106.5 -29t62 -75t20.5 -96q0 -52 -24.5 -100t-71.5 -78.5t-115 -30.5z" />
    <glyph glyph-name="ampersand" unicode="&#x26;" horiz-adv-x="875" 
d="M272 13q-125 0 -184.5 63.5t-59.5 160.5q0 142 204 334q-75 144 -75 255q0 94 66 158.5t176 64.5q89 0 143 -60q46 -51 46 -141q0 -152 -177 -324q62 -88 144 -163q71 113 71 235q0 34 -7 70q-2 9 -2 18q0 15 12.5 30t43.5 15q44 0 74.5 -46t30.5 -120q0 -146 -99 -299
q40 -26 82.5 -46.5t42.5 -63.5q0 -24 -18 -42q-13 -13 -33 -13q-35 0 -147 73q-146 -159 -334 -159zM332 668q26 25 66.5 86t40.5 120q0 61 -44 61q-28 0 -54 -25q-37 -37 -37 -109q0 -63 28 -133zM233 140q75 0 140.5 40t108.5 85q-92 79 -162 170q-65 -60 -110.5 -116.5
t-45.5 -110.5q0 -30 14 -49t55 -19z" />
    <glyph glyph-name="quotesingle" unicode="'" horiz-adv-x="389" 
d="M180 988q-48 0 -58 54q-4 23 -4 49q-3 79 -10 174q-8 122 -8 188q0 40 33.5 64t83.5 24q72 0 72 -53q0 -87 -26 -298q-9 -66 -12 -115q-7 -87 -71 -87z" />
    <glyph glyph-name="parenleft" unicode="(" horiz-adv-x="623" 
d="M453 -331q-39 0 -58 27q-159 225 -223 477.5t-64 459.5q0 118 16 239q45 333 257 630q36 51 97 51q18 0 34 -7q36 -14 36 -53q0 -26 -20 -54q-229 -340 -229 -757q0 -202 49 -394q74 -282 214 -481q11 -16 11 -34q0 -46 -51 -81q-34 -23 -69 -23z" />
    <glyph glyph-name="parenright" unicode=")" horiz-adv-x="604" 
d="M119 1553q39 0 58 -27q159 -225 223.5 -477.5t64.5 -459.5q0 -118 -17 -239q-45 -333 -256 -630q-36 -51 -97 -51q-18 0 -34 7q-36 14 -36 53q0 26 19 54q230 340 230 757q0 202 -50 394q-74 282 -214 481q-10 16 -10 34q0 46 51 81q34 23 68 23z" />
    <glyph glyph-name="asterisk" unicode="*" horiz-adv-x="634" 
d="M304 976q-36 0 -39 30t-3 61q0 41 5 82l-138 -85q-18 -11 -36 -11q-15 0 -29 16.5t-14 26.5q0 15 31 34l167 104q-73 57 -151 140q-9 9 -9 21q0 23 25 41q22 16 44 16q20 0 32 -12q51 -53 98 -94q6 44 6 88q0 19 17 35q22 21 51 21q15 0 27.5 -7.5t12.5 -25.5
q0 -48 -9 -131l106 70q20 14 31 14q20 0 36 -15t16 -28q0 -21 -159 -122q62 -39 143 -80q19 -10 19 -29q0 -16 -23 -36.5t-45 -20.5q-23 0 -141 69q-4 -24 -4 -116q0 -16 -10 -29q-21 -27 -57 -27z" />
    <glyph glyph-name="plus" unicode="+" horiz-adv-x="925" 
d="M405 506h-23q-53 0 -130.5 -6t-98.5 -6q-22 0 -37.5 12t-15.5 34q0 28 25 52q44 40 278 41l-3 204q0 23 13.5 47.5t40.5 36.5q13 6 25 6q39 0 43 -45q11 -101 11 -244v-4h3q143 0 245 -10q44 -5 44 -44q0 -12 -6 -25q-12 -27 -36.5 -40.5t-47.5 -13.5l-203 3
q-1 -233 -41 -277q-24 -25 -52 -25q-22 0 -34 15.5t-12 37.5q0 21 6 98.5t6 129.5v23z" />
    <glyph glyph-name="comma" unicode="," horiz-adv-x="419" 
d="M122 -318q-22 0 -22 21q0 12 9 26q78 135 78 247q-76 20 -76 104q0 53 30.5 87.5t76.5 34.5q101 0 101 -150q0 -140 -71.5 -255t-125.5 -115z" />
    <glyph glyph-name="hyphen" unicode="-" horiz-adv-x="800" 
d="M187 332q-16 0 -26.5 12t-10.5 34q0 28 17 52q31 40 194 41l90 1q98 0 169 -10q30 -5 30 -44q0 -12 -4 -25q-8 -27 -25 -40.5t-33 -13.5l-244 5q-36 0 -89.5 -6t-67.5 -6z" />
    <glyph glyph-name="hyphen" unicode="&#xad;" horiz-adv-x="800" 
d="M187 332q-16 0 -26.5 12t-10.5 34q0 28 17 52q31 40 194 41l90 1q98 0 169 -10q30 -5 30 -44q0 -12 -4 -25q-8 -27 -25 -40.5t-33 -13.5l-244 5q-36 0 -89.5 -6t-67.5 -6z" />
    <glyph glyph-name="period" unicode="." horiz-adv-x="394" 
d="M187 -26q-43 0 -65 32t-22 74q0 53 26 87.5t81 34.5q36 0 61.5 -32t25.5 -74q-1 -54 -31.5 -88t-75.5 -34z" />
    <glyph glyph-name="slash" unicode="/" horiz-adv-x="548" 
d="M77 -272q-87 0 -87 61q0 59 167 676q134 495 254 1004q11 48 47 48q87 0 87 -80q0 -13 -3 -26q-119 -552 -258 -1049l-160 -588q-12 -46 -47 -46z" />
    <glyph glyph-name="zero" unicode="0" horiz-adv-x="950" 
d="M471 -33q-107 0 -182 63.5t-118 170.5q-61 148 -61 336q0 77 15 179t64 209t128 172.5t188 65.5q111 0 186 -65q162 -142 162 -474q0 -232 -87 -421q-110 -236 -295 -236zM446 122q71 0 120.5 65.5t76.5 167.5q34 129 34 268q0 86 -15 176.5t-54.5 156t-102.5 65.5
q-64 0 -109.5 -65.5t-70.5 -167.5q-33 -129 -33 -281q0 -79 13 -166.5t48.5 -153t92.5 -65.5z" />
    <glyph glyph-name="one" unicode="1" horiz-adv-x="626" 
d="M380 -30q-22 0 -40 10q-27 16 -28 49q-11 404 -11 885l-156 -163q-39 -41 -73 -41q-17 0 -33 11q-26 17 -26 47q0 34 27 65q211 241 317 307q30 19 64 19t48 -34t16.5 -72t2.5 -147q0 -457 8 -832q0 -33 -24 -61q-38 -43 -92 -43z" />
    <glyph glyph-name="two" unicode="2" horiz-adv-x="824" 
d="M243 -29q-136 0 -136 102q0 35 21 77q58 118 145 238q83 113 148.5 235.5t65.5 260.5q0 126 -95 126q-45 0 -78 -41q-58 -70 -95 -175q-16 -46 -59 -46q-33 0 -56.5 23t-23.5 58q0 27 24 98q81 237 288 237q116 0 200.5 -81.5t84.5 -198.5q0 -173 -94.5 -350.5
t-158.5 -258.5l-95 -126q151 35 267 83q97 41 112 41q37 0 71 -36.5t34 -68.5q0 -29 -31 -46q-142 -77 -307 -117q-143 -34 -232 -34z" />
    <glyph glyph-name="three" unicode="3" horiz-adv-x="763" 
d="M176 -158q-47 0 -78.5 37.5t-31.5 66.5q0 50 49 58q144 26 252 106.5t108 212.5q0 121 -197 212q-27 13 -27 44t59 77q168 133 168 263q0 87 -81 87q-105 0 -184 -170q-20 -44 -60 -44q-34 0 -63 21t-29 52q0 25 15 61q28 71 92 141q90 97 229 97q105 0 185 -72t80 -181
q0 -101 -54 -179t-147 -149q204 -108 204 -280q0 -298 -339 -429q-84 -32 -150 -32z" />
    <glyph glyph-name="four" unicode="4" horiz-adv-x="868" 
d="M625 -195q-68 0 -70 59l-12 335q-145 -4 -283 -31q-47 -9 -68 -9q-49 0 -85 40q-27 29 -27 56q0 29 26 70q61 94 103 311q32 167 55 329q13 91 26 165q9 51 54 51q46 0 78 -27.5t32 -69.5q0 -28 -15 -123q-33 -210 -61 -347q-32 -160 -87 -276q122 21 247 24
q-3 137 -3 220q0 165 12 331q3 35 32 62q38 36 85 36q28 0 48 -14q23 -17 23 -49q0 -72 -5 -153t-5 -171q0 -133 5 -284q50 -33 50 -87q0 -35 -27 -44q-9 -4 -19 -6q11 -227 11 -293q0 -105 -120 -105z" />
    <glyph glyph-name="five" unicode="5" horiz-adv-x="743" 
d="M193 -159q-44 0 -81 31.5t-37 72.5q0 37 33 53q110 54 218 141q139 111 139 215q0 120 -194 152q-71 12 -122 18q-75 9 -75 86q0 89 107 464q12 44 84 51q195 18 301 18q62 0 91.5 -37.5t29.5 -78.5q0 -44 -65 -47q-148 -7 -266 -18q-41 -147 -73 -298q367 -52 367 -347
q0 -194 -236 -358q-170 -118 -221 -118z" />
    <glyph glyph-name="six" unicode="6" horiz-adv-x="846" 
d="M453 -33q-122 0 -222 97q-74 73 -101 229q-12 67 -12 134q0 172 72.5 374t202.5 377q20 27 58 27q35 0 69 -23q50 -33 50 -80q0 -19 -11 -35q-162 -231 -237 -505q130 103 241 103q127 0 199 -89q65 -80 65 -202q0 -179 -108 -290q-115 -117 -266 -117zM453 129
q44 0 91 43t72 106.5t25 124.5q0 103 -84 103q-71 0 -159 -59q-53 -36 -92 -78q1 -75 25 -145q34 -95 122 -95z" />
    <glyph glyph-name="seven" unicode="7" horiz-adv-x="701" 
d="M329 -66q-129 0 -129 102q0 206 64 477q59 254 155 470q-61 -6 -123 -6q-93 0 -189 19q-70 14 -70 88q0 64 46 64q17 0 53 -3.5t78 -3.5q120 0 160.5 4.5t87.5 11.5q68 10 97 10q37 0 74.5 -29.5t37.5 -62.5q0 -31 -49 -131q-94 -193 -160.5 -458t-71.5 -491
q-1 -61 -61 -61z" />
    <glyph glyph-name="eight" unicode="8" horiz-adv-x="846" 
d="M407 -32q-124 0 -214 81.5t-90 209.5q0 170 183 327q-129 129 -129 286q0 128 87 215q77 77 207 77t220 -94q74 -76 74 -190q0 -97 -81 -185q-30 -33 -111 -109q100 -57 154 -137.5t54 -156.5q0 -128 -87 -226t-267 -98zM400 690q156 121 156 237q0 73 -88 73
q-65 0 -100 -75q-24 -50 -24 -101q0 -77 56 -134zM396 131q74 0 124.5 60.5t50.5 131.5q0 92 -129 156q-160 -117 -160 -225q0 -50 29 -86.5t85 -36.5z" />
    <glyph glyph-name="nine" unicode="9" horiz-adv-x="871" 
d="M440 1206q122 0 222 -97q74 -73 101 -229q12 -67 12 -134q0 -172 -72.5 -374t-202.5 -377q-20 -27 -58 -27q-35 0 -69 23q-50 33 -50 80q0 19 11 35q162 231 237 505q-130 -103 -241 -103q-127 0 -199 89q-65 80 -65 202q0 179 108 290q115 117 266 117zM440 1044
q-44 0 -91 -43t-72 -106.5t-25 -124.5q0 -103 84 -103q71 0 159 59q53 36 92 78q-1 75 -25 145q-34 95 -122 95z" />
    <glyph glyph-name="colon" unicode=":" horiz-adv-x="594" 
d="M287 -26q-43 0 -65 32t-22 74q0 53 26 87.5t81 34.5q36 0 61.5 -32t25.5 -74q-1 -54 -31.5 -88t-75.5 -34zM287 572q-42 0 -64.5 32t-22.5 74q0 53 26.5 87.5t80.5 34.5q37 0 62 -32t25 -74q-1 -54 -31 -88t-76 -34z" />
    <glyph glyph-name="semicolon" unicode=";" horiz-adv-x="619" 
d="M299 572q-42 0 -64 32t-22 74q0 53 26 87.5t81 34.5q36 0 61 -32t25 -74q-1 -54 -31 -88t-76 -34zM222 -318q-22 0 -22 21q0 12 9 26q78 135 78 247q-76 20 -76 104q0 53 30.5 87.5t76.5 34.5q101 0 101 -150q0 -140 -71.5 -255t-125.5 -115z" />
    <glyph glyph-name="semicolon" unicode="&#x37e;" horiz-adv-x="619" 
d="M299 572q-42 0 -64 32t-22 74q0 53 26 87.5t81 34.5q36 0 61 -32t25 -74q-1 -54 -31 -88t-76 -34zM222 -318q-22 0 -22 21q0 12 9 26q78 135 78 247q-76 20 -76 104q0 53 30.5 87.5t76.5 34.5q101 0 101 -150q0 -140 -71.5 -255t-125.5 -115z" />
    <glyph glyph-name="less" unicode="&#x3c;" horiz-adv-x="984" 
d="M776 263q-24 0 -301 88l-317 98q-58 18 -58 95q0 50 58 74l218 91q371 157 409 157q23 0 41 -13q28 -20 28 -51q0 -33 -52 -53l-472 -193q98 -32 198 -60q165 -47 324 -108q32 -12 32 -43q0 -28 -33.5 -55t-74.5 -27z" />
    <glyph glyph-name="equal" unicode="=" horiz-adv-x="925" 
d="M153 610q-22 0 -37.5 12t-15.5 34q0 28 25 52q44 40 281 41l130 1q143 0 245 -11q44 -4 44 -43q0 -12 -6 -25q-12 -27 -36.5 -40.5t-47.5 -13.5l-353 5q-53 0 -130.5 -6t-98.5 -6zM153 379q-22 0 -37.5 12t-15.5 34q0 28 25 52q44 40 281 41l130 1q143 0 245 -11
q44 -4 44 -43q0 -12 -6 -25q-12 -27 -36.5 -40.5t-47.5 -13.5l-353 5q-53 0 -130.5 -6t-98.5 -6z" />
    <glyph glyph-name="greater" unicode="&#x3e;" horiz-adv-x="984" 
d="M208 866q25 0 301 -88l317 -99q58 -17 58 -95q0 -49 -57 -73l-219 -91q-371 -157 -408 -157q-24 0 -42 13q-28 20 -28 50q1 34 52 54l472 193q-98 32 -198 60q-165 47 -324 107q-32 13 -32 43q0 28 33.5 55.5t74.5 27.5z" />
    <glyph glyph-name="question" unicode="?" horiz-adv-x="774" 
d="M400 283q-52 0 -83.5 30.5t-31.5 73.5q0 176 36.5 300.5t134.5 278.5q80 124 80 219q0 61 -46 99.5t-104 38.5q-131 0 -161 -170q-14 -81 -66 -81q-36 0 -72.5 24t-36.5 64q0 127 86 220q95 102 247 102q104 0 180.5 -45t118.5 -118t42 -158q0 -134 -72 -261l-61 -100
q-66 -103 -102 -196.5t-40 -259.5q-1 -61 -49 -61zM347 -26q-43 0 -65 32t-22 74q0 53 26 87.5t81 34.5q37 0 62 -32t25 -74q-1 -54 -31.5 -88t-75.5 -34z" />
    <glyph glyph-name="at" unicode="@" horiz-adv-x="1292" 
d="M544 193q66 0 138 179q39 99 43 118q-6 13 -30 43q-47 60 -90 60q-44 0 -70.5 -41t-36.5 -93.5t-10 -99.5q0 -78 18 -125q14 -41 38 -41zM660 -257q-200 0 -311 57q-134 70 -203 197q-77 140 -77 316q0 100 31 212q36 130 121 248q43 61 100 111q169 151 372 151
q140 0 251 -65q101 -59 159 -150q90 -144 90 -335q0 -128 -54 -249q-29 -66 -83.5 -116.5t-131.5 -50.5q-163 0 -176 256q-29 -68 -64 -124.5t-76 -91.5t-86 -35q-68 0 -108.5 46t-52 103t-11.5 103q0 112 46 214q32 71 84 115t121 44q45 0 81.5 -25t67.5 -55q24 61 99 61
q28 0 28 -49q0 -24 -4 -68.5t-4 -131.5q0 -258 77 -258q48 0 82 77q45 102 45 211q0 176 -92 308q-56 81 -141.5 121t-170.5 40q-153 0 -279.5 -119t-163.5 -247t-37 -225q0 -54 9 -107q25 -148 109 -243q70 -79 167.5 -111t185.5 -32q180 0 331 112q16 12 32 12q10 0 19 -4
q31 -14 31 -43q0 -20 -23 -39q-169 -141 -390 -141z" />
    <glyph glyph-name="A" unicode="A" horiz-adv-x="1589" 
d="M365 -84q128 0 254 392q-135 -13 -212 -65q-133 -90 -133 -218q0 -109 91 -109zM1029 383q-31 319 -32 521q-1 183 -52 280q-15 -86 -48 -259q-62 -331 -100 -484q107 -12 232 -58zM321 -239q-79 0 -147 60.5t-68 180.5q0 212 222 355q133 85 332 91q45 163 85 363
q53 267 73 428q4 28 35.5 62.5t76 61.5t83.5 27q133 0 154 -394q9 -167 19 -396q23 -529 126 -529q41 0 82 60t77.5 149t64.5 180q39 127 53 197q8 41 62 41q38 0 38 -51q0 -29 -51 -210q-59 -208 -138 -345q-104 -179 -227 -179q-179 0 -229 336q-126 56 -283 64
q-154 -552 -440 -552z" />
    <glyph glyph-name="B" unicode="B" horiz-adv-x="1492" 
d="M258 18q64 0 99 80t46.5 197.5t11.5 237.5q0 231 -33 550q-122 -105 -193 -299q-75 -204 -75 -417q0 -151 39 -255q36 -94 105 -94zM805 -177q-84 0 -163 31q-124 48 -124 104q0 20 22.5 50t43.5 30q18 0 34 -11q83 -58 194 -58q64 0 114.5 38.5t78.5 100t28 132.5
q0 98 -68 182t-221 116q-41 8 -61 14q-35 11 -35 52q0 49 54 71q211 87 211 291q0 98 -76 159.5t-183 61.5q-50 0 -94 -10q43 -328 43 -566q0 -124 -14 -252q-51 -473 -379 -473q-143 0 -201.5 129.5t-58.5 295.5q0 247 105 499q89 213 252 359q28 25 59 46q-10 63 -10 92
q0 36 32 63q37 32 76 32q27 0 46 -13q15 -10 31 -94q76 19 161 19q179 0 285 -90t106 -232q0 -99 -56 -196.5t-146 -146.5q96 -24 170.5 -78t118 -136t43.5 -189q0 -70 -20 -135q64 51 120 133q119 178 169 413q8 41 62 41q38 0 38 -51q0 -19 -17 -81q-58 -227 -186 -402
q-240 -341 -584 -341z" />
    <glyph glyph-name="C" unicode="C" horiz-adv-x="1134" 
d="M515 -172q-275 0 -418 225q-102 161 -102 450q0 172 18 282q39 245 156 411q137 193 357 193q137 0 234 -90t97 -229q0 -178 -139 -327q-31 -33 -66 -33q-31 0 -54.5 22t-23.5 42q0 23 23 50q81 95 81 206q0 89 -43.5 146.5t-126.5 57.5q-151 0 -237 -169
q-66 -130 -86 -316q-10 -88 -10 -217q0 -237 76 -379q92 -173 294 -173q301 0 499 404q59 125 90 273q8 41 62 41q38 0 38 -51q0 -19 -17 -81q-30 -116 -78 -218q-249 -520 -624 -520z" />
    <glyph glyph-name="D" unicode="D" horiz-adv-x="1561" 
d="M220 28q125 0 125 486q0 229 -26 520q-99 -120 -155 -302q-60 -198 -60 -390q0 -161 40 -250q29 -64 76 -64zM735 -177q-84 0 -164 31t-112 78q-12 17 -12 38t21 45t47 24q17 0 32 -11q83 -59 195 -59q93 0 166.5 67t121.5 175q76 172 76 379q0 202 -79 357
q-55 108 -154 174.5t-246 66.5q-70 0 -132 -23q35 -295 35 -550q0 -293 -57 -481q-76 -254 -266 -254q-100 0 -160 78t-77 178.5t-17 181.5q0 210 76 429q52 152 140 280q59 87 135 151q-15 107 -15 126q0 38 33 67q38 32 77 32q26 0 44 -12t35 -107q89 34 189 34
q188 0 316 -77q132 -79 206 -211.5t88.5 -247t14.5 -182.5q0 -261 -116 -477q-33 -62 -74 -113q91 35 164.5 97.5t125.5 136.5q119 178 169 413q8 41 62 41q38 0 38 -51q0 -19 -17 -81q-58 -227 -186 -402q-257 -341 -723 -341z" />
    <glyph glyph-name="E" unicode="E" horiz-adv-x="858" 
d="M217 -175q-119 0 -206 55q-126 80 -126 237q0 98 54 192q73 127 201 233q-235 138 -235 404q0 185 86 299q109 145 300 145q131 0 208 -89t77 -214q0 -31 -9 -83q-23 -136 -101 -136q-52 0 -52 54q0 10 3 21q12 47 12 92q0 98 -51 156q-39 44 -112 44q-77 0 -121 -43
q-59 -58 -59 -205q0 -231 221 -333q72 -34 72 -71q0 -19 -15 -39q-19 -25 -70 -61q-57 -41 -120 -104q-21 -21 -39 -45q-68 -93 -68 -182q0 -59 35 -104q52 -67 151 -67q256 0 436 264q120 177 169 412q9 41 53 41q47 0 47 -51q0 -19 -16 -81q-41 -159 -112 -294
q-234 -446 -613 -447z" />
    <glyph glyph-name="F" unicode="F" horiz-adv-x="986" 
d="M710 -879q82 0 82 229q0 376 -206 672l1 -223q0 -678 123 -678zM592 1390q97 0 184.5 7.5t172.5 38.5q17 6 32 6q22 0 33 -17t11 -37q0 -109 -239 -141q-89 -11 -215 -13q22 -32 22 -70q0 -86 -5 -328q-4 -202 -4 -379l1 -266l1 -1q285 66 376 370q16 57 24.5 97.5
t51.5 40.5q48 0 48 -51q0 -32 -23 -112q-98 -341 -406 -434q275 -366 275 -751q0 -350 -222 -350q-300 0 -300 793l-3 802q0 483 6 629q-105 -22 -171 -90q-98 -101 -98 -257q0 -215 85 -358q24 -40 24 -68q0 -16 -7 -28q-18 -30 -56 -30q-53 0 -95 62q-127 188 -127 444
q0 197 150.5 344t473.5 147z" />
    <glyph glyph-name="G" unicode="G" horiz-adv-x="1141" 
d="M510 -859q123 0 187 247q60 234 67 552v27q-182 -185 -276 -419q-56 -141 -56 -278q0 -23 7 -53t24 -53t47 -23zM750 279q-55 -136 -143 -235.5t-232 -99.5q-152 0 -234.5 90t-113.5 229.5t-31 295.5q0 239 73 444q84 234 251 334q88 53 206 53q137 0 234 -90t97 -228
q0 -176 -139 -327q-31 -34 -65 -34q-32 0 -55 19.5t-23 45.5q0 23 22 49q82 97 82 210q0 85 -44 142.5t-126 57.5q-158 0 -242 -176q-92 -192 -92 -504q0 -181 44 -304q55 -157 175 -157q116 0 191 120q52 84 115 276q37 117 115 117q121 0 123 -361q64 64 107 147
q67 125 96 264q8 41 54 41t46 -51q0 -18 -17 -79q-83 -300 -283 -455v-37q0 -776 -242 -1004q-77 -72 -189 -72q-84 0 -134 36.5t-72 97.5t-22 136q0 228 158 468q130 197 323 362q-1 59 -13 179z" />
    <glyph glyph-name="H" unicode="H" horiz-adv-x="1387" 
d="M182 671q0 29 -2.5 92.5t-10.5 141.5t-24 150.5t-44 120.5t-72 48q-85 0 -85 -136q0 -42 16 -114t73 -161.5t149 -141.5zM774 481q-96 -15 -197 -15q-108 0 -217 17q-9 -294 -31 -579l-4 -61q-4 -81 -67 -81q-55 0 -92 43q-22 26 -22 56q0 26 5 80q22 231 32 595
q-129 57 -215.5 156t-128.5 213q-39 106 -39 203q0 118 51.5 184.5t149.5 66.5q105 0 173 -52q124 -96 166 -323q26 -142 26 -331l-1 -47q96 -19 195 -19q106 0 216 18q0 388 30 694q10 91 133 91q46 0 46 -59q0 -22 -3 -52q-26 -316 -26 -590q0 -132 8 -250
q21 -438 108 -438q115 0 264 459q39 127 53 197q8 41 62 41q38 0 38 -51q0 -29 -50 -210q-167 -584 -406 -584q-233 0 -257 628z" />
    <glyph glyph-name="I" unicode="I" horiz-adv-x="613" 
d="M257 -147q-257 0 -257 752q0 124 1 218.5t1 157.5t-5 117l-124 -113q-24 -20 -44 -20q-30 0 -64 32q-22 22 -22 47q0 27 27 49q90 75 172 157q121 123 172 123q63 0 68 -84q7 -107 7 -230q0 -113 -4 -308q-2 -75 -2 -138q0 -101 4 -174q22 -438 109 -438q115 0 262 460
q41 126 55 196q8 41 62 41q38 0 38 -51q0 -29 -51 -210q-166 -584 -405 -584z" />
    <glyph glyph-name="J" unicode="J" horiz-adv-x="887" 
d="M246 -1000q-84 0 -134 36.5t-72 97.5t-22 136q0 228 158 468q129 196 321 361q-1 250 -16 506q-16 271 -25 351q-33 278 -114 278q-59 0 -113.5 -125.5t-54.5 -279.5q0 -145 41 -316q2 -8 2 -16q0 -36 -43.5 -66t-90.5 -30q-32 0 -43 44q-45 175 -45 325q0 255 114 435
q117 185 285 185q69 0 113 -42q110 -106 133 -358q28 -302 36 -753q69 67 116 156q66 125 95 264q8 41 54 41t46 -51q0 -18 -17 -79q-85 -307 -293 -463v-29q0 -776 -242 -1004q-77 -72 -189 -72zM246 -859q123 0 187 247q60 236 63 576q-179 -184 -272 -416
q-56 -141 -56 -278q0 -23 7 -53t24 -53t47 -23z" />
    <glyph glyph-name="K" unicode="K" horiz-adv-x="1616" 
d="M853 321q-50 116 -84 205q-48 -33 -97 -54q-3 -298 -77 -473q-94 -223 -318 -223q-137 0 -234 90.5t-97 228.5q0 178 139 327q31 33 65 33q28 0 53 -23t25 -41q0 -24 -22 -50q-82 -96 -82 -209q0 -85 43.5 -143t126.5 -58q195 0 195 440q0 471 -70 727q-55 -75 -102 -133
q-24 -29 -47 -29q-28 0 -60 21t-32 53q0 20 19 42q75 90 140 186q104 152 154 152q57 0 75 -70q52 -201 87 -462q13 -98 17 -222q183 132 276.5 319.5t123.5 350.5q6 32 35 56q34 28 74 28q33 0 51 -16.5t18 -41.5q0 -32 -8 -63q-93 -383 -330 -622q44 -130 138 -326
q156 -320 251 -320q115 0 264 459q39 127 53 197q8 41 62 41q38 0 38 -51q0 -29 -50 -210q-167 -584 -406 -584q-196 0 -407 468z" />
    <glyph glyph-name="L" unicode="L" horiz-adv-x="1120" 
d="M959 177q51 108 108 283q39 127 53 197q8 41 62 41q38 0 38 -51q0 -29 -50 -210q-51 -179 -109 -303q-180 -383 -434 -383q-115 0 -243.5 53.5t-189.5 53.5q-42 0 -88 -11q-43 -63 -86 -63q-30 0 -57 22.5t-27 49.5q0 53 75 105q33 110 33 253q0 159 -32 362
q-26 165 -26 258q0 317 161 455q118 101 291 101q122 0 204 -65q143 -114 143 -310q0 -172 -139 -339q-34 -42 -72 -42q-31 0 -56.5 18.5t-25.5 40.5q0 28 23 56q90 108 90 238q0 102 -63 176t-158 74q-124 0 -180 -131q-41 -94 -41 -205q0 -127 29 -304q32 -198 32 -346
q0 -130 -40 -253q113 0 241.5 -49.5t222.5 -49.5q175 0 311 278z" />
    <glyph glyph-name="M" unicode="M" horiz-adv-x="2037" 
d="M624 528q15 99 15 280q0 426 -110 426q-63 0 -63 -149q0 -144 49 -297q33 -100 109 -260zM306 -325q-164 0 -260 105t-96 254q0 86 46 166t145 135q26 14 52 14q18 0 47.5 -10t42.5 -40q3 -7 3 -14q0 -22 -33 -39q-67 -36 -104.5 -99.5t-37.5 -130.5q0 -68 45 -121
q57 -69 150 -69q140 0 209 205q44 128 69 251q-100 155 -170 330q-110 273 -110 478q0 127 65.5 204.5t173.5 77.5q54 0 104 -31t86.5 -92t52.5 -122q34 -134 34 -345q0 -254 -55 -503q131 -196 263 -286q45 147 105 429q53 245 120 498t168 443q14 27 68 27q51 0 95.5 -22
t44.5 -62q0 -15 -7 -124q-18 -292 -18 -493q0 -132 8 -250q21 -438 108 -438q115 0 264 459q39 127 53 197q8 41 62 41q38 0 38 -51q0 -29 -50 -210q-167 -584 -406 -584q-257 0 -257 752q0 165 5 316q-86 -283 -149 -580q-46 -215 -97 -393q-21 -71 -86 -95
q-26 -10 -53 -10q-110 0 -326 256l-18 -59q-121 -365 -394 -365z" />
    <glyph glyph-name="N" unicode="N" horiz-adv-x="1320" 
d="M10 -262q-172 0 -172 234q0 367 232 845q-52 248 -129 458q-4 10 -4 21q0 17 10 35q17 29 48 43.5t53 14.5q48 0 61 -34q54 -138 93 -297q213 331 438 331q293 0 293 -378q0 -123 -19.5 -293.5t-19.5 -349.5q0 -367 109 -367q115 0 264 459q39 127 53 197q8 41 62 41
q38 0 38 -51q0 -29 -50 -210q-167 -584 -406 -584q-257 0 -257 515q0 145 16.5 283t16.5 271q0 302 -107 302q-177 0 -382 -370l5 -25q64 -315 64 -559q0 -217 -64 -355q-83 -177 -246 -177zM20 -130q120 0 120 352q0 147 -27 346q-136 -331 -136 -606q0 -92 43 -92z" />
    <glyph glyph-name="O" unicode="O" horiz-adv-x="1210" 
d="M779 483q0 168 -40 281q-41 -52 -74 -59q-23 -4 -33 -4q-24 0 -43 13q-24 16 -24 45q0 30 28 62q80 89 80 208q0 81 -55 138t-152 57q-148 0 -225 -239q-69 -210 -69 -377q0 -212 59 -387q39 -115 105 -171.5t146 -56.5q32 0 67 9q95 24 145.5 107t67.5 184t17 190z
M534 -163q-346 0 -469 286q-73 180 -73 409q0 281 88 494q42 104 104 181q100 126 191.5 152t147.5 26q60 0 117 -20q109 -39 166 -133q48 -80 48 -172q0 -48 -13 -99q121 -145 121 -427q0 -280 -121 -474q111 52 200 184q119 178 169 413q8 41 62 41q38 0 38 -51
q0 -19 -17 -81q-58 -227 -186 -402q-242 -327 -573 -327z" />
    <glyph glyph-name="P" unicode="P" horiz-adv-x="1088" 
d="M556 517q227 56 287 294q14 57 14 107q0 87 -42 153q-67 104 -245 104q-51 0 -94 -18q59 -330 80 -640zM267 -78q63 0 90 163q21 123 21 263q0 283 -66 670q-119 -180 -158 -471q-16 -119 -16 -253q0 -372 129 -372zM220 -233q-95 0 -150.5 66.5t-82.5 170t-27 286.5
q0 175 28.5 326.5t99.5 310t192 272.5q-17 84 -17 116q0 27 33.5 52t81.5 25q56 0 64 -46l8 -42q74 29 162 29q170 0 282 -77q53 -36 83 -86q61 -105 61 -220q0 -174 -119 -340q-142 -198 -360 -242q0 -149 -29 -281q-42 -192 -153 -274q-63 -46 -157 -46z" />
    <glyph glyph-name="Q" unicode="Q" horiz-adv-x="1213" 
d="M1010 -524q-234 0 -396 264q-30 49 -56 97h-21q-346 0 -469 286q-73 180 -73 409q0 281 88 494q42 104 104 181q100 126 191.5 152t147.5 26q60 0 117 -20q109 -39 166 -133q48 -80 48 -172q0 -48 -13 -99q121 -145 121 -427q0 -280 -121 -474q111 52 200 184
q119 178 169 413q8 41 62 41q38 0 38 -51q0 -19 -17 -81q-58 -227 -186 -402q-157 -212 -351 -286q29 -45 60 -88q117 -161 236 -161q90 0 90 108q0 95 89 95q88 0 88 -95q0 -125 -85 -193t-227 -68zM482 -7q-42 99 -70 198l-19 66q-4 16 -4 30q0 38 27 59t61 21
q76 0 97 -67l23 -73q27 -85 63 -165q21 20 38 47q84 139 84 374q0 168 -40 281q-41 -52 -74 -59q-23 -4 -33 -4q-24 0 -43 13q-24 16 -24 45q0 30 28 62q80 89 80 208q0 81 -55 138t-152 57q-148 0 -225 -239q-69 -210 -69 -377q0 -212 59 -387q39 -115 104.5 -171
t143.5 -57z" />
    <glyph glyph-name="R" unicode="R" horiz-adv-x="1455" 
d="M271 -78q62 0 91 163q19 111 20 201v65q0 292 -66 667q-124 -188 -163 -499q-11 -91 -11 -210q0 -387 129 -387zM560 517q117 29 188.5 106t98.5 188q14 57 14 107q0 87 -42 153q-66 103 -245 103q-50 0 -94 -17q59 -330 80 -640zM224 -233q-95 0 -150 66.5t-82.5 170
t-27.5 286.5q0 169 30 328q28 150 98.5 308.5t191.5 272.5q-17 84 -17 95q0 27 39 62.5t96 35.5q36 0 44 -46l8 -42q74 29 162 29q69 0 146 -19q157 -40 218.5 -144.5t61.5 -219.5q0 -174 -118 -340q-47 -67 -103 -116q155 -493 317 -493q115 0 264 459q39 127 53 197
q8 41 62 41q38 0 38 -51q0 -29 -50 -210q-167 -584 -406 -584q-261 0 -428 548q-50 -23 -108 -42q0 -268 -85 -430t-254 -162z" />
    <glyph glyph-name="S" unicode="S" horiz-adv-x="1098" 
d="M979 328q80 147 119 329q8 41 62 41q38 0 38 -51q0 -19 -17 -81q-41 -162 -119 -298q-278 -484 -667 -484q-213 0 -329 105t-116 254q0 86 46 166t145 135q26 14 52 14q18 0 47.5 -10t42.5 -40q3 -7 3 -14q0 -22 -33 -39q-67 -36 -104.5 -99.5t-37.5 -130.5
q0 -68 45 -121q57 -69 190 -69q136 0 216.5 81t80.5 215q0 71 -35 126t-91 102t-122 93q-79 55 -153.5 120t-123.5 152t-49 208q0 122 57.5 210t160.5 127q56 21 122 21q176 0 282 -107q85 -85 85 -233q0 -85 -21 -157q-12 -40 -67 -40q-35 0 -60 16.5t-25 48.5q0 11 4 25
q12 43 12 99q0 191 -160 191q-96 0 -153.5 -70.5t-57.5 -160.5q0 -75 34.5 -130.5t90 -102.5t120.5 -92q80 -56 155.5 -122.5t126 -160.5t50.5 -229q0 -31 -4 -60q67 63 158 223z" />
    <glyph glyph-name="T" unicode="T" horiz-adv-x="1038" 
d="M784 1247q-65 -8 -151 -11q-28 -347 -28 -617q0 -132 8 -250q21 -438 108 -438q115 0 264 529q39 127 53 197q8 41 62 41q38 0 38 -51q0 -29 -50 -210q-167 -654 -406 -654q-257 0 -257 752q0 388 30 696q-136 -16 -215 -97q-98 -101 -98 -257q0 -215 85 -358
q24 -40 24 -68q0 -16 -7 -28q-18 -30 -56 -30q-53 0 -95 62q-127 188 -127 444q0 197 150.5 344t473.5 147q97 0 184.5 7.5t172.5 38.5q17 6 32 6q22 0 33 -17t11 -37q0 -109 -239 -141z" />
    <glyph glyph-name="U" unicode="U" horiz-adv-x="1699" 
d="M687 -209q-163 0 -229 145q-48 106 -48 267q0 128 9 219q22 210 24 336v88q0 381 -128 381q-81 0 -123 -95q-47 -99 -47 -255q0 -215 85 -358q24 -40 24 -68q0 -16 -7 -28q-18 -30 -56 -30q-53 0 -95 62q-127 188 -127 444q0 134 41 248q37 103 108.5 166.5t176.5 63.5
q117 0 185.5 -58.5t101.5 -151t40 -179t7 -151.5q0 -120 -22 -318q-21 -189 -21 -319q0 -260 82 -260q75 0 152 176q168 387 290 1228q5 32 67 32q38 0 70 -14q40 -18 40 -61q0 -16 -4 -60q-22 -213 -22 -387v-169q0 -109 10 -247t23 -233q29 -204 88 -204q115 0 264 459
q39 127 53 197q8 41 62 41q38 0 38 -51q0 -29 -50 -210q-167 -584 -406 -584q-232 0 -257 623q-160 -685 -399 -685z" />
    <glyph glyph-name="V" unicode="V" horiz-adv-x="1427" 
d="M1176 435l4 -2q16 -9 37 -9q38 0 87 32.5t79.5 85.5t43.5 115q8 41 62 41q38 0 38 -51q0 -23 -23 -86q-16 -43 -40 -82q-45 -71 -114.5 -114t-132.5 -43q-34 0 -64 11q-83 -334 -220 -474q-67 -68 -151 -68q-158 0 -235 154q-52 104 -71 274.5t-25 359.5q-14 407 -77 538
q-51 105 -122 105q-58 0 -88 -53q-41 -73 -41 -208q0 -55 9.5 -134t36 -170t63.5 -157q18 -32 18 -58q0 -18 -9 -32q-20 -31 -59 -31q-3 0 -27.5 1.5t-59.5 55.5q-72 111 -109 268q-29 125 -29 248q0 214 70.5 320t202.5 106q249 0 338 -322q59 -213 64 -506q2 -105 12 -244
q14 -201 46 -292q24 -69 84 -69q64 0 133 136q25 50 52 116q42 106 75 247q-101 172 -101 481q0 465 151 465q140 0 140 -491q0 -219 -40 -425z" />
    <glyph glyph-name="W" unicode="W" horiz-adv-x="1965" 
d="M791 -210q-108 0 -171 73.5t-94.5 194.5t-44 267.5t-18.5 295.5q-5 120 -13.5 229t-26 193.5t-51.5 134t-92 49.5q-57 0 -93 -84q-47 -111 -47 -266q0 -248 105 -366q29 -33 29 -68q0 -25 -25 -40.5t-54 -15.5q-33 0 -66 36q-84 91 -124 215q-42 130 -42 273
q0 117 31.5 223t96 175t156.5 69q296 0 376 -436q35 -193 46 -513q4 -133 12.5 -241t31.5 -172.5t72 -64.5q55 0 93 71q107 203 107 766q0 151 -10.5 235.5t-10.5 115.5q0 57 57 57q87 0 109 -55q29 -74 34 -382q9 -588 64 -745q24 -69 84 -69q88 0 185 252q42 106 75 247
q-101 172 -101 481q0 465 151 465q140 0 140 -491q0 -236 -48 -464q22 -11 41 -11q38 0 87 32.5t79.5 85.5t43.5 115q8 41 62 41q38 0 38 -51q0 -23 -23 -86q-49 -130 -154 -196q-70 -43 -133 -43q-34 0 -64 11q-83 -334 -220 -474q-67 -68 -151 -68q-158 0 -235 154
q-32 64 -52 154q-24 -98 -74 -184q-73 -125 -168 -125z" />
    <glyph glyph-name="X" unicode="X" horiz-adv-x="1600" 
d="M681 73q-21 43 -40 90q-214 -230 -411 -349q-18 -10 -39 -10q-50 0 -87 42q-25 28 -25 56q0 32 27 49q230 141 466 414q-43 146 -78 292q-38 152 -76.5 279.5t-86.5 205.5t-115 78q-54 0 -76 -83q-17 -66 -17 -155q0 -24 3 -97t33.5 -191.5t79.5 -193.5q21 -32 21 -57
t-24 -45t-49 -20q-41 0 -74 46q-60 83 -101 203q-68 195 -68 383q0 57 11.5 140.5t66 155.5t157.5 72q122 0 207.5 -77t145.5 -202t103 -275q41 -142 76 -287q245 307 325 589q30 105 32 208q2 58 66 58q52 0 89 -39q25 -27 25 -59q-1 -68 -9 -122q-34 -228 -193 -493
q-118 -195 -275 -376q157 -404 357 -404q175 0 311 278q51 108 108 283q39 127 53 197q8 41 62 41q38 0 38 -51q0 -29 -50 -210q-51 -179 -109 -303q-180 -383 -434 -383q-272 0 -426 322z" />
    <glyph glyph-name="Y" unicode="Y" horiz-adv-x="1505" 
d="M1091 498q-166 -647 -405 -647q-163 0 -229 145q-48 106 -48 267q0 128 9 219q22 210 24 336v88q0 321 -128 321q-81 0 -123 -95q-47 -99 -47 -255q0 -215 85 -358q24 -40 24 -68q0 -16 -7 -28q-18 -30 -56 -30q-53 0 -95 62q-127 188 -127 444q0 134 41 248
q37 103 108.5 166.5t176.5 63.5q117 0 186 -58q38 -33 65 -68q83 -110 83 -354q0 -120 -22 -318q-21 -189 -21 -319q0 -260 82 -260q143 0 300 599q78 301 142 745q5 32 67 32q38 0 70 -14q40 -18 40 -61q0 -16 -4 -60q-22 -213 -22 -387q0 -77 4 -174.5t9 -202.5
q7 -135 10 -250q77 71 126 166q67 125 96 264q8 41 54 41t46 -51q0 -11 -5 -32.5t-12 -46.5q-31 -116 -89 -223q-79 -149 -214 -247v-22q0 -776 -242 -1004q-77 -72 -189 -72q-84 0 -134 36.5t-72 97.5t-22 136q0 228 158 468q130 197 323 362q-3 194 -16 398zM776 -730
q0 -23 7 -53t24 -53t47 -23q123 0 187 247q60 234 67 552v27q-69 -69 -129 -153q-91 -126 -147 -266.5t-56 -277.5z" />
    <glyph glyph-name="Z" unicode="Z" horiz-adv-x="1191" 
d="M82 -39l117 157q128 167 248.5 341t203.5 351.5t101 356.5q-129 32 -244 48t-182 16q-86 0 -135 -44.5t-68.5 -105.5t-19.5 -120q0 -153 74 -273q23 -36 23 -65q0 -22 -11 -39q-23 -35 -67 -35q-63 0 -106 81q-71 135 -72 298q0 115 41 218.5t146.5 171t261.5 67.5
q117 0 372 -49q133 -26 155 -54q15 -19 15 -60q0 -23 -4 -52q-11 -82 -36 -167q-77 -262 -262 -538q-151 -225 -339 -468q96 -7 203 -48q128 -50 222 -50q175 0 311 278q51 108 108 283q39 127 53 197q8 41 62 41q38 0 38 -51q0 -29 -50 -210q-51 -179 -109 -303
q-180 -383 -434 -383q-115 0 -243.5 53.5t-189.5 53.5q-42 0 -80 -9q-51 -65 -94 -65q-30 0 -57 22.5t-27 49.5q0 53 75 105z" />
    <glyph glyph-name="bracketleft" unicode="[" horiz-adv-x="699" 
d="M196 -328q-72 0 -72 53q0 191 -24 1733q0 55 65 84q41 18 288 18q34 0 52 -20q13 -15 13 -35q0 -42 -41 -73q-30 -23 -67 -24l-135 -5l34 -1580l234 2q56 0 56 -66q0 -33 -21.5 -59t-58.5 -26z" />
    <glyph glyph-name="backslash" unicode="\" horiz-adv-x="645" 
d="M458 -272q-35 0 -47 46l-160 588q-139 497 -258 1049q-3 13 -3 26q0 80 87 80q36 0 47 -48q120 -509 254 -1004q167 -617 167 -676q0 -61 -87 -61z" />
    <glyph glyph-name="bracketright" unicode="]" horiz-adv-x="699" 
d="M503 1560q72 0 72 -53q0 -191 24 -1733q0 -55 -65 -84q-41 -18 -288 -18q-34 0 -52 20q-13 15 -13 35q0 42 41 73q30 23 67 24l135 5l-34 1580l-234 -2q-56 0 -56 66q0 33 21.5 59t58.5 26z" />
    <glyph glyph-name="asciicircum" unicode="^" horiz-adv-x="837" 
d="M177 583q-30 0 -53.5 15t-23.5 34q0 17 12 37l176 297l71 123q29 48 55 48q85 0 106 -37q61 -103 114 -209l96 -184q7 -12 7 -25q0 -41 -47 -68q-26 -15 -51 -15q-35 0 -50 26q-51 91 -164 313q-178 -355 -248 -355z" />
    <glyph glyph-name="underscore" unicode="_" horiz-adv-x="925" 
d="M153 -290q-22 0 -37.5 12t-15.5 34q0 28 25 52q44 40 281 41l130 1q143 0 245 -10q44 -5 44 -44q0 -12 -6 -25q-12 -27 -36.5 -40.5t-47.5 -13.5l-353 5q-53 0 -130.5 -6t-98.5 -6z" />
    <glyph glyph-name="grave" unicode="`" horiz-adv-x="506" 
d="M341 906q-35 0 -171 117l-54 48q-16 15 -16 32q0 28 29 51.5t59 23.5q20 0 36 -15q182 -169 182 -203q0 -15 -20 -34.5t-45 -19.5z" />
    <glyph glyph-name="a" unicode="a" horiz-adv-x="853" 
d="M179 130q49 0 95 65.5t86 158.5t69 174q0 22 -19 61.5t-56 73.5t-91 34q-55 0 -91 -50t-53 -124t-17 -149q0 -93 21 -165q23 -79 56 -79zM587 -77q-119 0 -153 181q-9 51 -13 115q-127 -245 -291 -245q-101 0 -152.5 106.5t-51.5 244.5q0 204 79.5 350.5t241.5 146.5
q110 0 173 -71q15 -18 28 -36q13 137 123 137q25 0 41 -15.5t16 -40.5q0 -17 -3 -46q-31 -338 -31 -513q0 -30 1 -57q3 -109 31 -109q48 0 124 211q61 177 103 375q8 41 61 41q39 0 39 -41q0 -31 -24 -126q-82 -333 -149 -461q-78 -147 -193 -147z" />
    <glyph glyph-name="b" unicode="b" horiz-adv-x="951" 
d="M387 99q55 0 91 50t53 124t17 149q0 93 -21 165q-23 79 -56 79q-49 0 -95 -65.5t-86 -158.5t-69 -174q0 -22 19 -61.5t56 -73.5t91 -34zM433 -26q-140 0 -226 100q0 -30 -22 -57q-36 -42 -90 -42q-61 0 -65 52q-32 446 -32 724q0 809 243 1037q76 72 188 72
q218 0 218 -270q0 -249 -147 -495q-124 -209 -323 -392q2 -112 6 -225q142 344 337 344q101 0 152.5 -106.5t51.5 -244.5q0 -183 -64 -319q59 40 110 103q132 165 181 402q8 41 62 41q38 0 38 -51q0 -21 -18 -85q-59 -216 -184 -371q-166 -217 -416 -217zM175 845
q182 196 276 449q56 150 56 296q0 129 -78 129q-123 0 -186 -246q-61 -235 -68 -585v-43z" />
    <glyph glyph-name="c" unicode="c" horiz-adv-x="695" 
d="M247 -26q-102 0 -177.5 58.5t-109.5 142.5t-34 191q0 114 38 219.5t111.5 174.5t182.5 69q130 0 192 -114q47 -87 47 -185q0 -63 -98 -63q-36 0 -37 50q-3 85 -49 138q-25 30 -69 30q-84 0 -116 -137q-19 -79 -19 -170q0 -63 24 -126q19 -50 56 -87t92 -37q166 0 307 248
q76 133 107 281q8 41 61 41q39 0 39 -51q0 -22 -19 -88q-22 -77 -56 -148q-207 -437 -473 -437z" />
    <glyph glyph-name="d" unicode="d" horiz-adv-x="1023" 
d="M179 130q49 0 95 65.5t86 158.5t69 174q0 22 -19 61.5t-56 73.5t-91 34q-55 0 -91 -50t-53 -124t-17 -149q0 -93 21 -165q23 -79 56 -79zM707 -77q-141 0 -206 211q-24 77 -39 172q-141 -332 -332 -332q-101 0 -152.5 106.5t-51.5 244.5q0 204 79.5 350.5t241.5 146.5
q110 0 190 -92q0 310 34 547q51 353 198 502q79 81 179 81q187 0 187 -250q0 -248 -155 -527q-153 -275 -264 -379q3 -204 16 -339q28 -294 114 -294q41 0 82 60t77.5 149t64.5 180q39 127 53 197q8 41 61 41q39 0 39 -51q0 -30 -50 -210q-59 -208 -140 -344
q-102 -170 -226 -170zM614 860q68 97 148 267q123 262 123 483q0 109 -47 109q-38 0 -84 -69.5t-74 -176.5t-42.5 -223t-19 -215t-4.5 -147v-28z" />
    <glyph glyph-name="e" unicode="e" horiz-adv-x="681" 
d="M167 400q63 0 101 21q82 46 82 145q0 47 -26.5 83t-67.5 36q-51 0 -84.5 -46t-51.5 -109.5t-22 -120.5q28 -9 69 -9zM233 -26q-146 0 -242 122q-79 100 -79 263q0 171 80 305q98 165 277 165q101 0 162 -75q56 -68 56 -167q0 -79 -40.5 -152.5t-111 -105.5t-146.5 -32
q-40 0 -86 7q12 -60 45 -107q49 -69 119 -69q166 0 307 248q76 133 107 281q8 41 61 41q39 0 39 -51q0 -22 -19 -88q-22 -77 -56 -148q-207 -437 -473 -437z" />
    <glyph glyph-name="f" unicode="f" horiz-adv-x="568" 
d="M303 -879q82 0 82 229q0 376 -206 672v-223q1 -678 124 -678zM176 880q61 91 131 237q123 257 123 473q0 129 -52 129q-96 0 -147 -246q-50 -240 -55 -593zM303 -1000q-300 0 -301 793v257q-11 -2 -17 -2q-51 0 -51 59q0 34 41 42q12 2 26 6l-2 676q0 122 9.5 261
t34 276.5t68 248t109 177t158.5 66.5q202 0 202 -270q0 -243 -155 -516q-143 -251 -250 -356l3 -525q277 69 365 367q17 58 25 98t62 40q38 0 38 -51q0 -32 -23 -112q-96 -336 -397 -431q277 -367 277 -754q0 -350 -222 -350z" />
    <glyph glyph-name="g" unicode="g" horiz-adv-x="824" 
d="M179 130q49 0 95 65.5t86 158.5t69 174q0 22 -19 61.5t-56 73.5t-91 34q-55 0 -91 -50t-53 -124t-17 -149q0 -93 21 -165q23 -79 56 -79zM193 -1000q-84 0 -134 36.5t-72 97.5t-22 136q0 228 158 468q130 197 323 362q-1 81 -4 161q-134 -287 -312 -287
q-101 0 -152.5 106.5t-51.5 244.5q0 204 79.5 350.5t241.5 146.5q106 0 168 -67q1 30 22 55q37 42 91 42q60 0 64 -52q23 -319 29 -554q64 64 107 147q67 125 96 264q8 41 54 41t46 -51q0 -18 -17 -79q-83 -300 -283 -455v-37q0 -776 -242 -1004q-77 -72 -189 -72zM193 -859
q123 0 187 247q60 234 67 552v27q-182 -185 -276 -419q-56 -141 -56 -278q0 -23 7 -53t24 -53t47 -23z" />
    <glyph glyph-name="h" unicode="h" horiz-adv-x="977" 
d="M712 -77q-89 0 -131.5 60.5t-42.5 197.5q0 73 2 155t2 192q0 145 -71 145q-101 0 -182 -282q-33 -115 -54 -209q-31 -141 -50 -165q-36 -42 -90 -42q-61 0 -65 52q-32 446 -32 724q0 809 243 1037q76 72 188 72q218 0 218 -270q0 -249 -147 -495q-124 -209 -323 -392
q2 -154 10 -307q121 426 333 426q97 0 150.5 -72.5t53.5 -191.5q0 -125 -4 -226t-4 -197q0 -64 35 -64q49 0 124 211q62 176 102 375q8 41 55 41q45 0 45 -51q0 -17 -21 -105q-80 -335 -152 -472q-78 -147 -192 -147zM175 845q182 196 276 449q56 150 56 296q0 129 -78 129
q-123 0 -186 -246q-61 -235 -68 -585v-43z" />
    <glyph glyph-name="i" unicode="i" horiz-adv-x="434" 
d="M126 904q-37 0 -62 32t-25 74q1 54 31.5 88t75.5 34q42 0 64.5 -32t22.5 -74q0 -52 -26 -87t-81 -35zM143 -77q-66 0 -102 49q-13 18 -24 41q-43 92 -43 282q0 119 20 317l7 69q9 121 121 121q25 0 41 -16t16 -40q0 -25 -6 -85q-23 -285 -23 -421l1 -61q3 -108 31 -108
q55 0 117 137q76 169 135 449q9 41 59 41q41 0 41 -51q0 -14 -10 -55q-50 -214 -99 -352q-64 -183 -158 -268q-54 -49 -124 -49z" />
    <glyph glyph-name="j" unicode="j" horiz-adv-x="401" 
d="M54 934q-37 0 -62 32t-25 74q1 54 31 88t76 34q42 0 64.5 -32t22.5 -74q0 -52 -26.5 -87t-80.5 -35zM-128 -859q78 0 116 234q32 199 35 490q-229 -304 -229 -595q0 -22 7 -52.5t23.5 -53.5t47.5 -23zM-129 -1000q-84 0 -134 36.5t-71.5 97.5t-21.5 136q0 234 158 482
q95 149 222 278q-4 376 -27 648q-5 58 -5 75q0 99 113 99q60 0 64 -52q25 -343 30 -589q37 54 72 120q98 185 131 326q9 41 55 41q44 0 44 -51q0 -13 -18 -74q-40 -136 -126 -297q-73 -137 -156 -228q-1 -119 -6 -240q-36 -808 -324 -808z" />
    <glyph glyph-name="k" unicode="k" horiz-adv-x="952" 
d="M635 -77q-131 0 -226 153q-52 84 -76.5 163.5t-24.5 110.5q0 15 16.5 32.5t40.5 17.5q97 0 135 21q81 45 81 145q0 47 -26 83t-68 36q-87 0 -156 -173q-53 -133 -108 -384q-16 -84 -38 -111q-36 -42 -90 -42q-61 0 -65 52q-32 446 -32 724q0 809 243 1037q76 72 188 72
q218 0 218 -270q0 -249 -147 -495q-124 -209 -323 -392q2 -141 8 -281q39 134 92 227q91 160 232 160q105 0 157.5 -65t52.5 -157q0 -79 -40 -152q-58 -106 -193 -132q48 -117 108 -184q43 -48 80 -48q71 0 139 137q46 93 76 195q36 126 63 254q9 41 55 41q45 0 45 -51
q0 -11 -11 -60q-42 -189 -98 -346q-66 -185 -169 -269q-59 -49 -139 -49zM175 845q182 196 276 449q56 150 56 296q0 129 -78 129q-123 0 -186 -246q-61 -235 -67 -585z" />
    <glyph glyph-name="l" unicode="l" 
d="M269 -77q-142 0 -207 211q-49 159 -59 389q-5 101 -5 214q0 805 232 1042q80 81 180 81q187 0 187 -250q0 -248 -155 -527q-153 -275 -264 -379q3 -204 16 -339q27 -294 114 -294q41 0 82 60t77.5 149t64.5 180q39 127 53 197q8 41 62 41q38 0 38 -51q0 -29 -51 -210
q-59 -208 -140 -344q-102 -170 -225 -170zM176 860q68 97 148 267q123 262 123 483q0 109 -47 109q-38 0 -84 -69.5t-74 -176.5t-42.5 -223t-19 -215t-4.5 -175z" />
    <glyph glyph-name="m" unicode="m" horiz-adv-x="1379" 
d="M1114 -77q-89 0 -131.5 60.5t-42.5 197.5q0 73 2 155t2 192q0 145 -51 145q-108 0 -229 -598q-6 -29 -28 -57q-35 -43 -90 -43q-64 0 -64 52q0 97 -2 258t-2 243q0 145 -51 145q-93 0 -199 -439q-18 -73 -27 -131q-20 -128 -121 -128q-64 0 -64 52q0 144 -11 463
q-7 198 -7 256q0 23 12.5 39.5t37.5 16.5q96 0 109 -50q22 -81 30 -324q51 175 92 253q73 141 187 141q97 0 145.5 -72.5t48.5 -191.5v-106q47 157 85 229q73 141 187 141q97 0 145.5 -72.5t48.5 -191.5q0 -125 -4 -226t-4 -197q0 -64 35 -64q49 0 124 211q62 176 102 375
q8 41 55 41q45 0 45 -51q0 -14 -21 -105q-80 -334 -152 -472q-78 -147 -192 -147z" />
    <glyph glyph-name="n" unicode="n" horiz-adv-x="963" 
d="M698 -77q-89 0 -131.5 60.5t-42.5 197.5q0 73 2 155t2 192q0 145 -71 145q-101 0 -182 -282q-53 -186 -76 -306q-7 -39 -29 -67q-35 -43 -90 -43q-64 0 -64 52q0 117 -11 463q-7 198 -7 256q0 23 12.5 39.5t37.5 16.5q96 0 109 -50q21 -79 29 -308q114 378 320 378
q97 0 150.5 -72.5t53.5 -191.5q0 -125 -4 -226t-4 -197q0 -64 35 -64q49 0 124 211q62 176 102 375q8 41 55 41q45 0 45 -51q0 -14 -21 -105q-79 -332 -152 -472q-78 -147 -192 -147z" />
    <glyph glyph-name="o" unicode="o" horiz-adv-x="810" 
d="M217 -24q-104 0 -171.5 53.5t-99.5 140.5t-32 183q0 69 21 152q26 106 85 185q104 139 277 139q110 0 179 -50t101.5 -130t32.5 -171q0 -25 -2 -51q44 6 79 30q94 62 123 200q8 41 62 41q38 0 38 -51q0 -23 -23 -86q-49 -130 -154 -196q-62 -38 -142 -42
q-17 -74 -41 -127q-101 -220 -333 -220zM260 129q82 0 125 62t58 141l6 38q-45 47 -45 113q0 56 32 94q-43 107 -153 107q-138 0 -175 -166q-16 -69 -16 -132q0 -49 16.5 -109.5t53.5 -104t98 -43.5z" />
    <glyph glyph-name="p" unicode="p" horiz-adv-x="926" 
d="M362 99q55 0 91 50t53 124t17 149q0 93 -21 165q-23 79 -56 79q-49 0 -95 -65.5t-86 -158.5t-69 -174q0 -22 19 -61.5t56 -73.5t91 -34zM197 -973q-88 0 -110 74q-107 355 -107 1020q0 75 5 270q11 431 59 454q15 7 34 7q45 0 78 -30t33 -60q0 -15 -5 -66
q-8 -80 -14 -190q138 316 325 316q101 0 152.5 -106.5t51.5 -244.5q0 -183 -64 -319q59 40 110 103q132 165 181 402q8 41 62 41q38 0 38 -51q0 -21 -18 -85q-59 -216 -184 -371q-178 -217 -406 -217q-180 0 -260 135v-44q0 -637 95 -947q7 -23 7 -33q0 -58 -63 -58z" />
    <glyph glyph-name="q" unicode="q" horiz-adv-x="944" 
d="M179 130q49 0 95 65.5t86 158.5t69 174q0 22 -19 61.5t-56 73.5t-91 34q-55 0 -91 -50t-53 -124t-17 -149q0 -93 21 -165q23 -79 56 -79zM445 719q15 114 39 126q15 7 34 7q55 0 91 -44q20 -26 20 -56q0 -36 -13 -231.5t-13 -312.5q235 81 316 352q16 58 24 97
q8 41 62 41q39 0 39 -51q0 -20 -24 -112q-90 -314 -358 -417q288 -374 288 -768q0 -350 -222 -350q-300 0 -300 793l-2 435q-129 -254 -296 -254q-101 0 -152.5 106.5t-51.5 244.5q0 204 79.5 350.5t241.5 146.5q110 0 198 -103zM604 22l1 -223q0 -678 123 -678q82 0 82 229
q0 376 -206 672z" />
    <glyph glyph-name="r" unicode="r" horiz-adv-x="630" 
d="M314 -77q-94 0 -140 92q-27 57 -27 179q0 170 63 432l13 65q-56 8 -106 31l-15 -74q-10 -52 -52 -52q-21 0 -36 12.5t-15 37.5q0 6 1 11q1 6 10.5 50.5t16.5 83.5q-58 74 -58 173q0 60 25 86.5t60 26.5q50 0 77 -43q20 -32 20 -76q0 -43 -14 -129v-2q57 -37 141 -40
q27 15 67 15q25 0 40.5 -16.5t15.5 -39.5q0 -24 -29 -146q-63 -261 -63 -428q0 -101 44 -101q62 0 134 137q53 102 80 195q37 126 63 254q9 41 61 41q39 0 39 -51q0 -15 -18 -94q-42 -184 -93 -312q-73 -184 -174 -269q-58 -49 -131 -49z" />
    <glyph glyph-name="s" unicode="s" horiz-adv-x="771" 
d="M602 244q119 178 169 413q8 41 62 41q38 0 38 -51q0 -19 -17 -81q-58 -227 -186 -402q-179 -239 -385 -239q-99 0 -156.5 33t-83 83.5t-25.5 106.5q0 49 27 60q24 9 39 9q17 0 34 -8q32 -13 35 -49q2 -55 35.5 -81t74.5 -26q43 0 78 26.5t35 76.5q0 37 -40 66.5t-97.5 61
t-114.5 71t-95.5 94.5t-38.5 144q0 78 38 142.5t100.5 93.5t135.5 29q95 0 155.5 -42t87.5 -103.5t27 -126.5q0 -94 -70 -94q-16 0 -33 9q-33 18 -33 71q0 62 -19.5 100.5t-51 57t-64.5 18.5q-57 0 -90 -46t-33 -99q0 -69 47 -106t113 -74q54 -31 106 -67.5t86.5 -84.5
t34.5 -113q39 33 75 86z" />
    <glyph glyph-name="t" unicode="t" horiz-adv-x="511" 
d="M219 -77q-136 0 -184 167q-36 127 -36 505q0 267 7 401q-21 -6 -46 -15t-34 -9q-25 0 -38 17.5t-13 38.5q0 30 32 42q51 19 103 31q5 108 13 193q5 50 60 50q116 0 116 -102q0 -39 -3 -124q66 -3 133 -16q40 -7 40 -40q0 -59 -50 -59q-18 0 -31 3q-39 9 -96 11
q-14 -226 -14 -530q0 -212 21 -314t56 -102q74 0 145 186q45 118 80 266l31 134q10 41 56 41q44 0 44 -51q0 -15 -32 -151q-96 -405 -245 -530q-51 -43 -115 -43z" />
    <glyph glyph-name="u" unicode="u" horiz-adv-x="915" 
d="M623 -77q-119 0 -153 177q-14 71 -16 120q-100 -245 -249 -245q-112 0 -164.5 74.5t-52.5 228.5q0 105 13 411q2 56 34 84.5t87 28.5q25 0 41 -16.5t16 -39.5q0 -114 -7 -229q-8 -138 -8 -240q0 -171 65 -171q107 0 201 361q18 68 37 167t38 126q30 42 97 42q25 0 41 -16
t16 -40q0 -25 -6 -85q-22 -243 -22 -407l1 -75q2 -108 30 -108q55 0 117 137q76 169 135 449q9 41 65 41q36 0 36 -51q0 -16 -35 -160q-140 -564 -357 -564z" />
    <glyph glyph-name="v" unicode="v" horiz-adv-x="812" 
d="M296 -76q-79 0 -132.5 67t-86.5 169t-50 214.5t-23.5 207.5t-7.5 147q0 31 26 58q37 38 86 38q23 0 40 -10q25 -15 25 -46q1 -80 13 -239t45.5 -306t98.5 -191q77 86 107 354q-33 50 -33 154q0 148 54 248q33 64 106 64q32 0 50.5 -28.5t18.5 -86.5q0 -86 -39 -313
q92 11 146 77t72 155q8 41 59 41q41 0 41 -51q0 -11 -7 -37.5t-16 -50.5q-32 -82 -91 -144q-87 -90 -226 -93q-101 -398 -276 -398z" />
    <glyph glyph-name="w" unicode="w" horiz-adv-x="1127" 
d="M636 -76q-128 0 -190 171q-55 -120 -173 -120q-144 0 -210 193q-51 148 -59 368q-5 116 -5 193q0 31 26 58q37 38 85 38q65 0 66 -56q0 -438 52 -609q22 -73 61 -73q69 0 90 165q9 82 9 206v271q0 31 25 58q37 38 85 38q23 0 40 -10q27 -15 27 -46l-1 -190q0 -202 8 -308
q16 -235 79 -235q56 0 89 128q25 96 31 196q-53 51 -53 166q0 55 10 126q28 201 141 201q78 0 78 -115q0 -86 -39 -313q92 11 146 77t73 155q9 41 55 41q45 0 45 -51q0 -11 -5 -32q-12 -43 -27 -77q-94 -211 -309 -216q-9 -45 -37 -138q-77 -260 -213 -260z" />
    <glyph glyph-name="x" unicode="x" horiz-adv-x="817" 
d="M57 -93q-22 0 -42.5 17.5t-20.5 34.5q0 25 165 302q-92 157 -144 339q-31 106 -31 158q0 25 31.5 41.5t69.5 16.5q39 0 62 -63q66 -180 124 -308l225 348q20 29 48 29q24 0 49 -24t25 -53q0 -14 -8 -26l-275 -406q35 -63 67 -105q65 -87 138 -87q78 0 147 126
q49 87 80 199q28 105 50 211q8 41 60 41q40 0 40 -51q0 -11 -8 -50q-40 -182 -89 -317q-110 -306 -319 -306q-140 0 -270 176l-130 -217q-16 -26 -44 -26z" />
    <glyph glyph-name="y" unicode="y" horiz-adv-x="864" 
d="M240 -859q123 0 187 247q61 238 64 577q-180 -185 -273 -417q-56 -141 -56 -278q0 -23 7 -53t24 -53t47 -23zM240 -1000q-84 0 -134 36.5t-72 97.5t-22 136q0 228 158 468q130 197 322 361q-1 126 -6 249q-110 -373 -294 -373q-112 0 -164.5 74.5t-52.5 228.5
q0 159 19 334l6 69q11 121 123 121q25 0 41 -16t16 -40q0 -25 -8 -85q-29 -208 -29 -384q0 -171 73 -171q114 0 213 408q11 48 28 145t37 121q37 42 81 42q60 0 64 -52q23 -293 29 -517q143 148 196 404q8 41 54 41t46 -51q0 -18 -17 -79q-78 -292 -276 -449v-43
q0 -776 -242 -1004q-77 -72 -189 -72z" />
    <glyph glyph-name="z" unicode="z" horiz-adv-x="631" 
d="M100 -1000q-84 0 -134 36.5t-71.5 97.5t-21.5 136q0 322 364 726q-44 105 -126 190q-31 31 -31 48q0 13 18 44q47 77 88 162t41 167q0 48 -27 69.5t-67 37.5l-16 8q-16 -74 -18 -86q-7 -40 -50 -40q-28 0 -42 21q-9 14 -9 29l29 145q-58 68 -58 177q0 41 18 73
q21 36 66 36q51 0 78 -43q20 -32 20 -76q0 -37 -15 -131q47 -29 103 -48q41 -14 78 -33t60.5 -50t23.5 -85q0 -59 -27 -123.5t-64.5 -122.5t-71.5 -99q66 -71 114 -152q77 84 148 217q98 185 131 326q9 41 57 41q42 0 42 -51q0 -12 -9 -47q-36 -140 -135 -324
q-86 -161 -186 -258q76 -178 76 -399q0 -175 -48 -315t-133 -222t-195 -82zM101 -859q101 0 157 178q45 146 45 298q0 143 -30 268q-109 -134 -178 -295q-72 -166 -72 -320q0 -22 7 -52.5t23.5 -53.5t47.5 -23z" />
    <glyph glyph-name="braceleft" unicode="{" horiz-adv-x="856" 
d="M623 -328q-279 0 -283 276q-1 56 -1 195q0 64 -19 163q-23 116 -126 192q-17 12 -39 23q-55 28 -55 84q0 45 68 67q12 4 23 10q143 77 143 251q0 42 -4 134t-4 141q0 227 208 272q69 15 148 15q74 0 74 -62q0 -54 -71 -54q-105 0 -149 -36.5t-44 -134.5v-183
q0 -89 -16 -178q-24 -131 -158 -236q165 -142 165 -395v-187q0 -67 11 -116q11 -53 47 -81.5t109 -28.5q44 0 64.5 -19t20.5 -42q0 -28 -28.5 -49t-83.5 -21z" />
    <glyph glyph-name="bar" unicode="|" horiz-adv-x="740" 
d="M357 -453q-50 0 -51 40q-5 173 -5 635l-1 801q0 464 36 499q25 25 61 25q43 0 43 -40q-2 -139 -2 -421l2 -1466q0 -21 -13 -38q-26 -35 -70 -35z" />
    <glyph glyph-name="braceright" unicode="}" horiz-adv-x="856" 
d="M233 1495q279 0 283 -276q1 -56 1 -195q0 -64 19 -163q23 -116 126 -192q17 -12 39 -23q55 -28 55 -84q0 -45 -68 -67q-12 -4 -23 -10q-143 -77 -143 -251q0 -42 4 -134t4 -141q0 -227 -208 -272q-69 -15 -148 -15q-74 0 -74 62q0 54 71 54q105 0 149 36.5t44 134.5v183
q0 89 16 178q24 131 158 236q-165 142 -165 395v187q0 67 -11 116q-11 53 -47 81.5t-109 28.5q-44 0 -64.5 19t-20.5 42q0 28 28.5 49t83.5 21z" />
    <glyph glyph-name="asciitilde" unicode="~" horiz-adv-x="960" 
d="M594 416q-48 0 -84 18t-63 44.5t-49 53t-42 45t-41 18.5q-22 0 -42 -28t-35 -60.5t-21 -51.5q-12 -23 -29.5 -24t-21.5 -1q-28 0 -50 16q-16 12 -16 32q0 10 4 23q21 52 52 100t78.5 80t118.5 32q42 0 73 -16.5t55.5 -40.5t45.5 -50q24 -29 47.5 -50t51.5 -21q31 0 54 26
t38 58t22 54q12 28 32.5 31.5t29.5 3.5q21 0 39.5 -10.5t18.5 -31.5q0 -7 -2 -15q-19 -57 -52.5 -110.5t-85.5 -89t-126 -35.5z" />
    <glyph glyph-name="exclamdown" unicode="&#xa1;" horiz-adv-x="602" 
d="M327 538q60 0 60 -72q0 -101 4 -218q11 -305 11 -506q0 -212 -16 -409q-8 -98 -117 -98q-28 0 -48.5 15.5t-20.5 44.5q0 49 6 113q26 277 26 1061q0 69 95 69zM311 822q42 0 64 -32t22 -74q0 -53 -26 -87.5t-81 -34.5q-36 0 -61 32t-25 74q1 54 31 88t76 34z" />
    <glyph glyph-name="cent" unicode="&#xa2;" horiz-adv-x="950" 
d="M331 215l121 467q-13 3 -28 3q-84 0 -116 -137q-19 -79 -19 -170t42 -163zM284 -272q-62 0 -62 44q0 28 55 241q-14 9 -27 20q-144 111 -144 333q0 114 38 219.5t111.5 174.5t182.5 69q26 0 50 -5l34 144q8 34 33 34q62 0 62 -57q0 -13 -35 -167q28 -26 48 -63
q47 -87 47 -185q0 -63 -98 -63q-36 0 -37 50q-1 31 -8 58q-47 -194 -115 -441q19 -6 42 -6q206 0 347 248q76 133 107 281q8 41 61 41q39 0 39 -51q0 -22 -19 -88q-64 -223 -216 -399q-161 -186 -353 -186q-27 0 -51 4l-58 -217q-9 -33 -34 -33z" />
    <glyph glyph-name="sterling" unicode="&#xa3;" horiz-adv-x="986" 
d="M309 -17q-44 0 -75 31q-46 44 -46 104q0 21 11 34q76 96 76 203q0 53 -12 109q-91 -7 -110 -7q-22 0 -37.5 12t-15.5 34q0 28 24.5 51t108.5 33q-22 100 -22 177q0 93 34.5 185t110 152.5t195.5 60.5q102 0 178 -49.5t116.5 -122.5t40.5 -156q0 -40 -15.5 -65.5
t-63.5 -25.5q-34 0 -52.5 16t-28.5 42.5t-18 56.5q-9 35 -22.5 68t-41 54.5t-80.5 21.5q-58 0 -92 -29t-48 -78t-14 -109q0 -75 16 -190l110 1q143 0 245 -10q44 -5 44 -44q0 -12 -6 -25q-12 -27 -36.5 -40.5t-47.5 -13.5l-288 4q11 -65 11 -101q0 -126 -63 -216
q142 14 215 14q178 0 226 -45q34 -32 34 -67q0 -26 -18 -44t-50 -18q-47 0 -99 6q-56 7 -111 7q-137 0 -261 -19q-11 -2 -22 -2z" />
    <glyph glyph-name="currency" unicode="&#xa4;" horiz-adv-x="1007" 
d="M517 295q67 0 114.5 47.5t47.5 114.5t-47.5 114.5t-114.5 47.5t-114.5 -47.5t-47.5 -114.5t47.5 -114.5t114.5 -47.5zM351 201l-117 -91q-33 -23 -68 -23q-34 0 -54 21q-12 16 -12 35q0 40 42 73l111 86q-41 69 -41 155q0 61 21 114q-61 59 -119 121q-14 16 -14 36
q0 40 41 72q32 23 50 24t19 1q33 0 53 -20l89 -91q73 48 165 48q90 0 160 -44l79 83q38 38 84 38q23 0 42 -11q25 -17 25 -46q-1 -30 -27 -59l-102 -107q44 -70 44 -159q0 -75 -31 -136q5 -5 10 -9l87 -74q19 -16 19 -40q0 -37 -35 -67q-30 -26 -50.5 -28.5t-26.5 -2.5
q-27 0 -47 16l-84 73q-66 -37 -147 -37q-93 0 -166 49z" />
    <glyph glyph-name="yen" unicode="&#xa5;" horiz-adv-x="938" 
d="M505 -57q-50 0 -88 37q-28 27 -30 61q-4 54 -5 170q-50 -1 -117 -6q-78 -6 -99 -6q-22 0 -37.5 12t-15.5 34q0 28 25 52q40 37 243 41q0 59 1 104q-49 -1 -117 -6q-78 -6 -99 -6q-22 0 -37.5 12t-15.5 34q0 28 25 52q33 30 172 38q-88 109 -138 228q-72 172 -72 333
q0 33 26 48q18 11 42 11q55 0 93 -40q26 -29 27 -63q8 -224 158 -440q47 82 97 216t59 256q2 34 28 50q18 11 41 11q54 0 93 -41q28 -28 28 -62q0 -108 -46 -222q-35 -88 -142 -282q116 -2 190 -10q44 -4 44 -43q0 -12 -6 -25q-12 -27 -36.5 -40.5t-47.5 -13.5l-173 2
l-2 -100q128 -1 221 -10q44 -5 44 -44q0 -12 -6 -25q-12 -27 -36.5 -40.5t-47.5 -13.5l-177 3q0 -108 3 -203q0 -34 -23 -50q-19 -13 -46 -13z" />
    <glyph glyph-name="section" unicode="&#xa7;" horiz-adv-x="1010" 
d="M516 -800q-176 0 -282 107q-85 85 -85 233q0 85 21 157q12 40 67 40q35 0 60 -16.5t25 -48.5q0 -11 -4 -25q-12 -43 -12 -99q0 -191 160 -191q96 0 153.5 70.5t57.5 160.5q0 75 -34.5 130.5t-90 102.5t-120.5 92q-80 56 -155.5 122.5t-126 160.5t-50.5 229q0 158 112 270
q49 48 116 76q-75 65 -124.5 152.5t-49.5 208.5q0 122 57.5 210t160.5 127q56 21 122 21q176 0 282 -107q85 -85 85 -233q0 -85 -21 -157q-12 -40 -67 -40q-35 0 -60 16.5t-25 48.5q0 11 4 25q12 43 12 99q0 191 -160 191q-97 0 -154 -70.5t-57 -160.5q0 -75 34.5 -130.5
t90 -102.5t120.5 -92q80 -56 155.5 -122.5t126 -160.5t50.5 -229q0 -158 -112 -269q-49 -49 -116 -77q76 -65 125 -152.5t49 -208.5q0 -122 -57.5 -210t-160.5 -127q-56 -21 -122 -21zM520 45q76 19 128 71q80 81 80 215q0 71 -35 126t-91 102q-52 43 -112 86
q-76 -19 -127 -71q-81 -81 -81 -215q0 -71 35 -126t91 -102q52 -43 112 -86z" />
    <glyph glyph-name="dieresis" unicode="&#xa8;" horiz-adv-x="659" 
d="M187 934q-37 0 -62 32t-25 74q1 54 31 88t76 34q42 0 64.5 -32t22.5 -74q0 -52 -26.5 -87t-80.5 -35zM452 934q-37 0 -62 32t-25 74q1 54 31 88t76 34q42 0 64.5 -32t22.5 -74q0 -52 -26.5 -87t-80.5 -35z" />
    <glyph glyph-name="copyright" unicode="&#xa9;" horiz-adv-x="1788" 
d="M878 371q-92 0 -160 52.5t-98.5 128t-30.5 172.5q0 102 34 197t100 157t164 62q117 0 173 -102q43 -79 43 -167q0 -57 -89 -57q-32 0 -33 45q-3 77 -44 125q-23 27 -62 27q-76 0 -105 -124q-17 -71 -17 -153q0 -129 72 -201q34 -34 83 -34q88 0 172 52q9 5 18 5
q20 0 34 -15q17 -20 17 -36t-15 -29q-120 -105 -256 -105zM869 -39q-319 0 -544 225.5t-225 543.5q0 319 225 544t544 225t544 -225t225 -544q0 -318 -225 -543.5t-544 -225.5zM869 38q287 0 489.5 203t202.5 489q0 287 -202.5 489.5t-489.5 202.5t-489.5 -202.5
t-202.5 -489.5q0 -286 202.5 -489t489.5 -203z" />
    <glyph glyph-name="ordfeminine" unicode="&#xaa;" horiz-adv-x="860" 
d="M212 941q41 0 79.5 49.5t72 120.5t57.5 132q0 17 -16 47t-47 56t-76 26q-46 0 -76 -38t-44.5 -94.5t-14.5 -113.5q0 -71 18 -125q19 -60 47 -60zM553 783q-99 0 -128 138q-7 38 -10 87q-107 -186 -244 -186q-85 0 -128 81t-43 186q0 155 66.5 266.5t202.5 111.5
q92 0 144 -54q13 -14 24 -27q11 104 103 104q21 0 34.5 -12t13.5 -31q0 -13 -3 -35q-26 -257 -26 -390q0 -23 1 -43q3 -83 26 -83q40 0 104 160q51 135 86 286q7 31 51 31q33 0 33 -31q0 -24 -20 -96q-69 -254 -125 -351q-65 -112 -162 -112z" />
    <glyph glyph-name="guillemotleft" unicode="&#xab;" horiz-adv-x="829" 
d="M383 708q23 0 36 -24q12 -19 12 -40q0 -27 -14 -47l-141 -203l139 -199q15 -23 15 -56q0 -23 -13 -44q-16 -27 -41 -27q-36 0 -176 210l-33.5 49.5t-16.5 50.5q0 27 19.5 56.5l38.5 58.5l16 25q128 190 159 190zM631 708q23 0 36 -24q12 -19 12 -40q0 -27 -14 -47
l-141 -203l139 -199q15 -23 15 -56q0 -23 -13 -44q-16 -27 -41 -27q-36 0 -176 210l-33.5 49.5t-16.5 50.5q0 27 19.5 56.5l38.5 58.5l16 25q128 190 159 190z" />
    <glyph glyph-name="logicalnot" unicode="&#xac;" horiz-adv-x="925" 
d="M824 508q-1 -237 -41 -281q-24 -25 -52 -25q-22 0 -34 15.5t-12 37.5q0 21 6 98.5t6 129.5v19l-315 4q-53 0 -130.5 -6t-98.5 -6q-22 0 -37.5 12t-15.5 34q0 28 25 52q44 40 281 41l130 1q143 0 245 -10q44 -5 44 -44q0 -12 -1 -72z" />
    <glyph glyph-name="registered" unicode="&#xae;" horiz-adv-x="1277" 
d="M537 1012q19 58 43 100q51 90 130 90q59 0 88.5 -36.5t29.5 -87.5q0 -45 -23 -86q-32 -59 -108 -74q47 -115 132 -169q15 -9 15 -19q0 -9 -14 -15q-23 -9 -49 -9q-74 0 -127 85q-29 47 -42.5 91.5t-13.5 62.5q0 8 9 18t23 10q54 0 75 12q46 25 46 81q0 26 -15 46t-38 20
q-49 0 -87 -96q-23 -58 -51 -175l-14 -59q-14 -67 -68 -67q-35 0 -35 29q0 65 -7 259q-3 111 -3 144q0 12 7 21.5t21 9.5q53 0 61 -28q11 -42 15 -158zM638 423q-223 0 -380.5 157.5t-157.5 380.5t157.5 380.5t380.5 157.5t381 -157.5t158 -380.5t-158 -380.5t-381 -157.5z
M638 476q201 0 343 142t142 343t-142 342.5t-343 141.5q-200 0 -342 -141.5t-142 -342.5t142 -343t342 -142z" />
    <glyph glyph-name="macron" unicode="&#xaf;" horiz-adv-x="800" 
d="M187 1052q-16 0 -26.5 12t-10.5 34q0 28 17 52q31 40 194 41l90 1q98 0 169 -10q30 -5 30 -44q0 -12 -4 -25q-8 -27 -25 -40.5t-33 -13.5l-244 5q-36 0 -89.5 -6t-67.5 -6z" />
    <glyph glyph-name="degree" unicode="&#xb0;" horiz-adv-x="468" 
d="M230 787q47 0 68 30t21 69q0 41 -25.5 79t-71.5 38q-36 0 -52.5 -25.5t-16.5 -60.5q0 -46 22 -88t55 -42zM217 697q-85 0 -131 56.5t-46 128.5q0 55 21 106.5t65.5 84.5t112.5 33q65 0 107 -29t62 -75t20 -96q0 -52 -24.5 -100t-71 -78.5t-115.5 -30.5z" />
    <glyph glyph-name="plusminus" unicode="&#xb1;" horiz-adv-x="925" 
d="M405 506h-23q-53 0 -130.5 -6t-98.5 -6q-22 0 -37.5 12t-15.5 34q0 28 25 52q44 40 278 41l-3 204q0 23 13.5 47.5t40.5 36.5q13 6 25 6q39 0 43 -45q11 -101 11 -244v-4h3q143 0 245 -10q44 -5 44 -44q0 -12 -6 -25q-12 -27 -36.5 -40.5t-47.5 -13.5l-203 3
q-1 -233 -41 -277q-24 -25 -52 -25q-22 0 -34 15.5t-12 37.5q0 21 6 98.5t6 129.5v23zM153 0q-22 0 -37.5 12t-15.5 34q0 28 25 52q44 40 281 41l130 1q143 0 245 -10q44 -5 44 -44q0 -12 -6 -25q-12 -27 -36.5 -40.5t-47.5 -13.5l-353 5q-53 0 -130.5 -6t-98.5 -6z" />
    <glyph glyph-name="acute" unicode="&#xb4;" horiz-adv-x="482" 
d="M145 906q-45 0 -45 39q0 27 181 193q19 18 40 18q16 0 38.5 -16t22.5 -36q0 -17 -19 -33l-175 -151q-17 -14 -43 -14z" />
    <glyph glyph-name="mu" unicode="&#xb5;" horiz-adv-x="857" 
d="M22 -446q-25 0 -41 16t-16 40q0 25 6 85q23 285 23 421q-2 84 -2 173q0 191 9 400q2 56 34 84.5t87 28.5q25 0 41 -16.5t16 -39.5q0 -114 -8 -229q-7 -138 -7 -240q0 -171 65 -171q121 0 225 460q6 25 18 90t24 88q28 58 106 58q25 0 41 -16t16 -40q0 -25 -6 -85
q-23 -254 -23 -421l1 -61q2 -133 63 -194q13 -13 13 -26q0 -16 -25 -25q-29 -11 -59 -11q-119 0 -153 177q-14 71 -16 120q-100 -245 -249 -245q-19 0 -37 2q-4 -93 -25 -302q-10 -121 -121 -121z" />
    <glyph glyph-name="paragraph" unicode="&#xb6;" horiz-adv-x="1052" 
d="M762 1364q-1 -125 -1 -323l2 -1173q0 -21 -13 -37q-26 -34 -70 -34q-50 0 -51 39q-5 168 -5 616l-1 528q0 263 12 385h-143q-1 -126 -1 -324l2 -1173q0 -21 -13 -37q-26 -34 -70 -34q-50 0 -51 39q-5 168 -5 616l-1 442q-253 54 -253 291q0 146 81 225t255 79
q175 0 294.5 -1t185.5 -3q36 -1 36 -46q0 -40 -31 -63q-15 -12 -34 -12h-125z" />
    <glyph glyph-name="periodcentered" unicode="&#xb7;" horiz-adv-x="508" 
d="M173.945 647.9q-36.5488 0 -55.248 27.1992t-18.6992 62.8984q0 45.0488 22.0986 74.373q22.0996 29.3242 68.8486 29.3242q30.5986 0 52.2734 -27.1992q21.6738 -27.1992 21.6738 -62.8984q-0.849609 -45.8984 -26.7744 -74.7979q-25.9238 -28.8994 -64.1729 -28.8994z
" />
    <glyph glyph-name="periodcentered" unicode="&#x2219;" horiz-adv-x="508" 
d="M173.945 647.9q-36.5488 0 -55.248 27.1992t-18.6992 62.8984q0 45.0488 22.0986 74.373q22.0996 29.3242 68.8486 29.3242q30.5986 0 52.2734 -27.1992q21.6738 -27.1992 21.6738 -62.8984q-0.849609 -45.8984 -26.7744 -74.7979q-25.9238 -28.8994 -64.1729 -28.8994z
" />
    <glyph glyph-name="cedilla" unicode="&#xb8;" horiz-adv-x="414" 
d="M143 -458q-16 0 -29.5 17t-13.5 39q0 20 18 28q55 26 70 36.5t15 32.5q0 28 -47.5 89t-47.5 113q0 68 45 130q11 16 34 16q9 0 21 -3q29 -6 29 -22q0 -6 -5 -13q-27 -44 -27 -85q0 -50 54.5 -116t54.5 -109q0 -84 -84 -123q-63 -30 -87 -30z" />
    <glyph glyph-name="ordmasculine" unicode="&#xba;" horiz-adv-x="859" 
d="M583 1094q-14 -59 -35 -100q-87 -172 -287 -172q-89 0 -147 42t-86 110t-28 143q0 54 18 118q22 84 73 147q90 108 239 108q96 0 155 -39t87.5 -102t28.5 -134q0 -20 -3 -40q39 5 68 23q43 26 69 67.5t38 90.5q6 31 53 31q33 0 33 -39q0 -19 -20 -68q-14 -34 -35 -64
q-39 -56 -98 -90q-53 -29 -123 -32zM461 1130q-19 19 -30 45q-8 21 -8 43q0 45 27 75q-10 23 -27 42q-39 41 -104 41q-119 0 -152 -129q-13 -55 -13 -104q0 -38 13.5 -85.5t45.5 -81.5t86 -34q70 0 107 48t50 110q3 16 5 30z" />
    <glyph glyph-name="guillemotright" unicode="&#xbb;" horiz-adv-x="829" 
d="M198 68q-23 0 -36 24q-12 19 -12 40q0 27 14 47l141 203l-139 199q-15 23 -15 56q0 23 13 44q16 27 41 27q36 0 176 -210l33.5 -49.5t16.5 -50.5q0 -27 -19 -56l-39 -59l-16 -25q-128 -190 -159 -190zM446 68q-23 0 -36 24q-12 19 -12 40q0 27 14 47l141 203l-139 199
q-15 23 -15 56q0 23 13 44q16 27 41 27q36 0 176 -210l33.5 -49.5t16.5 -50.5q0 -27 -19 -56l-39 -59l-16 -25q-128 -190 -159 -190z" />
    <glyph glyph-name="onequarter" unicode="&#xbc;" horiz-adv-x="1297" 
d="M264 481q-19 0 -36 8q-26 15 -27 41q-6 219 -6 428l-50 -48q-30 -29 -61 -29q-18 0 -33 9q-25 15 -25 40q0 24 21 45q125 133 190 170q24 14 51 14q37 0 48.5 -25.5t13 -47.5t1.5 -82q0 -246 5 -449q0 -23 -19 -43q-29 -31 -73 -31zM312 -24q-53 0 -53 45q0 9 4 19
q45 125 232 449l162.5 295.5t131.5 292.5q11 26 35.5 42.5t51.5 16.5q54 0 54 -45q0 -10 -3 -20q-72 -203 -299 -599q-185 -324 -226 -436q-10 -26 -35.5 -43t-54.5 -17zM1187 221q6 -111 6 -146q0 -75 -94 -75q-62 0 -64 50l-6 162q-59 -1 -138 -15q-30 -5 -45 -5
q-40 0 -68 29q-21 20 -21 40t18 47q35 48 58 162q19 90 32 177q8 49 16 90.5t55 41.5q36 0 61.5 -20t25.5 -50q0 -16 -9 -68q-42 -249 -72 -311q30 6 83 7l-1 101q0 89 7 179q2 26 24 45q30 26 68 26q24 0 42 -12q23 -15 23 -41q0 -39 -3.5 -82.5t-3.5 -91.5q0 -72 3 -145
q30 -18 30 -56q0 -27 -27 -39z" />
    <glyph glyph-name="onehalf" unicode="&#xbd;" horiz-adv-x="1268" 
d="M264 481q-19 0 -36 8q-26 15 -27 41q-6 219 -6 428l-50 -48q-30 -29 -61 -29q-18 0 -33 9q-25 15 -25 40q0 24 21 45q125 133 190 170q24 14 51 14q37 0 48.5 -25.5t13 -47.5t1.5 -82q0 -246 5 -449q0 -23 -19 -43q-29 -31 -73 -31zM312 -24q-53 0 -53 45q0 9 4 19
q45 125 232 449l162.5 295.5t131.5 292.5q11 26 35.5 42.5t51.5 16.5q54 0 54 -45q0 -10 -3 -20q-72 -203 -299 -599q-185 -324 -226 -436q-10 -26 -35.5 -43t-54.5 -17zM877 0q-102 0 -102 73q0 50 100 180q47 59 84 123t38 135q0 50 -32 50q-41 0 -80 -103
q-14 -39 -56 -39q-30 0 -50.5 18.5t-20.5 43.5q0 17 16 59q52 140 191 140q78 0 133.5 -50t55.5 -119q0 -97 -56.5 -195.5t-96.5 -144.5l-24 -27q31 6 98 32q60 23 74 23q33 0 59 -26t26 -49q0 -25 -29 -40q-87 -43 -186 -65q-87 -19 -142 -19z" />
    <glyph glyph-name="threequarters" unicode="&#xbe;" horiz-adv-x="1387" 
d="M153 414q-39 0 -63.5 26.5t-24.5 47.5q0 42 49 50q77 12 133.5 51t56.5 103q0 55 -103 99q-28 12 -28 39q0 24 44 56q89 65 89 128q0 29 -24 29q-45 0 -86 -82q-18 -34 -56 -34q-29 0 -53.5 16.5t-24.5 41.5q0 16 10 38q18 41 58 81q60 60 152 60q72 0 125.5 -44.5
t53.5 -110.5q0 -59 -34.5 -104.5t-68.5 -69.5q104 -51 104 -154q0 -172 -214 -248q-52 -19 -95 -19zM402 -24q-53 0 -53 45q0 9 4 19q45 125 232 449l162.5 295.5t131.5 292.5q11 26 35.5 42.5t51.5 16.5q54 0 54 -45q0 -10 -3 -20q-72 -203 -299 -599q-185 -324 -226 -436
q-10 -26 -35.5 -43t-54.5 -17zM1277 221q6 -111 6 -146q0 -75 -94 -75q-62 0 -64 50l-6 162q-59 -1 -138 -15q-30 -5 -45 -5q-40 0 -68 29q-21 20 -21 40t18 47q35 48 58 162q19 90 32 177q8 49 16 90.5t55 41.5q36 0 61.5 -20t25.5 -50q0 -16 -9 -68q-42 -249 -72 -311
q30 6 83 7l-1 101q0 89 7 179q2 26 24 45q30 26 68 26q24 0 42 -12q23 -15 23 -41q0 -39 -3.5 -82.5t-3.5 -91.5q0 -72 3 -145q30 -18 30 -56q0 -27 -27 -39z" />
    <glyph glyph-name="questiondown" unicode="&#xbf;" horiz-adv-x="774" 
d="M374 513q52 0 83.5 -30.5t31.5 -73.5q0 -176 -36.5 -300.5t-134.5 -278.5q-80 -124 -80 -219q0 -61 46 -99.5t104 -38.5q131 0 161 170q14 81 66 81q36 0 72.5 -24t36.5 -64q0 -127 -86 -220q-95 -102 -247 -102q-104 0 -180.5 45t-118.5 118t-42 158q0 134 72 261
l61 100q66 103 102 196.5t40 259.5q1 61 49 61zM427 822q43 0 65 -32t22 -74q0 -53 -26 -87.5t-81 -34.5q-37 0 -62 32t-25 74q1 54 31.5 88t75.5 34z" />
    <glyph glyph-name="Agrave" unicode="&#xc0;" horiz-adv-x="1589" 
d="M365 -84q128 0 254 392q-135 -13 -212 -65q-133 -90 -133 -218q0 -109 91 -109zM1029 383q-31 319 -32 521q-1 183 -52 280q-15 -86 -48 -259q-62 -331 -100 -484q107 -12 232 -58zM321 -239q-79 0 -147 60.5t-68 180.5q0 212 222 355q133 85 332 91q45 163 85 363
q53 267 73 428q4 28 35.5 62.5t76 61.5t83.5 27q133 0 154 -394q9 -167 19 -396q23 -529 126 -529q41 0 82 60t77.5 149t64.5 180q39 127 53 197q8 41 62 41q38 0 38 -51q0 -29 -51 -210q-59 -208 -138 -345q-104 -179 -227 -179q-179 0 -229 336q-126 56 -283 64
q-154 -552 -440 -552zM969 1474q-35 0 -171 117l-54 48q-16 15 -16 32q0 28 29 51.5t59 23.5q20 0 36 -15q182 -169 182 -203q0 -15 -20 -34.5t-45 -19.5z" />
    <glyph glyph-name="Aacute" unicode="&#xc1;" horiz-adv-x="1589" 
d="M365 -84q128 0 254 392q-135 -13 -212 -65q-133 -90 -133 -218q0 -109 91 -109zM1029 383q-31 319 -32 521q-1 183 -52 280q-15 -86 -48 -259q-62 -331 -100 -484q107 -12 232 -58zM321 -239q-79 0 -147 60.5t-68 180.5q0 212 222 355q133 85 332 91q45 163 85 363
q53 267 73 428q4 28 35.5 62.5t76 61.5t83.5 27q133 0 154 -394q9 -167 19 -396q23 -529 126 -529q41 0 82 60t77.5 149t64.5 180q39 127 53 197q8 41 62 41q38 0 38 -51q0 -29 -51 -210q-59 -208 -138 -345q-104 -179 -227 -179q-179 0 -229 336q-126 56 -283 64
q-154 -552 -440 -552zM889 1474q-45 0 -45 39q0 27 181 193q19 18 40 18q16 0 38.5 -16t22.5 -36q0 -17 -19 -33l-175 -151q-17 -14 -43 -14z" />
    <glyph glyph-name="Acircumflex" unicode="&#xc2;" horiz-adv-x="1589" 
d="M365 -84q128 0 254 392q-135 -13 -212 -65q-133 -90 -133 -218q0 -109 91 -109zM1029 383q-31 319 -32 521q-1 183 -52 280q-15 -86 -48 -259q-62 -331 -100 -484q107 -12 232 -58zM321 -239q-79 0 -147 60.5t-68 180.5q0 212 222 355q133 85 332 91q45 163 85 363
q53 267 73 428q4 28 35.5 62.5t76 61.5t83.5 27q133 0 154 -394q9 -167 19 -396q23 -529 126 -529q41 0 82 60t77.5 149t64.5 180q39 127 53 197q8 41 62 41q38 0 38 -51q0 -29 -51 -210q-59 -208 -138 -345q-104 -179 -227 -179q-179 0 -229 336q-126 56 -283 64
q-154 -552 -440 -552zM1156 1474q-37 0 -188 132l-136 -118q-17 -14 -43 -14q-45 0 -45 39q0 27 181 193q43 40 73 40q25 0 41 -15q182 -169 182 -203q0 -15 -20 -34.5t-45 -19.5z" />
    <glyph glyph-name="Atilde" unicode="&#xc3;" horiz-adv-x="1589" 
d="M365 -84q128 0 254 392q-135 -13 -212 -65q-133 -90 -133 -218q0 -109 91 -109zM1029 383q-31 319 -32 521q-1 183 -52 280q-15 -86 -48 -259q-62 -331 -100 -484q107 -12 232 -58zM321 -239q-79 0 -147 60.5t-68 180.5q0 212 222 355q133 85 332 91q45 163 85 363
q53 267 73 428q4 28 35.5 62.5t76 61.5t83.5 27q133 0 154 -394q9 -167 19 -396q23 -529 126 -529q41 0 82 60t77.5 149t64.5 180q39 127 53 197q8 41 62 41q38 0 38 -51q0 -29 -51 -210q-59 -208 -138 -345q-104 -179 -227 -179q-179 0 -229 336q-126 56 -283 64
q-154 -552 -440 -552zM1121 1454q-52 0 -91.5 26t-64.5 53q-38 40 -56 40q-29 0 -69 -85q-8 -18 -28 -18q-22 0 -39 13.5t-17 29.5q0 24 30 87q39 84 113 84q60 0 129 -73q56 -58 86 -58q24 0 37 24q10 19 41 87q11 23 34 23q15 0 34 -16.5t19 -28.5q0 -21 -22 -73
q-49 -115 -136 -115z" />
    <glyph glyph-name="Adieresis" unicode="&#xc4;" horiz-adv-x="1589" 
d="M365 -84q128 0 254 392q-135 -13 -212 -65q-133 -90 -133 -218q0 -109 91 -109zM1029 383q-31 319 -32 521q-1 183 -52 280q-15 -86 -48 -259q-62 -331 -100 -484q107 -12 232 -58zM321 -239q-79 0 -147 60.5t-68 180.5q0 212 222 355q133 85 332 91q45 163 85 363
q53 267 73 428q4 28 35.5 62.5t76 61.5t83.5 27q133 0 154 -394q9 -167 19 -396q23 -529 126 -529q41 0 82 60t77.5 149t64.5 180q39 127 53 197q8 41 62 41q38 0 38 -51q0 -29 -51 -210q-59 -208 -138 -345q-104 -179 -227 -179q-179 0 -229 336q-126 56 -283 64
q-154 -552 -440 -552zM840 1502q-37 0 -62 32t-25 74q1 54 31 88t76 34q42 0 64.5 -32t22.5 -74q0 -52 -26.5 -87t-80.5 -35zM1105 1502q-37 0 -62 32t-25 74q1 54 31 88t76 34q42 0 64.5 -32t22.5 -74q0 -52 -26.5 -87t-80.5 -35z" />
    <glyph glyph-name="Aring" unicode="&#xc5;" horiz-adv-x="1589" 
d="M365 -84q128 0 254 392q-135 -13 -212 -65q-133 -90 -133 -218q0 -109 91 -109zM1029 383q-31 319 -32 521q-1 183 -52 280q-15 -86 -48 -259q-62 -331 -100 -484q107 -12 232 -58zM321 -239q-79 0 -147 60.5t-68 180.5q0 212 222 355q133 85 332 91q45 163 85 363
q53 267 73 428q4 28 35.5 62.5t76 61.5t83.5 27q133 0 154 -394q9 -167 19 -396q23 -529 126 -529q41 0 82 60t77.5 149t64.5 180q39 127 53 197q8 41 62 41q38 0 38 -51q0 -29 -51 -210q-59 -208 -138 -345q-104 -179 -227 -179q-179 0 -229 336q-126 56 -283 64
q-154 -552 -440 -552zM962 1411q-69 0 -118 49t-49 119q0 69 49 118t118 49q70 0 119 -49t49 -118q0 -70 -49 -119t-119 -49zM962 1507q30 0 51 21t21 51q0 29 -21 50t-51 21q-29 0 -50 -21t-21 -50q0 -30 21 -51t50 -21z" />
    <glyph glyph-name="AE" unicode="&#xc6;" horiz-adv-x="1800" 
d="M305 -84q128 0 254 392q-135 -13 -212 -65q-133 -90 -133 -218q0 -109 91 -109zM938 396q60 77 143 146q-235 138 -235 404q0 43 5 82q-10 -49 -19 -102q-57 -332 -94 -485q100 -11 200 -45zM261 -239q-79 0 -147 60.5t-68 180.5q0 212 222 355q133 85 332 91
q45 163 84 363q54 267 74 428q4 28 35.5 62.5t76 61.5t83.5 27q28 0 47.5 -15.5t19.5 -44.5q89 60 212 60q131 0 208 -89t77 -214q0 -31 -9 -83q-24 -136 -101 -136q-52 0 -52 54q0 10 3 21q12 47 12 92q0 98 -51 156q-39 44 -112 44q-77 0 -121 -43q-59 -58 -59 -205
q0 -231 221 -333q72 -34 72 -71q0 -19 -15 -39q-19 -25 -70 -61q-57 -41 -120 -104q-19 -19 -36 -41q26 -12 52 -26q13 -7 13 -22q0 -22 -17.5 -47t-42.5 -25q-23 0 -62 16q-14 -42 -14 -82q0 -59 35 -104q52 -67 152 -67q256 0 436 264q120 177 169 412q9 41 53 41
q47 0 47 -51q0 -19 -16 -81q-41 -159 -112 -294q-234 -448 -613 -448q-118 0 -207 57q-126 79 -126 236q0 88 43 172q-78 19 -165 23q-157 -551 -443 -551z" />
    <glyph glyph-name="Ccedilla" unicode="&#xc7;" horiz-adv-x="1254" 
d="M583 -170q-237 20 -366 223q-102 161 -102 450q0 172 18 282q39 245 156 411q137 193 357 193q137 0 234 -90t97 -229q0 -178 -139 -327q-31 -33 -66 -33q-31 0 -54.5 22t-23.5 42q0 23 23 50q81 95 81 206q0 89 -43.5 146.5t-126.5 57.5q-151 0 -237 -169
q-66 -130 -86 -316q-10 -88 -10 -217q0 -237 76 -379q92 -173 294 -173q301 0 499 404q59 125 90 273q8 41 62 41q38 0 38 -51q0 -19 -17 -81q-30 -116 -78 -218q-235 -491 -583 -518q-4 -17 -4 -33q0 -50 54.5 -116t54.5 -109q0 -84 -84 -123q-63 -30 -87 -30
q-16 0 -29.5 17t-13.5 39q0 20 18 28q55 26 70 36.5t15 32.5q0 28 -47.5 89t-47.5 113q0 29 8 56z" />
    <glyph glyph-name="Egrave" unicode="&#xc8;" horiz-adv-x="858" 
d="M217 -175q-119 0 -206 55q-126 80 -126 237q0 98 54 192q73 127 201 233q-235 138 -235 404q0 185 86 299q109 145 300 145q131 0 208 -89t77 -214q0 -31 -9 -83q-23 -136 -101 -136q-52 0 -52 54q0 10 3 21q12 47 12 92q0 98 -51 156q-39 44 -112 44q-77 0 -121 -43
q-59 -58 -59 -205q0 -231 221 -333q72 -34 72 -71q0 -19 -15 -39q-19 -25 -70 -61q-57 -41 -120 -104q-21 -21 -39 -45q-68 -93 -68 -182q0 -59 35 -104q52 -67 151 -67q256 0 436 264q120 177 169 412q9 41 53 41q47 0 47 -51q0 -19 -16 -81q-41 -159 -112 -294
q-234 -446 -613 -447zM294 1474q-35 0 -171 117l-54 48q-16 15 -16 32q0 28 29 51.5t59 23.5q20 0 36 -15q182 -169 182 -203q0 -15 -20 -34.5t-45 -19.5z" />
    <glyph glyph-name="Eacute" unicode="&#xc9;" horiz-adv-x="858" 
d="M217 -175q-119 0 -206 55q-126 80 -126 237q0 98 54 192q73 127 201 233q-235 138 -235 404q0 185 86 299q109 145 300 145q131 0 208 -89t77 -214q0 -31 -9 -83q-23 -136 -101 -136q-52 0 -52 54q0 10 3 21q12 47 12 92q0 98 -51 156q-39 44 -112 44q-77 0 -121 -43
q-59 -58 -59 -205q0 -231 221 -333q72 -34 72 -71q0 -19 -15 -39q-19 -25 -70 -61q-57 -41 -120 -104q-21 -21 -39 -45q-68 -93 -68 -182q0 -59 35 -104q52 -67 151 -67q256 0 436 264q120 177 169 412q9 41 53 41q47 0 47 -51q0 -19 -16 -81q-41 -159 -112 -294
q-234 -446 -613 -447zM264 1474q-45 0 -45 39q0 27 181 193q19 18 40 18q16 0 38.5 -16t22.5 -36q0 -17 -19 -33l-175 -151q-17 -14 -43 -14z" />
    <glyph glyph-name="Ecircumflex" unicode="&#xca;" horiz-adv-x="858" 
d="M217 -175q-119 0 -206 55q-126 80 -126 237q0 98 54 192q73 127 201 233q-235 138 -235 404q0 185 86 299q109 145 300 145q131 0 208 -89t77 -214q0 -31 -9 -83q-23 -136 -101 -136q-52 0 -52 54q0 10 3 21q12 47 12 92q0 98 -51 156q-39 44 -112 44q-77 0 -121 -43
q-59 -58 -59 -205q0 -231 221 -333q72 -34 72 -71q0 -19 -15 -39q-19 -25 -70 -61q-57 -41 -120 -104q-21 -21 -39 -45q-68 -93 -68 -182q0 -59 35 -104q52 -67 151 -67q256 0 436 264q120 177 169 412q9 41 53 41q47 0 47 -51q0 -19 -16 -81q-41 -159 -112 -294
q-234 -446 -613 -447zM455 1474q-37 0 -188 132l-136 -118q-17 -14 -43 -14q-45 0 -45 39q0 27 181 193q43 40 73 40q25 0 41 -15q182 -169 182 -203q0 -15 -20 -34.5t-45 -19.5z" />
    <glyph glyph-name="Edieresis" unicode="&#xcb;" horiz-adv-x="858" 
d="M217 -175q-119 0 -206 55q-126 80 -126 237q0 98 54 192q73 127 201 233q-235 138 -235 404q0 185 86 299q109 145 300 145q131 0 208 -89t77 -214q0 -31 -9 -83q-23 -136 -101 -136q-52 0 -52 54q0 10 3 21q12 47 12 92q0 98 -51 156q-39 44 -112 44q-77 0 -121 -43
q-59 -58 -59 -205q0 -231 221 -333q72 -34 72 -71q0 -19 -15 -39q-19 -25 -70 -61q-57 -41 -120 -104q-21 -21 -39 -45q-68 -93 -68 -182q0 -59 35 -104q52 -67 151 -67q256 0 436 264q120 177 169 412q9 41 53 41q47 0 47 -51q0 -19 -16 -81q-41 -159 -112 -294
q-234 -446 -613 -447zM139 1502q-37 0 -62 32t-25 74q1 54 31 88t76 34q42 0 64.5 -32t22.5 -74q0 -52 -26.5 -87t-80.5 -35zM404 1502q-37 0 -62 32t-25 74q1 54 31 88t76 34q42 0 64.5 -32t22.5 -74q0 -52 -26.5 -87t-80.5 -35z" />
    <glyph glyph-name="Igrave" unicode="&#xcc;" horiz-adv-x="613" 
d="M257 -147q-257 0 -257 752q0 124 1 218.5t1 157.5t-5 117l-124 -113q-24 -20 -44 -20q-30 0 -64 32q-22 22 -22 47q0 27 27 49q90 75 172 157q121 123 172 123q63 0 68 -84q7 -107 7 -230q0 -113 -4 -308q-2 -75 -2 -138q0 -101 4 -174q22 -438 109 -438q115 0 262 460
q41 126 55 196q8 41 62 41q38 0 38 -51q0 -29 -51 -210q-166 -584 -405 -584zM140 1474q-35 0 -171 117l-54 48q-16 15 -16 32q0 28 29 51.5t59 23.5q20 0 36 -15q182 -169 182 -203q0 -15 -20 -34.5t-45 -19.5z" />
    <glyph glyph-name="Iacute" unicode="&#xcd;" horiz-adv-x="613" 
d="M257 -147q-257 0 -257 752q0 124 1 218.5t1 157.5t-5 117l-124 -113q-24 -20 -44 -20q-30 0 -64 32q-22 22 -22 47q0 27 27 49q90 75 172 157q121 123 172 123q63 0 68 -84q7 -107 7 -230q0 -113 -4 -308q-2 -75 -2 -138q0 -101 4 -174q22 -438 109 -438q115 0 262 460
q41 126 55 196q8 41 62 41q38 0 38 -51q0 -29 -51 -210q-166 -584 -405 -584zM78 1474q-45 0 -45 39q0 27 181 193q19 18 40 18q16 0 38.5 -16t22.5 -36q0 -17 -19 -33l-175 -151q-17 -14 -43 -14z" />
    <glyph glyph-name="Icircumflex" unicode="&#xce;" horiz-adv-x="613" 
d="M257 -147q-257 0 -257 752q0 124 1 218.5t1 157.5t-5 117l-124 -113q-24 -20 -44 -20q-30 0 -64 32q-22 22 -22 47q0 27 27 49q90 75 172 157q121 123 172 123q63 0 68 -84q7 -107 7 -230q0 -113 -4 -308q-2 -75 -2 -138q0 -101 4 -174q22 -438 109 -438q115 0 262 460
q41 126 55 196q8 41 62 41q38 0 38 -51q0 -29 -51 -210q-166 -584 -405 -584zM269 1474q-37 0 -188 132l-136 -118q-17 -14 -43 -14q-45 0 -45 39q0 27 181 193q43 40 73 40q25 0 41 -15q182 -169 182 -203q0 -15 -20 -34.5t-45 -19.5z" />
    <glyph glyph-name="Idieresis" unicode="&#xcf;" horiz-adv-x="613" 
d="M257 -147q-257 0 -257 752q0 124 1 218.5t1 157.5t-5 117l-124 -113q-24 -20 -44 -20q-30 0 -64 32q-22 22 -22 47q0 27 27 49q90 75 172 157q121 123 172 123q63 0 68 -84q7 -107 7 -230q0 -113 -4 -308q-2 -75 -2 -138q0 -101 4 -174q22 -438 109 -438q115 0 262 460
q41 126 55 196q8 41 62 41q38 0 38 -51q0 -29 -51 -210q-166 -584 -405 -584zM-31 1502q-37 0 -62 32t-25 74q1 54 31 88t76 34q42 0 64.5 -32t22.5 -74q0 -52 -26.5 -87t-80.5 -35zM234 1502q-37 0 -62 32t-25 74q1 54 31 88t76 34q42 0 64.5 -32t22.5 -74q0 -52 -26.5 -87
t-80.5 -35z" />
    <glyph glyph-name="Eth" unicode="&#xd0;" horiz-adv-x="1561" 
d="M529 551q-5 -250 -56 -417q-76 -254 -266 -254q-100 0 -160 78t-77 178.5t-17 181.5q0 210 76 429q52 152 140 280q59 87 135 151q-15 107 -15 126q0 38 33 67q38 32 77 32q26 0 44 -12t35 -107q89 34 189 34q188 0 316 -77q132 -79 206 -211.5t88.5 -247t14.5 -182.5
q0 -261 -116 -477q-33 -62 -74 -113q91 35 164.5 97.5t125.5 136.5q119 178 169 413q8 41 62 41q38 0 38 -51q0 -19 -17 -81q-58 -227 -186 -402q-257 -341 -723 -341q-84 0 -164 31t-112 78q-12 17 -12 38t21 45t47 24q17 0 32 -11q83 -59 195 -59q93 0 166.5 67t121.5 175
q76 172 76 379q0 202 -79 357q-55 108 -154 174.5t-246 66.5q-70 0 -132 -23q32 -268 35 -502q76 -2 133 -9q31 -4 31 -37q0 -11 -4 -22q-9 -23 -26 -34.5t-33 -11.5zM345 553q-23 -2 -51 -4q-54 -6 -69 -6t-26 10.5t-11 28.5q0 24 17 45q25 27 138 33q-6 172 -24 374
q-99 -120 -155 -302q-60 -198 -60 -390q0 -161 40 -250q29 -64 76 -64q125 0 125 486v39z" />
    <glyph glyph-name="Ntilde" unicode="&#xd1;" horiz-adv-x="1320" 
d="M10 -262q-172 0 -172 234q0 367 232 845q-52 248 -129 458q-4 10 -4 21q0 17 10 35q17 29 48 43.5t53 14.5q48 0 61 -34q54 -138 93 -297q213 331 438 331q293 0 293 -378q0 -123 -19.5 -293.5t-19.5 -349.5q0 -367 109 -367q115 0 264 459q39 127 53 197q8 41 62 41
q38 0 38 -51q0 -29 -50 -210q-167 -584 -406 -584q-257 0 -257 515q0 145 16.5 283t16.5 271q0 302 -107 302q-177 0 -382 -370l5 -25q64 -315 64 -559q0 -217 -64 -355q-83 -177 -246 -177zM20 -130q120 0 120 352q0 147 -27 346q-136 -331 -136 -606q0 -92 43 -92z
M569 1454q-52 0 -91.5 26t-64.5 53q-38 40 -56 40q-29 0 -69 -85q-8 -18 -28 -18q-22 0 -39 13.5t-17 29.5q0 24 30 87q39 84 113 84q60 0 129 -73q56 -58 86 -58q24 0 37 24q10 19 41 87q11 23 34 23q15 0 34 -16.5t19 -28.5q0 -21 -22 -73q-49 -115 -136 -115z" />
    <glyph glyph-name="Ograve" unicode="&#xd2;" horiz-adv-x="1210" 
d="M779 483q0 168 -40 281q-41 -52 -74 -59q-23 -4 -33 -4q-24 0 -43 13q-24 16 -24 45q0 30 28 62q80 89 80 208q0 81 -55 138t-152 57q-148 0 -225 -239q-69 -210 -69 -377q0 -212 59 -387q39 -115 105 -171.5t146 -56.5q32 0 67 9q95 24 145.5 107t67.5 184t17 190z
M534 -163q-346 0 -469 286q-73 180 -73 409q0 281 88 494q42 104 104 181q100 126 191.5 152t147.5 26q60 0 117 -20q109 -39 166 -133q48 -80 48 -172q0 -48 -13 -99q121 -145 121 -427q0 -280 -121 -474q111 52 200 184q119 178 169 413q8 41 62 41q38 0 38 -51
q0 -19 -17 -81q-58 -227 -186 -402q-242 -327 -573 -327zM524 1474q-35 0 -171 117l-54 48q-16 15 -16 32q0 28 29 51.5t59 23.5q20 0 36 -15q182 -169 182 -203q0 -15 -20 -34.5t-45 -19.5z" />
    <glyph glyph-name="Oacute" unicode="&#xd3;" horiz-adv-x="1210" 
d="M779 483q0 168 -40 281q-41 -52 -74 -59q-23 -4 -33 -4q-24 0 -43 13q-24 16 -24 45q0 30 28 62q80 89 80 208q0 81 -55 138t-152 57q-148 0 -225 -239q-69 -210 -69 -377q0 -212 59 -387q39 -115 105 -171.5t146 -56.5q32 0 67 9q95 24 145.5 107t67.5 184t17 190z
M534 -163q-346 0 -469 286q-73 180 -73 409q0 281 88 494q42 104 104 181q100 126 191.5 152t147.5 26q60 0 117 -20q109 -39 166 -133q48 -80 48 -172q0 -48 -13 -99q121 -145 121 -427q0 -280 -121 -474q111 52 200 184q119 178 169 413q8 41 62 41q38 0 38 -51
q0 -19 -17 -81q-58 -227 -186 -402q-242 -327 -573 -327zM477 1474q-45 0 -45 39q0 27 181 193q19 18 40 18q16 0 38.5 -16t22.5 -36q0 -17 -19 -33l-175 -151q-17 -14 -43 -14z" />
    <glyph glyph-name="Ocircumflex" unicode="&#xd4;" horiz-adv-x="1210" 
d="M779 483q0 168 -40 281q-41 -52 -74 -59q-23 -4 -33 -4q-24 0 -43 13q-24 16 -24 45q0 30 28 62q80 89 80 208q0 81 -55 138t-152 57q-148 0 -225 -239q-69 -210 -69 -377q0 -212 59 -387q39 -115 105 -171.5t146 -56.5q32 0 67 9q95 24 145.5 107t67.5 184t17 190z
M534 -163q-346 0 -469 286q-73 180 -73 409q0 281 88 494q42 104 104 181q100 126 191.5 152t147.5 26q60 0 117 -20q109 -39 166 -133q48 -80 48 -172q0 -48 -13 -99q121 -145 121 -427q0 -280 -121 -474q111 52 200 184q119 178 169 413q8 41 62 41q38 0 38 -51
q0 -19 -17 -81q-58 -227 -186 -402q-242 -327 -573 -327zM685 1474q-37 0 -188 132l-136 -118q-17 -14 -43 -14q-45 0 -45 39q0 27 181 193q43 40 73 40q25 0 41 -15q182 -169 182 -203q0 -15 -20 -34.5t-45 -19.5z" />
    <glyph glyph-name="Otilde" unicode="&#xd5;" horiz-adv-x="1210" 
d="M779 483q0 168 -40 281q-41 -52 -74 -59q-23 -4 -33 -4q-24 0 -43 13q-24 16 -24 45q0 30 28 62q80 89 80 208q0 81 -55 138t-152 57q-148 0 -225 -239q-69 -210 -69 -377q0 -212 59 -387q39 -115 105 -171.5t146 -56.5q32 0 67 9q95 24 145.5 107t67.5 184t17 190z
M534 -163q-346 0 -469 286q-73 180 -73 409q0 281 88 494q42 104 104 181q100 126 191.5 152t147.5 26q60 0 117 -20q109 -39 166 -133q48 -80 48 -172q0 -48 -13 -99q121 -145 121 -427q0 -280 -121 -474q111 52 200 184q119 178 169 413q8 41 62 41q38 0 38 -51
q0 -19 -17 -81q-58 -227 -186 -402q-242 -327 -573 -327zM615 1454q-52 0 -91.5 26t-64.5 53q-38 40 -56 40q-29 0 -69 -85q-8 -18 -28 -18q-22 0 -39 13.5t-17 29.5q0 24 30 87q39 84 113 84q60 0 129 -73q56 -58 86 -58q24 0 37 24q10 19 41 87q11 23 34 23q15 0 34 -16.5
t19 -28.5q0 -21 -22 -73q-49 -115 -136 -115z" />
    <glyph glyph-name="Odieresis" unicode="&#xd6;" horiz-adv-x="1210" 
d="M779 483q0 168 -40 281q-41 -52 -74 -59q-23 -4 -33 -4q-24 0 -43 13q-24 16 -24 45q0 30 28 62q80 89 80 208q0 81 -55 138t-152 57q-148 0 -225 -239q-69 -210 -69 -377q0 -212 59 -387q39 -115 105 -171.5t146 -56.5q32 0 67 9q95 24 145.5 107t67.5 184t17 190z
M534 -163q-346 0 -469 286q-73 180 -73 409q0 281 88 494q42 104 104 181q100 126 191.5 152t147.5 26q60 0 117 -20q109 -39 166 -133q48 -80 48 -172q0 -48 -13 -99q121 -145 121 -427q0 -280 -121 -474q111 52 200 184q119 178 169 413q8 41 62 41q38 0 38 -51
q0 -19 -17 -81q-58 -227 -186 -402q-242 -327 -573 -327zM361 1502q-37 0 -62 32t-25 74q1 54 31 88t76 34q42 0 64.5 -32t22.5 -74q0 -52 -26.5 -87t-80.5 -35zM626 1502q-37 0 -62 32t-25 74q1 54 31 88t76 34q42 0 64.5 -32t22.5 -74q0 -52 -26.5 -87t-80.5 -35z" />
    <glyph glyph-name="multiply" unicode="&#xd7;" horiz-adv-x="1007" 
d="M500 330q-110 -103 -266 -220q-33 -23 -68 -23q-34 0 -54 21q-12 16 -12 35q0 40 42 73q146 109 250 207q-6 5 -10 9q-139 123 -268 260q-14 16 -14 36q0 40 41 72q32 23 50 24t19 1q33 0 53 -20q108 -114 260 -252l111 118l122 130q38 38 84 38q23 0 42 -11
q25 -17 25 -46q-1 -30 -27 -59l-124 -131l-126 -134l171 -146l87 -74q19 -16 19 -40q0 -37 -35 -67q-30 -26 -50.5 -28.5t-26.5 -2.5q-27 0 -47 16z" />
    <glyph glyph-name="Oslash" unicode="&#xd8;" horiz-adv-x="1210" 
d="M842 960q120 -145 120 -426q0 -280 -121 -474q111 52 200 184q119 178 169 413q8 41 62 41q38 0 38 -51q0 -19 -17 -81q-58 -227 -186 -402q-242 -327 -573 -327q-108 0 -194 28l-63 -136q-18 -37 -47 -37l-8 1q-76 14 -76 63q0 7 72 170q-98 70 -153 197
q-73 180 -73 409q0 281 88 494q42 104 104 181q100 126 191.5 152t147.5 26q60 0 117 -20q109 -39 166 -133l3 -5l54 119q17 39 46 39q82 -9 82 -73q0 -10 -2 -22q-2 -11 -147 -330zM294 95l318 702q20 43 40.5 108t20.5 124q0 81 -55 138t-152 57q-148 0 -225 -239
q-69 -210 -69 -377q0 -212 59 -387q26 -75 63 -126zM745 747l-340 -740q37 -14 77 -14q32 0 67 9q95 24 145.5 107t67.5 184t17 190q0 155 -34 264z" />
    <glyph glyph-name="Ugrave" unicode="&#xd9;" horiz-adv-x="1699" 
d="M687 -209q-163 0 -229 145q-48 106 -48 267q0 128 9 219q22 210 24 336v88q0 381 -128 381q-81 0 -123 -95q-47 -99 -47 -255q0 -215 85 -358q24 -40 24 -68q0 -16 -7 -28q-18 -30 -56 -30q-53 0 -95 62q-127 188 -127 444q0 134 41 248q37 103 108.5 166.5t176.5 63.5
q117 0 185.5 -58.5t101.5 -151t40 -179t7 -151.5q0 -120 -22 -318q-21 -189 -21 -319q0 -260 82 -260q75 0 152 176q168 387 290 1228q5 32 67 32q38 0 70 -14q40 -18 40 -61q0 -16 -4 -60q-22 -213 -22 -387v-169q0 -109 10 -247t23 -233q29 -204 88 -204q115 0 264 459
q39 127 53 197q8 41 62 41q38 0 38 -51q0 -29 -50 -210q-167 -584 -406 -584q-232 0 -257 623q-160 -685 -399 -685zM812 1474q-35 0 -171 117l-54 48q-16 15 -16 32q0 28 29 51.5t59 23.5q20 0 36 -15q182 -169 182 -203q0 -15 -20 -34.5t-45 -19.5z" />
    <glyph glyph-name="Uacute" unicode="&#xda;" horiz-adv-x="1699" 
d="M687 -209q-163 0 -229 145q-48 106 -48 267q0 128 9 219q22 210 24 336v88q0 381 -128 381q-81 0 -123 -95q-47 -99 -47 -255q0 -215 85 -358q24 -40 24 -68q0 -16 -7 -28q-18 -30 -56 -30q-53 0 -95 62q-127 188 -127 444q0 134 41 248q37 103 108.5 166.5t176.5 63.5
q117 0 185.5 -58.5t101.5 -151t40 -179t7 -151.5q0 -120 -22 -318q-21 -189 -21 -319q0 -260 82 -260q75 0 152 176q168 387 290 1228q5 32 67 32q38 0 70 -14q40 -18 40 -61q0 -16 -4 -60q-22 -213 -22 -387v-169q0 -109 10 -247t23 -233q29 -204 88 -204q115 0 264 459
q39 127 53 197q8 41 62 41q38 0 38 -51q0 -29 -50 -210q-167 -584 -406 -584q-232 0 -257 623q-160 -685 -399 -685zM780 1474q-45 0 -45 39q0 27 181 193q19 18 40 18q16 0 38.5 -16t22.5 -36q0 -17 -19 -33l-175 -151q-17 -14 -43 -14z" />
    <glyph glyph-name="Ucircumflex" unicode="&#xdb;" horiz-adv-x="1699" 
d="M687 -209q-163 0 -229 145q-48 106 -48 267q0 128 9 219q22 210 24 336v88q0 381 -128 381q-81 0 -123 -95q-47 -99 -47 -255q0 -215 85 -358q24 -40 24 -68q0 -16 -7 -28q-18 -30 -56 -30q-53 0 -95 62q-127 188 -127 444q0 134 41 248q37 103 108.5 166.5t176.5 63.5
q117 0 185.5 -58.5t101.5 -151t40 -179t7 -151.5q0 -120 -22 -318q-21 -189 -21 -319q0 -260 82 -260q75 0 152 176q168 387 290 1228q5 32 67 32q38 0 70 -14q40 -18 40 -61q0 -16 -4 -60q-22 -213 -22 -387v-169q0 -109 10 -247t23 -233q29 -204 88 -204q115 0 264 459
q39 127 53 197q8 41 62 41q38 0 38 -51q0 -29 -50 -210q-167 -584 -406 -584q-232 0 -257 623q-160 -685 -399 -685zM988 1474q-37 0 -188 132l-136 -118q-17 -14 -43 -14q-45 0 -45 39q0 27 181 193q43 40 73 40q25 0 41 -15q182 -169 182 -203q0 -15 -20 -34.5t-45 -19.5z
" />
    <glyph glyph-name="Udieresis" unicode="&#xdc;" horiz-adv-x="1699" 
d="M687 -209q-163 0 -229 145q-48 106 -48 267q0 128 9 219q22 210 24 336v88q0 381 -128 381q-81 0 -123 -95q-47 -99 -47 -255q0 -215 85 -358q24 -40 24 -68q0 -16 -7 -28q-18 -30 -56 -30q-53 0 -95 62q-127 188 -127 444q0 134 41 248q37 103 108.5 166.5t176.5 63.5
q117 0 185.5 -58.5t101.5 -151t40 -179t7 -151.5q0 -120 -22 -318q-21 -189 -21 -319q0 -260 82 -260q75 0 152 176q168 387 290 1228q5 32 67 32q38 0 70 -14q40 -18 40 -61q0 -16 -4 -60q-22 -213 -22 -387v-169q0 -109 10 -247t23 -233q29 -204 88 -204q115 0 264 459
q39 127 53 197q8 41 62 41q38 0 38 -51q0 -29 -50 -210q-167 -584 -406 -584q-232 0 -257 623q-160 -685 -399 -685zM664 1502q-37 0 -62 32t-25 74q1 54 31 88t76 34q42 0 64.5 -32t22.5 -74q0 -52 -26.5 -87t-80.5 -35zM929 1502q-37 0 -62 32t-25 74q1 54 31 88t76 34
q42 0 64.5 -32t22.5 -74q0 -52 -26.5 -87t-80.5 -35z" />
    <glyph glyph-name="Yacute" unicode="&#xdd;" horiz-adv-x="1505" 
d="M1091 498q-166 -647 -405 -647q-163 0 -229 145q-48 106 -48 267q0 128 9 219q22 210 24 336v88q0 321 -128 321q-81 0 -123 -95q-47 -99 -47 -255q0 -215 85 -358q24 -40 24 -68q0 -16 -7 -28q-18 -30 -56 -30q-53 0 -95 62q-127 188 -127 444q0 134 41 248
q37 103 108.5 166.5t176.5 63.5q117 0 186 -58q38 -33 65 -68q83 -110 83 -354q0 -120 -22 -318q-21 -189 -21 -319q0 -260 82 -260q143 0 300 599q78 301 142 745q5 32 67 32q38 0 70 -14q40 -18 40 -61q0 -16 -4 -60q-22 -213 -22 -387q0 -77 4 -174.5t9 -202.5
q7 -135 10 -250q77 71 126 166q67 125 96 264q8 41 54 41t46 -51q0 -11 -5 -32.5t-12 -46.5q-31 -116 -89 -223q-79 -149 -214 -247v-22q0 -776 -242 -1004q-77 -72 -189 -72q-84 0 -134 36.5t-72 97.5t-22 136q0 228 158 468q130 197 323 362q-3 194 -16 398zM776 -730
q0 -23 7 -53t24 -53t47 -23q123 0 187 247q60 234 67 552v27q-69 -69 -129 -153q-91 -126 -147 -266.5t-56 -277.5zM808 1474q-45 0 -45 39q0 27 181 193q19 18 40 18q16 0 38.5 -16t22.5 -36q0 -17 -19 -33l-175 -151q-17 -14 -43 -14z" />
    <glyph glyph-name="Thorn" unicode="&#xde;" horiz-adv-x="1239" 
d="M707 417q227 56 287 294q14 57 14 107q0 87 -42 153q-67 104 -245 104q-51 0 -94 -18q59 -330 80 -640zM418 -178q63 0 90 163q21 123 21 263q0 283 -66 670q-119 -180 -158 -471q-16 -119 -16 -253q0 -372 129 -372zM602 1204q73 29 161 29q170 0 282 -77q53 -36 83 -86
q61 -105 61 -220q0 -174 -119 -340q-142 -198 -360 -242q0 -149 -29 -281q-42 -192 -153 -274q-63 -46 -157 -46q-95 0 -150.5 66.5t-82.5 170t-27 286.5q0 175 28.5 326.5t99.5 310.5q71 157 191 271q-15 92 -35 166q-55 -75 -102 -133q-24 -29 -47 -29q-28 0 -60 21
t-32 53q0 20 19 42q75 90 140 186q104 152 154 152q57 0 75 -70q33 -129 60 -282z" />
    <glyph glyph-name="germandbls" unicode="&#xdf;" horiz-adv-x="1020" 
d="M507 1590q0 129 -78 129q-123 0 -186 -246q-61 -235 -68 -585q0 -410 32 -813q0 -31 -22 -58q-36 -42 -90 -42q-61 0 -65 52q-32 446 -32 724q0 809 243 1037q76 72 188 72q218 0 218 -270q0 -249 -129 -572.5t-129 -414.5q0 -69 47 -106t113 -74q54 -31 106 -67.5
t86.5 -84.5t34.5 -113v-7q39 40 75 93q119 178 169 413q8 41 62 41q38 0 38 -51q0 -19 -17 -81q-58 -227 -186 -402q-27 -37 -56 -69q-149 -170 -349 -170q-89 0 -141.5 33t-78 83.5t-25.5 106.5q0 49 27 60q24 9 39 9q17 0 34 -8q32 -13 35 -49q2 -55 35.5 -81t74.5 -26
q43 0 78 26.5t35 76.5q0 37 -40 66.5t-97.5 61t-114.5 71t-95.5 94.5t-38.5 144q0 78 134 395.5t134 601.5z" />
    <glyph glyph-name="agrave" unicode="&#xe0;" horiz-adv-x="853" 
d="M179 130q49 0 95 65.5t86 158.5t69 174q0 22 -19 61.5t-56 73.5t-91 34q-55 0 -91 -50t-53 -124t-17 -149q0 -93 21 -165q23 -79 56 -79zM587 -77q-119 0 -153 181q-9 51 -13 115q-127 -245 -291 -245q-101 0 -152.5 106.5t-51.5 244.5q0 204 79.5 350.5t241.5 146.5
q110 0 173 -71q15 -18 28 -36q13 137 123 137q25 0 41 -15.5t16 -40.5q0 -17 -3 -46q-31 -338 -31 -513q0 -30 1 -57q3 -109 31 -109q48 0 124 211q61 177 103 375q8 41 61 41q39 0 39 -41q0 -31 -24 -126q-82 -333 -149 -461q-78 -147 -193 -147zM342 906q-35 0 -171 117
l-54 48q-16 15 -16 32q0 28 29 51.5t59 23.5q20 0 36 -15q182 -169 182 -203q0 -15 -20 -34.5t-45 -19.5z" />
    <glyph glyph-name="aacute" unicode="&#xe1;" horiz-adv-x="853" 
d="M179 130q49 0 95 65.5t86 158.5t69 174q0 22 -19 61.5t-56 73.5t-91 34q-55 0 -91 -50t-53 -124t-17 -149q0 -93 21 -165q23 -79 56 -79zM587 -77q-119 0 -153 181q-9 51 -13 115q-127 -245 -291 -245q-101 0 -152.5 106.5t-51.5 244.5q0 204 79.5 350.5t241.5 146.5
q110 0 173 -71q15 -18 28 -36q13 137 123 137q25 0 41 -15.5t16 -40.5q0 -17 -3 -46q-31 -338 -31 -513q0 -30 1 -57q3 -109 31 -109q48 0 124 211q61 177 103 375q8 41 61 41q39 0 39 -41q0 -31 -24 -126q-82 -333 -149 -461q-78 -147 -193 -147zM232 906q-45 0 -45 39
q0 27 181 193q19 18 40 18q16 0 38.5 -16t22.5 -36q0 -17 -19 -33l-175 -151q-17 -14 -43 -14z" />
    <glyph glyph-name="acircumflex" unicode="&#xe2;" horiz-adv-x="853" 
d="M179 130q49 0 95 65.5t86 158.5t69 174q0 22 -19 61.5t-56 73.5t-91 34q-55 0 -91 -50t-53 -124t-17 -149q0 -93 21 -165q23 -79 56 -79zM587 -77q-119 0 -153 181q-9 51 -13 115q-127 -245 -291 -245q-101 0 -152.5 106.5t-51.5 244.5q0 204 79.5 350.5t241.5 146.5
q110 0 173 -71q15 -18 28 -36q13 137 123 137q25 0 41 -15.5t16 -40.5q0 -17 -3 -46q-31 -338 -31 -513q0 -30 1 -57q3 -109 31 -109q48 0 124 211q61 177 103 375q8 41 61 41q39 0 39 -41q0 -31 -24 -126q-82 -333 -149 -461q-78 -147 -193 -147zM459 906q-37 0 -188 132
l-136 -118q-17 -14 -43 -14q-45 0 -45 39q0 27 181 193q43 40 73 40q25 0 41 -15q182 -169 182 -203q0 -15 -20 -34.5t-45 -19.5z" />
    <glyph glyph-name="atilde" unicode="&#xe3;" horiz-adv-x="853" 
d="M179 130q49 0 95 65.5t86 158.5t69 174q0 22 -19 61.5t-56 73.5t-91 34q-55 0 -91 -50t-53 -124t-17 -149q0 -93 21 -165q23 -79 56 -79zM587 -77q-119 0 -153 181q-9 51 -13 115q-127 -245 -291 -245q-101 0 -152.5 106.5t-51.5 244.5q0 204 79.5 350.5t241.5 146.5
q110 0 173 -71q15 -18 28 -36q13 137 123 137q25 0 41 -15.5t16 -40.5q0 -17 -3 -46q-31 -338 -31 -513q0 -30 1 -57q3 -109 31 -109q48 0 124 211q61 177 103 375q8 41 61 41q39 0 39 -41q0 -31 -24 -126q-82 -333 -149 -461q-78 -147 -193 -147zM389 886q-52 0 -91.5 26
t-64.5 53q-38 40 -56 40q-29 0 -69 -85q-8 -18 -28 -18q-22 0 -39 13.5t-17 29.5q0 24 30 87q39 84 113 84q60 0 129 -73q56 -58 86 -58q24 0 37 24q10 19 41 87q11 23 34 23q15 0 34 -16.5t19 -28.5q0 -21 -22 -73q-49 -115 -136 -115z" />
    <glyph glyph-name="adieresis" unicode="&#xe4;" horiz-adv-x="853" 
d="M179 130q49 0 95 65.5t86 158.5t69 174q0 22 -19 61.5t-56 73.5t-91 34q-55 0 -91 -50t-53 -124t-17 -149q0 -93 21 -165q23 -79 56 -79zM587 -77q-119 0 -153 181q-9 51 -13 115q-127 -245 -291 -245q-101 0 -152.5 106.5t-51.5 244.5q0 204 79.5 350.5t241.5 146.5
q110 0 173 -71q15 -18 28 -36q13 137 123 137q25 0 41 -15.5t16 -40.5q0 -17 -3 -46q-31 -338 -31 -513q0 -30 1 -57q3 -109 31 -109q48 0 124 211q61 177 103 375q8 41 61 41q39 0 39 -41q0 -31 -24 -126q-82 -333 -149 -461q-78 -147 -193 -147zM143 934q-37 0 -62 32
t-25 74q1 54 31 88t76 34q42 0 64.5 -32t22.5 -74q0 -52 -26.5 -87t-80.5 -35zM408 934q-37 0 -62 32t-25 74q1 54 31 88t76 34q42 0 64.5 -32t22.5 -74q0 -52 -26.5 -87t-80.5 -35z" />
    <glyph glyph-name="aring" unicode="&#xe5;" horiz-adv-x="853" 
d="M179 130q49 0 95 65.5t86 158.5t69 174q0 22 -19 61.5t-56 73.5t-91 34q-55 0 -91 -50t-53 -124t-17 -149q0 -93 21 -165q23 -79 56 -79zM587 -77q-119 0 -153 181q-9 51 -13 115q-127 -245 -291 -245q-101 0 -152.5 106.5t-51.5 244.5q0 204 79.5 350.5t241.5 146.5
q110 0 173 -71q15 -18 28 -36q13 137 123 137q25 0 41 -15.5t16 -40.5q0 -17 -3 -46q-31 -338 -31 -513q0 -30 1 -57q3 -109 31 -109q48 0 124 211q61 177 103 375q8 41 61 41q39 0 39 -41q0 -31 -24 -126q-82 -333 -149 -461q-78 -147 -193 -147zM260 843q-69 0 -118 49
t-49 119q0 69 49 118t118 49q70 0 119 -49t49 -118q0 -70 -49 -119t-119 -49zM260 939q30 0 51 21t21 51q0 29 -21 50t-51 21q-29 0 -50 -21t-21 -50q0 -30 21 -51t50 -21z" />
    <glyph glyph-name="ae" unicode="&#xe6;" horiz-adv-x="1218" 
d="M179 130q49 0 95 65.5t86 158.5t69 174q0 22 -19 61.5t-56 73.5t-91 34q-55 0 -91 -50t-53 -124t-17 -149q0 -93 21 -165q23 -79 56 -79zM664 400q63 0 101 21q82 46 82 145q0 47 -26.5 83t-67.5 36q-51 0 -84.5 -46t-51.5 -109.5t-22 -120.5q28 -9 69 -9zM730 -26
q-146 0 -242 122q-44 55 -63 130l-4 -7q-127 -245 -291 -245q-101 0 -152.5 106.5t-51.5 244.5q0 204 79.5 350.5t241.5 146.5q110 0 173 -71q45 -50 68 -89q98 167 278 167q101 0 162 -75q56 -68 56 -167q0 -79 -40.5 -152.5t-111 -105.5t-146.5 -32q-40 0 -86 7
q12 -60 45 -107q48 -69 119 -69q206 0 347 248q76 133 107 281q8 41 61 41q39 0 39 -51q0 -22 -19 -88q-64 -223 -216 -399q-161 -186 -353 -186z" />
    <glyph glyph-name="ccedilla" unicode="&#xe7;" horiz-adv-x="735" 
d="M194 -22q-70 12 -124 55q-76 58 -110 142t-34 191q0 114 38 219.5t111.5 174.5t182.5 69q130 0 192 -114q47 -87 47 -185q0 -63 -98 -63q-36 0 -37 50q-3 85 -48 139q-26 29 -70 29q-84 0 -116 -137q-19 -79 -19 -170q0 -63 24 -126q19 -50 56 -87t92 -37q206 0 347 248
q76 133 107 281q8 41 61 41q39 0 39 -51q0 -22 -19 -88q-64 -223 -216 -399q-144 -167 -314 -184q-5 -18 -5 -36q0 -50 54.5 -116t54.5 -109q0 -84 -84 -123q-63 -30 -87 -30q-16 0 -29.5 17t-13.5 39q0 20 18 28q55 26 70 36.5t15 32.5q0 28 -47.5 89t-47.5 113q0 31 10 61
z" />
    <glyph glyph-name="egrave" unicode="&#xe8;" horiz-adv-x="681" 
d="M167 400q63 0 101 21q82 46 82 145q0 47 -26.5 83t-67.5 36q-51 0 -84.5 -46t-51.5 -109.5t-22 -120.5q28 -9 69 -9zM233 -26q-146 0 -242 122q-79 100 -79 263q0 171 80 305q98 165 277 165q101 0 162 -75q56 -68 56 -167q0 -79 -40.5 -152.5t-111 -105.5t-146.5 -32
q-40 0 -86 7q12 -60 45 -107q49 -69 119 -69q166 0 307 248q76 133 107 281q8 41 61 41q39 0 39 -51q0 -22 -19 -88q-22 -77 -56 -148q-207 -437 -473 -437zM366 906q-35 0 -171 117l-54 48q-16 15 -16 32q0 28 29 51.5t59 23.5q20 0 36 -15q182 -169 182 -203
q0 -15 -20 -34.5t-45 -19.5z" />
    <glyph glyph-name="eacute" unicode="&#xe9;" horiz-adv-x="681" 
d="M167 400q63 0 101 21q82 46 82 145q0 47 -26.5 83t-67.5 36q-51 0 -84.5 -46t-51.5 -109.5t-22 -120.5q28 -9 69 -9zM233 -26q-146 0 -242 122q-79 100 -79 263q0 171 80 305q98 165 277 165q101 0 162 -75q56 -68 56 -167q0 -79 -40.5 -152.5t-111 -105.5t-146.5 -32
q-40 0 -86 7q12 -60 45 -107q49 -69 119 -69q166 0 307 248q76 133 107 281q8 41 61 41q39 0 39 -51q0 -22 -19 -88q-22 -77 -56 -148q-207 -437 -473 -437zM256 906q-45 0 -45 39q0 27 181 193q19 18 40 18q16 0 38.5 -16t22.5 -36q0 -17 -19 -33l-175 -151
q-17 -14 -43 -14z" />
    <glyph glyph-name="ecircumflex" unicode="&#xea;" horiz-adv-x="681" 
d="M167 400q63 0 101 21q82 46 82 145q0 47 -26.5 83t-67.5 36q-51 0 -84.5 -46t-51.5 -109.5t-22 -120.5q28 -9 69 -9zM233 -26q-146 0 -242 122q-79 100 -79 263q0 171 80 305q98 165 277 165q101 0 162 -75q56 -68 56 -167q0 -79 -40.5 -152.5t-111 -105.5t-146.5 -32
q-40 0 -86 7q12 -60 45 -107q49 -69 119 -69q166 0 307 248q76 133 107 281q8 41 61 41q39 0 39 -51q0 -22 -19 -88q-22 -77 -56 -148q-207 -437 -473 -437zM459 906q-37 0 -188 132l-136 -118q-17 -14 -43 -14q-45 0 -45 39q0 27 181 193q43 40 73 40q25 0 41 -15
q182 -169 182 -203q0 -15 -20 -34.5t-45 -19.5z" />
    <glyph glyph-name="edieresis" unicode="&#xeb;" horiz-adv-x="681" 
d="M167 400q63 0 101 21q82 46 82 145q0 47 -26.5 83t-67.5 36q-51 0 -84.5 -46t-51.5 -109.5t-22 -120.5q28 -9 69 -9zM233 -26q-146 0 -242 122q-79 100 -79 263q0 171 80 305q98 165 277 165q101 0 162 -75q56 -68 56 -167q0 -79 -40.5 -152.5t-111 -105.5t-146.5 -32
q-40 0 -86 7q12 -60 45 -107q49 -69 119 -69q166 0 307 248q76 133 107 281q8 41 61 41q39 0 39 -51q0 -22 -19 -88q-22 -77 -56 -148q-207 -437 -473 -437zM143 934q-37 0 -62 32t-25 74q1 54 31 88t76 34q42 0 64.5 -32t22.5 -74q0 -52 -26.5 -87t-80.5 -35zM408 934
q-37 0 -62 32t-25 74q1 54 31 88t76 34q42 0 64.5 -32t22.5 -74q0 -52 -26.5 -87t-80.5 -35z" />
    <glyph glyph-name="igrave" unicode="&#xec;" horiz-adv-x="434" 
d="M143 -77q-66 0 -102 49q-13 18 -24 41q-43 92 -43 282q0 119 20 317l7 69q9 121 121 121q25 0 41 -16t16 -40q0 -25 -6 -85q-23 -285 -23 -421l1 -61q3 -108 31 -108q55 0 117 137q76 169 135 449q9 41 59 41q41 0 41 -51q0 -14 -10 -55q-50 -214 -99 -352
q-64 -183 -158 -268q-54 -49 -124 -49zM177 906q-35 0 -171 117l-54 48q-16 15 -16 32q0 28 29 51.5t59 23.5q20 0 36 -15q182 -169 182 -203q0 -15 -20 -34.5t-45 -19.5z" />
    <glyph glyph-name="iacute" unicode="&#xed;" horiz-adv-x="434" 
d="M143 -77q-66 0 -102 49q-13 18 -24 41q-43 92 -43 282q0 119 20 317l7 69q9 121 121 121q25 0 41 -16t16 -40q0 -25 -6 -85q-23 -285 -23 -421l1 -61q3 -108 31 -108q55 0 117 137q76 169 135 449q9 41 59 41q41 0 41 -51q0 -14 -10 -55q-50 -214 -99 -352
q-64 -183 -158 -268q-54 -49 -124 -49zM88 906q-45 0 -45 39q0 27 181 193q19 18 40 18q16 0 38.5 -16t22.5 -36q0 -17 -19 -33l-175 -151q-17 -14 -43 -14z" />
    <glyph glyph-name="icircumflex" unicode="&#xee;" horiz-adv-x="434" 
d="M143 -77q-66 0 -102 49q-13 18 -24 41q-43 92 -43 282q0 119 20 317l7 69q9 121 121 121q25 0 41 -16t16 -40q0 -25 -6 -85q-23 -285 -23 -421l1 -61q3 -108 31 -108q55 0 117 137q76 169 135 449q9 41 59 41q41 0 41 -51q0 -14 -10 -55q-50 -214 -99 -352
q-64 -183 -158 -268q-54 -49 -124 -49zM291 906q-37 0 -188 132l-136 -118q-17 -14 -43 -14q-45 0 -45 39q0 27 181 193q43 40 73 40q25 0 41 -15q182 -169 182 -203q0 -15 -20 -34.5t-45 -19.5z" />
    <glyph glyph-name="idieresis" unicode="&#xef;" horiz-adv-x="434" 
d="M143 -77q-66 0 -102 49q-13 18 -24 41q-43 92 -43 282q0 119 20 317l7 69q9 121 121 121q25 0 41 -16t16 -40q0 -25 -6 -85q-23 -285 -23 -421l1 -61q3 -108 31 -108q55 0 117 137q76 169 135 449q9 41 59 41q41 0 41 -51q0 -14 -10 -55q-50 -214 -99 -352
q-64 -183 -158 -268q-54 -49 -124 -49zM-28 934q-37 0 -62 32t-25 74q1 54 31 88t76 34q42 0 64.5 -32t22.5 -74q0 -52 -26.5 -87t-80.5 -35zM237 934q-37 0 -62 32t-25 74q1 54 31 88t76 34q42 0 64.5 -32t22.5 -74q0 -52 -26.5 -87t-80.5 -35z" />
    <glyph glyph-name="eth" unicode="&#xf0;" horiz-adv-x="1023" 
d="M179 130q49 0 95 65.5t86 158.5t69 174q0 22 -19 61.5t-56 73.5t-91 34q-55 0 -91 -50t-53 -124t-17 -149q0 -93 21 -165q23 -79 56 -79zM707 -77q-141 0 -206 211q-24 77 -39 172q-141 -332 -332 -332q-101 0 -152.5 106.5t-51.5 244.5q0 204 79.5 350.5t241.5 146.5
q110 0 190 -85q0 354 44 600q-30 -1 -68 -5q-56 -6 -71 -6q-16 0 -27 12t-11 34q0 28 18 52q31 38 187 41q56 208 160 314q79 81 179 81q187 0 187 -250q0 -248 -155 -527q-153 -275 -264 -379q3 -204 16 -339q28 -294 114 -294q41 0 82 60t77.5 149t64.5 180q39 127 53 197
q8 41 61 41q39 0 39 -51q0 -30 -50 -210q-59 -208 -140 -344q-102 -170 -226 -170zM614 860q68 97 148 267q123 262 123 483q0 109 -47 109q-38 0 -84 -70t-76 -184q65 -2 115 -9q32 -5 32 -44q0 -12 -4 -25q-9 -27 -26.5 -40.5t-34.5 -13.5l-110 2q-36 -209 -36 -447v-28z
" />
    <glyph glyph-name="ntilde" unicode="&#xf1;" horiz-adv-x="963" 
d="M698 -77q-89 0 -131.5 60.5t-42.5 197.5q0 73 2 155t2 192q0 145 -71 145q-101 0 -182 -282q-53 -186 -76 -306q-7 -39 -29 -67q-35 -43 -90 -43q-64 0 -64 52q0 117 -11 463q-7 198 -7 256q0 23 12.5 39.5t37.5 16.5q96 0 109 -50q21 -79 29 -308q114 378 320 378
q97 0 150.5 -72.5t53.5 -191.5q0 -125 -4 -226t-4 -197q0 -64 35 -64q49 0 124 211q62 176 102 375q8 41 55 41q45 0 45 -51q0 -14 -21 -105q-79 -332 -152 -472q-78 -147 -192 -147zM514 886q-52 0 -91.5 26t-64.5 53q-38 40 -56 40q-29 0 -69 -85q-8 -18 -28 -18
q-22 0 -39 13.5t-17 29.5q0 24 30 87q39 84 113 84q60 0 129 -73q56 -58 86 -58q24 0 37 24q10 19 41 87q11 23 34 23q15 0 34 -16.5t19 -28.5q0 -21 -22 -73q-49 -115 -136 -115z" />
    <glyph glyph-name="ograve" unicode="&#xf2;" horiz-adv-x="810" 
d="M217 -24q-104 0 -171.5 53.5t-99.5 140.5t-32 183q0 69 21 152q26 106 85 185q104 139 277 139q110 0 179 -50t101.5 -130t32.5 -171q0 -25 -2 -51q44 6 79 30q94 62 123 200q8 41 62 41q38 0 38 -51q0 -23 -23 -86q-49 -130 -154 -196q-62 -38 -142 -42
q-17 -74 -41 -127q-101 -220 -333 -220zM260 129q82 0 125 62t58 141l6 38q-45 47 -45 113q0 56 32 94q-43 107 -153 107q-138 0 -175 -166q-16 -69 -16 -132q0 -49 16.5 -109.5t53.5 -104t98 -43.5zM361 906q-35 0 -171 117l-54 48q-16 15 -16 32q0 28 29 51.5t59 23.5
q20 0 36 -15q182 -169 182 -203q0 -15 -20 -34.5t-45 -19.5z" />
    <glyph glyph-name="oacute" unicode="&#xf3;" horiz-adv-x="810" 
d="M217 -24q-104 0 -171.5 53.5t-99.5 140.5t-32 183q0 69 21 152q26 106 85 185q104 139 277 139q110 0 179 -50t101.5 -130t32.5 -171q0 -25 -2 -51q44 6 79 30q94 62 123 200q8 41 62 41q38 0 38 -51q0 -23 -23 -86q-49 -130 -154 -196q-62 -38 -142 -42
q-17 -74 -41 -127q-101 -220 -333 -220zM260 129q82 0 125 62t58 141l6 38q-45 47 -45 113q0 56 32 94q-43 107 -153 107q-138 0 -175 -166q-16 -69 -16 -132q0 -49 16.5 -109.5t53.5 -104t98 -43.5zM262 906q-45 0 -45 39q0 27 181 193q19 18 40 18q16 0 38.5 -16t22.5 -36
q0 -17 -19 -33l-175 -151q-17 -14 -43 -14z" />
    <glyph glyph-name="ocircumflex" unicode="&#xf4;" horiz-adv-x="810" 
d="M217 -24q-104 0 -171.5 53.5t-99.5 140.5t-32 183q0 69 21 152q26 106 85 185q104 139 277 139q110 0 179 -50t101.5 -130t32.5 -171q0 -25 -2 -51q44 6 79 30q94 62 123 200q8 41 62 41q38 0 38 -51q0 -23 -23 -86q-49 -130 -154 -196q-62 -38 -142 -42
q-17 -74 -41 -127q-101 -220 -333 -220zM260 129q82 0 125 62t58 141l6 38q-45 47 -45 113q0 56 32 94q-43 107 -153 107q-138 0 -175 -166q-16 -69 -16 -132q0 -49 16.5 -109.5t53.5 -104t98 -43.5zM469 906q-37 0 -188 132l-136 -118q-17 -14 -43 -14q-45 0 -45 39
q0 27 181 193q43 40 73 40q25 0 41 -15q182 -169 182 -203q0 -15 -20 -34.5t-45 -19.5z" />
    <glyph glyph-name="otilde" unicode="&#xf5;" horiz-adv-x="810" 
d="M217 -24q-104 0 -171.5 53.5t-99.5 140.5t-32 183q0 69 21 152q26 106 85 185q104 139 277 139q110 0 179 -50t101.5 -130t32.5 -171q0 -25 -2 -51q44 6 79 30q94 62 123 200q8 41 62 41q38 0 38 -51q0 -23 -23 -86q-49 -130 -154 -196q-62 -38 -142 -42
q-17 -74 -41 -127q-101 -220 -333 -220zM260 129q82 0 125 62t58 141l6 38q-45 47 -45 113q0 56 32 94q-43 107 -153 107q-138 0 -175 -166q-16 -69 -16 -132q0 -49 16.5 -109.5t53.5 -104t98 -43.5zM409 886q-52 0 -91.5 26t-64.5 53q-38 40 -56 40q-29 0 -69 -85
q-8 -18 -28 -18q-22 0 -39 13.5t-17 29.5q0 24 30 87q39 84 113 84q60 0 129 -73q56 -58 86 -58q24 0 37 24q10 19 41 87q11 23 34 23q15 0 34 -16.5t19 -28.5q0 -21 -22 -73q-49 -115 -136 -115z" />
    <glyph glyph-name="odieresis" unicode="&#xf6;" horiz-adv-x="810" 
d="M217 -24q-104 0 -171.5 53.5t-99.5 140.5t-32 183q0 69 21 152q26 106 85 185q104 139 277 139q110 0 179 -50t101.5 -130t32.5 -171q0 -25 -2 -51q44 6 79 30q94 62 123 200q8 41 62 41q38 0 38 -51q0 -23 -23 -86q-49 -130 -154 -196q-62 -38 -142 -42
q-17 -74 -41 -127q-101 -220 -333 -220zM260 129q82 0 125 62t58 141l6 38q-45 47 -45 113q0 56 32 94q-43 107 -153 107q-138 0 -175 -166q-16 -69 -16 -132q0 -49 16.5 -109.5t53.5 -104t98 -43.5zM153 934q-37 0 -62 32t-25 74q1 54 31 88t76 34q42 0 64.5 -32t22.5 -74
q0 -52 -26.5 -87t-80.5 -35zM418 934q-37 0 -62 32t-25 74q1 54 31 88t76 34q42 0 64.5 -32t22.5 -74q0 -52 -26.5 -87t-80.5 -35z" />
    <glyph glyph-name="divide" unicode="&#xf7;" horiz-adv-x="925" 
d="M153 494q-22 0 -37.5 12t-15.5 34q0 28 25 52q44 40 281 41l130 1q143 0 245 -10q44 -5 44 -44q0 -12 -6 -25q-12 -27 -36.5 -40.5t-47.5 -13.5l-353 5q-53 0 -130.5 -6t-98.5 -6zM453 151q-43 0 -65 32t-22 74q0 53 26 87.5t81 34.5q36 0 61.5 -32t25.5 -74
q-1 -54 -31.5 -88t-75.5 -34zM453 749q-42 0 -64.5 32t-22.5 74q0 53 26.5 87.5t80.5 34.5q37 0 62 -32t25 -74q-1 -54 -31 -88t-76 -34z" />
    <glyph glyph-name="oslash" unicode="&#xf8;" horiz-adv-x="810" 
d="M591 323q-17 -74 -41 -127q-98 -214 -321 -220l-57 -214q-9 -34 -35 -34q-64 0 -64 45q0 27 49 216q-43 14 -76 41q-68 53 -100 140t-32 183q0 69 21 152q26 106 85 185q104 139 277 139q22 0 43 -2l42 177q8 35 35 35q63 0 63 -58q0 -10 -2 -19l-36 -163q18 -8 34 -20
q69 -50 101.5 -130t32.5 -171q0 -25 -2 -51q44 6 79 30q49 32 79.5 85t43.5 115q8 41 62 41q38 0 38 -51q0 -23 -23 -86q-16 -43 -40 -82q-45 -71 -114 -114q-62 -38 -142 -42zM168 166l28 102l108 415q-10 1 -21 1q-138 0 -175 -166q-16 -69 -16 -132q0 -49 16.5 -109.5
t53.5 -103.5q3 -4 6 -7zM403 632q-54 -226 -114 -439l-18 -64q74 4 114 62q43 62 58 141q3 20 6 38q-22 23 -35 57q-10 27 -10 56q0 56 32 94q-12 31 -32 54q0 1 -1 1z" />
    <glyph glyph-name="ugrave" unicode="&#xf9;" horiz-adv-x="915" 
d="M623 -77q-119 0 -153 177q-14 71 -16 120q-100 -245 -249 -245q-112 0 -164.5 74.5t-52.5 228.5q0 105 13 411q2 56 34 84.5t87 28.5q25 0 41 -16.5t16 -39.5q0 -114 -7 -229q-8 -138 -8 -240q0 -171 65 -171q107 0 201 361q18 68 37 167t38 126q30 42 97 42q25 0 41 -16
t16 -40q0 -25 -6 -85q-22 -243 -22 -407l1 -75q2 -108 30 -108q55 0 117 137q76 169 135 449q9 41 65 41q36 0 36 -51q0 -16 -35 -160q-140 -564 -357 -564zM354 906q-35 0 -171 117l-54 48q-16 15 -16 32q0 28 29 51.5t59 23.5q20 0 36 -15q182 -169 182 -203
q0 -15 -20 -34.5t-45 -19.5z" />
    <glyph glyph-name="uacute" unicode="&#xfa;" horiz-adv-x="915" 
d="M623 -77q-119 0 -153 177q-14 71 -16 120q-100 -245 -249 -245q-112 0 -164.5 74.5t-52.5 228.5q0 105 13 411q2 56 34 84.5t87 28.5q25 0 41 -16.5t16 -39.5q0 -114 -7 -229q-8 -138 -8 -240q0 -171 65 -171q107 0 201 361q18 68 37 167t38 126q30 42 97 42q25 0 41 -16
t16 -40q0 -25 -6 -85q-22 -243 -22 -407l1 -75q2 -108 30 -108q55 0 117 137q76 169 135 449q9 41 65 41q36 0 36 -51q0 -16 -35 -160q-140 -564 -357 -564zM301 906q-45 0 -45 39q0 27 181 193q19 18 40 18q16 0 38.5 -16t22.5 -36q0 -17 -19 -33l-175 -151
q-17 -14 -43 -14z" />
    <glyph glyph-name="ucircumflex" unicode="&#xfb;" horiz-adv-x="915" 
d="M623 -77q-119 0 -153 177q-14 71 -16 120q-100 -245 -249 -245q-112 0 -164.5 74.5t-52.5 228.5q0 105 13 411q2 56 34 84.5t87 28.5q25 0 41 -16.5t16 -39.5q0 -114 -7 -229q-8 -138 -8 -240q0 -171 65 -171q107 0 201 361q18 68 37 167t38 126q30 42 97 42q25 0 41 -16
t16 -40q0 -25 -6 -85q-22 -243 -22 -407l1 -75q2 -108 30 -108q55 0 117 137q76 169 135 449q9 41 65 41q36 0 36 -51q0 -16 -35 -160q-140 -564 -357 -564zM516 906q-37 0 -188 132l-136 -118q-17 -14 -43 -14q-45 0 -45 39q0 27 181 193q43 40 73 40q25 0 41 -15
q182 -169 182 -203q0 -15 -20 -34.5t-45 -19.5z" />
    <glyph glyph-name="udieresis" unicode="&#xfc;" horiz-adv-x="915" 
d="M623 -77q-119 0 -153 177q-14 71 -16 120q-100 -245 -249 -245q-112 0 -164.5 74.5t-52.5 228.5q0 105 13 411q2 56 34 84.5t87 28.5q25 0 41 -16.5t16 -39.5q0 -114 -7 -229q-8 -138 -8 -240q0 -171 65 -171q107 0 201 361q18 68 37 167t38 126q30 42 97 42q25 0 41 -16
t16 -40q0 -25 -6 -85q-22 -243 -22 -407l1 -75q2 -108 30 -108q55 0 117 137q76 169 135 449q9 41 65 41q36 0 36 -51q0 -16 -35 -160q-140 -564 -357 -564zM181 934q-37 0 -62 32t-25 74q1 54 31 88t76 34q42 0 64.5 -32t22.5 -74q0 -52 -26.5 -87t-80.5 -35zM446 934
q-37 0 -62 32t-25 74q1 54 31 88t76 34q42 0 64.5 -32t22.5 -74q0 -52 -26.5 -87t-80.5 -35z" />
    <glyph glyph-name="yacute" unicode="&#xfd;" horiz-adv-x="864" 
d="M240 -859q123 0 187 247q61 238 64 577q-180 -185 -273 -417q-56 -141 -56 -278q0 -23 7 -53t24 -53t47 -23zM240 -1000q-84 0 -134 36.5t-72 97.5t-22 136q0 228 158 468q130 197 322 361q-1 126 -6 249q-110 -373 -294 -373q-112 0 -164.5 74.5t-52.5 228.5
q0 159 19 334l6 69q11 121 123 121q25 0 41 -16t16 -40q0 -25 -8 -85q-29 -208 -29 -384q0 -171 73 -171q114 0 213 408q11 48 28 145t37 121q37 42 81 42q60 0 64 -52q23 -293 29 -517q143 148 196 404q8 41 54 41t46 -51q0 -18 -17 -79q-78 -292 -276 -449v-43
q0 -776 -242 -1004q-77 -72 -189 -72zM332 906q-45 0 -45 39q0 27 181 193q19 18 40 18q16 0 38.5 -16t22.5 -36q0 -17 -19 -33l-175 -151q-17 -14 -43 -14z" />
    <glyph glyph-name="thorn" unicode="&#xfe;" horiz-adv-x="934" 
d="M370 99q55 0 91 50t53 124t17 149q0 93 -21 165q-23 79 -56 79q-49 0 -95 -65.5t-86 -158.5t-69 -174q0 -22 19 -61.5t56 -73.5t91 -34zM205 -973q-88 0 -110 74q-107 355 -107 1020q0 75 5 270q4 809 99 1119q14 45 61 45q16 0 35 -5q64 -17 64 -59q0 -9 -2 -18
q-28 -107 -42 -223q-24 -188 -24 -362q0 -274 -6 -382q138 316 325 316q101 0 152.5 -106.5t51.5 -244.5q0 -183 -64 -319q59 40 110 103q132 165 181 402q8 41 62 41q38 0 38 -51q0 -21 -18 -85q-59 -216 -184 -371q-162 -197 -388 -212q-27 -5 -58 -5q-110 0 -172 72
q-29 32 -48 63v-44q0 -637 95 -947q7 -23 7 -33q0 -58 -63 -58z" />
    <glyph glyph-name="ydieresis" unicode="&#xff;" horiz-adv-x="864" 
d="M240 -859q123 0 187 247q61 238 64 577q-180 -185 -273 -417q-56 -141 -56 -278q0 -23 7 -53t24 -53t47 -23zM240 -1000q-84 0 -134 36.5t-72 97.5t-22 136q0 228 158 468q130 197 322 361q-1 126 -6 249q-110 -373 -294 -373q-112 0 -164.5 74.5t-52.5 228.5
q0 159 19 334l6 69q11 121 123 121q25 0 41 -16t16 -40q0 -25 -8 -85q-29 -208 -29 -384q0 -171 73 -171q114 0 213 408q11 48 28 145t37 121q37 42 81 42q60 0 64 -52q23 -293 29 -517q143 148 196 404q8 41 54 41t46 -51q0 -18 -17 -79q-78 -292 -276 -449v-43
q0 -776 -242 -1004q-77 -72 -189 -72zM175 934q-37 0 -62 32t-25 74q1 54 31 88t76 34q42 0 64.5 -32t22.5 -74q0 -52 -26.5 -87t-80.5 -35zM440 934q-37 0 -62 32t-25 74q1 54 31 88t76 34q42 0 64.5 -32t22.5 -74q0 -52 -26.5 -87t-80.5 -35z" />
    <glyph glyph-name="dotlessi" unicode="&#x131;" horiz-adv-x="434" 
d="M143 -77q-66 0 -102 49q-13 18 -24 41q-43 92 -43 282q0 119 20 317l7 69q9 121 121 121q25 0 41 -16t16 -40q0 -25 -6 -85q-23 -285 -23 -421l1 -61q3 -108 31 -108q55 0 117 137q76 169 135 449q9 41 59 41q41 0 41 -51q0 -14 -10 -55q-50 -214 -99 -352
q-64 -183 -158 -268q-54 -49 -124 -49z" />
    <glyph glyph-name="circumflex" unicode="&#x2c6;" horiz-adv-x="677" 
d="M512 906q-37 0 -188 132l-136 -118q-17 -14 -43 -14q-45 0 -45 39q0 27 181 193q43 40 73 40q25 0 41 -15q182 -169 182 -203q0 -15 -20 -34.5t-45 -19.5z" />
    <glyph glyph-name="caron" unicode="&#x2c7;" horiz-adv-x="677" 
d="M165 1178q37 0 188 -132l136 118q17 14 43 14q45 0 45 -39q0 -27 -181 -193q-43 -40 -73 -40q-25 0 -41 15q-182 169 -182 203q0 15 20 34.5t45 19.5z" />
    <glyph glyph-name="uni02C9" unicode="&#x2c9;" horiz-adv-x="650" 
d="M133 931q-14 0 -23.5 11t-9.5 30q0 26 16 47q27 36 174 37h98q77 0 135 -8q27 -4 27 -40q0 -10 -4 -22q-7 -24 -22.5 -36.5t-29.5 -12.5l-230 4q-30 0 -74 -5t-57 -5z" />
    <glyph glyph-name="breve" unicode="&#x2d8;" horiz-adv-x="640" 
d="M320 886q-95 0 -159 74q-61 69 -61 117q0 42 48 42q23 0 35 -22q52 -96 137 -96t137 96q12 22 35 22q48 0 48 -42q0 -48 -61 -117q-64 -74 -159 -74z" />
    <glyph glyph-name="dotaccent" unicode="&#x2d9;" horiz-adv-x="394" 
d="M187 934q-37 0 -62 32t-25 74q1 54 31 88t76 34q42 0 64.5 -32t22.5 -74q0 -52 -26.5 -87t-80.5 -35z" />
    <glyph glyph-name="ring" unicode="&#x2da;" horiz-adv-x="535" 
d="M267 843q-69 0 -118 49t-49 119q0 69 49 118t118 49q70 0 119 -49t49 -118q0 -70 -49 -119t-119 -49zM267 939q30 0 51 21t21 51q0 29 -21 50t-51 21q-29 0 -50 -21t-21 -50q0 -30 21 -51t50 -21z" />
    <glyph glyph-name="ogonek" unicode="&#x2db;" horiz-adv-x="414" 
d="M271 -458q-24 0 -87 30q-84 39 -84 123q0 83 64.5 174t64.5 151q0 31 33 31q52 0 52 -41q0 -45 -51.5 -146t-51.5 -149q0 -52 85 -89q18 -8 18 -28q0 -22 -13.5 -39t-29.5 -17z" />
    <glyph glyph-name="tilde" unicode="&#x2dc;" horiz-adv-x="723" 
d="M465 886q-52 0 -91.5 26t-64.5 53q-38 40 -56 40q-29 0 -69 -85q-8 -18 -28 -18q-22 0 -39 13.5t-17 29.5q0 24 30 87q39 84 113 84q60 0 129 -73q56 -58 86 -58q24 0 37 24q10 19 41 87q11 23 34 23q15 0 34 -16.5t19 -28.5q0 -21 -22 -73q-49 -115 -136 -115z" />
    <glyph glyph-name="hungarumlaut" unicode="&#x2dd;" horiz-adv-x="764" 
d="M145 906q-45 0 -45 39q0 27 181 193q19 18 40 18q16 0 38.5 -16t22.5 -36q0 -17 -19 -33l-175 -151q-17 -14 -43 -14zM427 906q-45 0 -45 39q0 27 181 193q19 18 40 18q16 0 38.5 -16t22.5 -36q0 -17 -19 -33l-175 -151q-17 -14 -43 -14z" />
    <glyph glyph-name="endash" unicode="&#x2013;" horiz-adv-x="1293" 
d="M187 332q-16 0 -26.5 12t-10.5 34q0 28 17 52q31 40 194 41l583 1q98 0 169 -10q30 -5 30 -44q0 -12 -4 -25q-8 -27 -25 -40.5t-33 -13.5l-244 5h-326q-203 0 -256.5 -6t-67.5 -6z" />
    <glyph glyph-name="emdash" unicode="&#x2014;" horiz-adv-x="1850" 
d="M187 332q-16 0 -26.5 12t-10.5 34q0 28 17 52q31 40 194 41l1140 1q98 0 169 -10q30 -5 30 -44q0 -12 -4 -25q-8 -27 -25 -40.5t-33 -13.5l-244 5h-883q-203 0 -256.5 -6t-67.5 -6z" />
    <glyph glyph-name="quoteleft" unicode="&#x2018;" horiz-adv-x="419" 
d="M297 1490q22 0 22 -21q0 -12 -9 -26q-78 -135 -78 -247q76 -20 76 -104q0 -53 -30.5 -87.5t-76.5 -34.5q-101 0 -101 150q0 140 71.5 255t125.5 115z" />
    <glyph glyph-name="quoteright" unicode="&#x2019;" horiz-adv-x="419" 
d="M122 970q-22 0 -22 21q0 12 9 26q78 135 78 247q-76 20 -76 104q0 53 30.5 87.5t76.5 34.5q101 0 101 -150q0 -140 -71.5 -255t-125.5 -115z" />
    <glyph glyph-name="quotesinglbase" unicode="&#x201a;" horiz-adv-x="419" 
d="M122 -318q-22 0 -22 21q0 12 9 26q78 135 78 247q-76 20 -76 104q0 53 30.5 87.5t76.5 34.5q101 0 101 -150q0 -140 -71.5 -255t-125.5 -115z" />
    <glyph glyph-name="quotedblleft" unicode="&#x201c;" horiz-adv-x="725" 
d="M297 1490q22 0 22 -21q0 -12 -9 -26q-78 -135 -78 -247q76 -20 76 -104q0 -53 -30.5 -87.5t-76.5 -34.5q-101 0 -101 150q0 140 71.5 255t125.5 115zM603 1490q22 0 22 -21q0 -12 -9 -26q-78 -135 -78 -247q76 -20 76 -104q0 -53 -30.5 -87.5t-76.5 -34.5
q-101 0 -101 150q0 140 71.5 255t125.5 115z" />
    <glyph glyph-name="quotedblright" unicode="&#x201d;" horiz-adv-x="725" 
d="M122 970q-22 0 -22 21q0 12 9 26q78 135 78 247q-76 20 -76 104q0 53 30.5 87.5t76.5 34.5q101 0 101 -150q0 -140 -71.5 -255t-125.5 -115zM428 970q-22 0 -22 21q0 12 9 26q78 135 78 247q-76 20 -76 104q0 53 30.5 87.5t76.5 34.5q101 0 101 -150q0 -140 -71.5 -255
t-125.5 -115z" />
    <glyph glyph-name="quotedblbase" unicode="&#x201e;" horiz-adv-x="725" 
d="M122 -260q-22 0 -22 21q0 12 9 26q78 135 78 247q-76 20 -76 104q0 53 30.5 87.5t76.5 34.5q101 0 101 -150q0 -140 -71.5 -255t-125.5 -115zM428 -260q-22 0 -22 21q0 12 9 26q78 135 78 247q-76 20 -76 104q0 53 30.5 87.5t76.5 34.5q101 0 101 -150q0 -140 -71.5 -255
t-125.5 -115z" />
    <glyph glyph-name="dagger" unicode="&#x2020;" horiz-adv-x="925" 
d="M530 1082l3 -1362q0 -21 -13 -38q-26 -35 -70 -35q-50 0 -51 40q-5 173 -5 635l-1 701v61h-11q-53 0 -130.5 -6t-98.5 -6q-22 0 -37.5 12t-15.5 34q0 28 25 52q43 39 270 41q6 284 34 311q25 25 61 25q43 0 43 -40q-2 -106 -3 -295h6q143 0 245 -10q44 -5 44 -44
q0 -12 -6 -25q-12 -27 -36.5 -40.5t-47.5 -13.5z" />
    <glyph glyph-name="daggerdbl" unicode="&#x2021;" horiz-adv-x="925" 
d="M395 1211q6 284 34 311q25 25 61 25q43 0 43 -40q-2 -106 -3 -295h6q143 0 245 -10q44 -5 44 -44q0 -12 -6 -25q-12 -27 -36.5 -40.5t-47.5 -13.5l-205 3l2 -972h11q53 0 130.5 6t98.5 6q22 0 37.5 -12t15.5 -34q0 -28 -25 -52q-43 -39 -268 -41l1 -263q0 -21 -13 -38
q-26 -35 -70 -35q-50 0 -51 40q-3 100 -4 295h-6q-143 0 -245 10q-44 5 -44 44q0 12 6 25q12 27 36.5 40.5t47.5 13.5l204 -3v210l-1 701v61h-11q-53 0 -130.5 -6t-98.5 -6q-22 0 -37.5 12t-15.5 34q0 28 25 52q43 39 270 41z" />
    <glyph glyph-name="bullet" unicode="&#x2022;" horiz-adv-x="810" 
d="M405 152q-126 0 -215.5 89.5t-89.5 215.5q0 127 89.5 216t215.5 89q127 0 216 -89t89 -216q0 -126 -89 -215.5t-216 -89.5z" />
    <glyph glyph-name="ellipsis" unicode="&#x2026;" horiz-adv-x="2048" 
d="M187 -26q-43 0 -65 32t-22 74q0 53 26 87.5t81 34.5q36 0 61.5 -32t25.5 -74q-1 -54 -31.5 -88t-75.5 -34zM870 -26q-43 0 -65 32t-22 74q0 53 26 87.5t81 34.5q36 0 61.5 -32t25.5 -74q-1 -54 -31.5 -88t-75.5 -34zM1553 -26q-43 0 -65 32t-22 74q0 53 26 87.5t81 34.5
q36 0 61.5 -32t25.5 -74q-1 -54 -31.5 -88t-75.5 -34z" />
    <glyph glyph-name="guilsinglleft" unicode="&#x2039;" horiz-adv-x="581" 
d="M383 708q23 0 36 -24q12 -19 12 -40q0 -27 -14 -47l-141 -203l139 -199q15 -23 15 -56q0 -23 -13 -44q-16 -27 -41 -27q-36 0 -176 210l-33.5 49.5t-16.5 50.5q0 27 19.5 56.5l38.5 58.5l16 25q128 190 159 190z" />
    <glyph glyph-name="guilsinglright" unicode="&#x203a;" horiz-adv-x="581" 
d="M198 68q-23 0 -36 24q-12 19 -12 40q0 27 14 47l141 203l-139 199q-15 23 -15 56q0 23 13 44q16 27 41 27q36 0 176 -210l33.5 -49.5t16.5 -50.5q0 -27 -19 -56l-39 -59l-16 -25q-128 -190 -159 -190z" />
    <glyph glyph-name="fraction" unicode="&#x2044;" horiz-adv-x="221" 
d="M-147 -24q-53 0 -53 45q0 9 4 19q45 125 232 449l162.5 295.5t131.5 292.5q11 26 35.5 42.5t51.5 16.5q54 0 54 -45q0 -10 -3 -20q-72 -203 -299 -599q-185 -324 -226 -436q-10 -26 -35.5 -43t-54.5 -17z" />
    <glyph glyph-name="fraction" unicode="&#x2215;" horiz-adv-x="221" 
d="M-147 -24q-53 0 -53 45q0 9 4 19q45 125 232 449l162.5 295.5t131.5 292.5q11 26 35.5 42.5t51.5 16.5q54 0 54 -45q0 -10 -3 -20q-72 -203 -299 -599q-185 -324 -226 -436q-10 -26 -35.5 -43t-54.5 -17z" />
    <glyph glyph-name="lira" unicode="&#x20a4;" horiz-adv-x="1039" 
d="M362 -17q-44 0 -75 31q-46 44 -46 104q0 21 11 34q61 78 74 163l-176 -10q-20 0 -35 11.5t-15 33.5q0 28 25 52q35 32 195 39q-5 27 -24 103q-131 -9 -143 -9q-22 0 -37.5 12t-15.5 34q0 28 25 52q30 27 146 36q-7 51 -7 95q0 93 34.5 185t110 152.5t195.5 60.5
q102 0 178 -49.5t116.5 -122.5t40.5 -156q0 -40 -15.5 -65.5t-63.5 -25.5q-34 0 -52.5 16t-28.5 42.5t-18 56.5q-9 35 -22.5 68t-41 54.5t-80.5 21.5q-58 0 -92 -29t-48 -78t-14 -109q0 -48 7 -112l66 1q143 0 245 -10q44 -5 44 -44q0 -12 -6 -25q-12 -27 -36.5 -40.5
t-47.5 -13.5l-248 4l17 -102q175 0 277 -10q44 -5 44 -44q0 -12 -6 -25q-12 -27 -36.5 -40.5t-47.5 -13.5l-227 3q-11 -92 -60 -163q142 14 215 14q178 0 226 -45q34 -32 34 -67q0 -26 -18 -44t-50 -18q-47 0 -99 6q-56 7 -111 7q-137 0 -261 -19q-11 -2 -22 -2z" />
    <glyph glyph-name="Euro" unicode="&#x20ac;" horiz-adv-x="958" 
d="M552 -34q-136 0 -209.5 74t-99.5 185q-19 81 -24 162q-103 -8 -120 -8q-22 0 -37.5 12t-15.5 34q0 28 25 52q30 27 148 36q2 51 7 105q-112 -8 -127 -8q-22 0 -37.5 12t-15.5 34q0 28 25 52q33 30 175 38q30 144 87 246q95 170 289 170q81 0 139.5 -46t99.5 -115.5
t41 -113.5q0 -25 -28 -46.5t-55 -21.5q-29 0 -51.5 27t-44 62.5t-45.5 64t-56 28.5q-44 0 -83 -61q-45 -71 -78 -190h21q143 0 245 -10q44 -5 44 -44q0 -12 -6 -25q-12 -27 -36.5 -40.5t-47.5 -13.5l-250 4q-9 -51 -14 -103l65 1q143 0 245 -10q44 -5 44 -44q0 -12 -6 -25
q-12 -27 -36.5 -40.5t-47.5 -13.5l-273 4v-20q0 -112 35.5 -186t106.5 -74q88 0 152 119q28 52 69 52q29 0 50.5 -24.5t21.5 -46.5q0 -20 -13 -43q-41 -75 -115.5 -138t-162.5 -63z" />
    <glyph glyph-name="trademark" unicode="&#x2122;" horiz-adv-x="1414" 
d="M762 1486q7 40 7 112q0 171 -50 171q-28 0 -28 -60q0 -58 22 -119q15 -40 49 -104zM325 1141q-27 0 -28 31q-3 130 -3 285t13 278q-61 -6 -97 -38q-44 -41 -44 -103q0 -86 38 -143q11 -16 11 -28q0 -6 -3 -11q-8 -12 -25 -12q-24 0 -43 25q-57 75 -57 178q0 78 67.5 137
t213.5 59q103 0 160 18q8 3 15 3q20 0 20 -22q0 -43 -108 -56q-29 -3 -68 -5q-12 -138 -12 -246q0 -183 2 -320q0 -30 -52 -30zM1153 1141q-27 0 -28 31q-3 130 -3 285q0 126 2 186q-39 -113 -67 -232q-21 -86 -44 -157q-9 -28 -38 -38q-12 -4 -24 -4q-50 0 -147 103l-8 -24
q-54 -146 -177 -146q-74 0 -117.5 42t-43.5 102q0 77 86 120q12 6 24 6q32 0 40 -20q2 -3 2 -6q0 -9 -15 -16q-30 -14 -47 -39.5t-17 -52.5t20 -48q26 -28 68 -28q63 0 94 82q20 52 31 101q-45 62 -77 132q-49 109 -49 191q0 51 29.5 82t77.5 31q125 0 125 -236
q0 -102 -25 -201q59 -79 119 -115q20 59 47 172q24 98 54 199q56 188 106 188q23 0 43 -9t20 -25q-11 -180 -11 -276q0 -213 2 -350q0 -30 -52 -30z" />
    <glyph glyph-name="minus" unicode="&#x2212;" horiz-adv-x="925" 
d="M153 494q-22 0 -37.5 12t-15.5 34q0 28 25 52q44 40 281 41l130 1q143 0 245 -10q44 -5 44 -44q0 -12 -6 -25q-12 -27 -36.5 -40.5t-47.5 -13.5l-353 5q-53 0 -130.5 -6t-98.5 -6z" />
    <glyph glyph-name="approxequal" unicode="&#x2248;" horiz-adv-x="960" 
d="M594 411q-48 0 -84 18t-63 44.5t-49 53t-42 45t-41 18.5q-22 0 -42 -28t-35 -60.5t-21 -51.5q-12 -23 -29.5 -24t-21.5 -1q-28 0 -50 16q-16 12 -16 32q0 10 4 23q21 52 52 100t78.5 80t118.5 32q42 0 73 -16.5t55.5 -40.5t45.5 -50q24 -29 47.5 -50t51.5 -21q31 0 54 26
t38 58t22 54q12 28 32.5 31.5t29.5 3.5q21 0 39.5 -10.5t18.5 -31.5q0 -7 -2 -15q-19 -57 -52.5 -110.5t-85.5 -89t-126 -35.5zM594 114q-48 0 -84 18t-63 44.5t-49 53t-42 45t-41 18.5q-22 0 -42 -28t-35 -60.5t-21 -51.5q-12 -23 -29.5 -24t-21.5 -1q-28 0 -50 16
q-16 12 -16 32q0 10 4 23q21 52 52 100t78.5 80t118.5 32q42 0 73 -16.5t55.5 -40.5t45.5 -50q24 -29 47.5 -50t51.5 -21q31 0 54 26t38 58t22 54q12 28 32.5 31.5t29.5 3.5q21 0 39.5 -10.5t18.5 -31.5q0 -7 -2 -15q-19 -57 -52.5 -110.5t-85.5 -89t-126 -35.5z" />
    <glyph glyph-name="lessequal" unicode="&#x2264;" horiz-adv-x="984" 
d="M776 210q-24 0 -301 88l-317 98q-58 18 -58 95q0 50 58 74l218 91q371 157 409 157q23 0 41 -13q28 -20 28 -51q0 -33 -52 -53l-472 -193q98 -32 198 -60q165 -47 324 -108q32 -12 32 -43q0 -28 -33.5 -55t-74.5 -27zM153 0q-22 0 -37.5 12t-15.5 34q0 28 25 52
q44 40 281 41l130 1q143 0 245 -10q44 -5 44 -44q0 -12 -6 -25q-12 -27 -36.5 -40.5t-47.5 -13.5l-353 5q-53 0 -130.5 -6t-98.5 -6z" />
    <glyph glyph-name="greaterequal" unicode="&#x2265;" horiz-adv-x="984" 
d="M208 813q25 0 301 -88l317 -99q58 -17 58 -95q0 -49 -57 -73l-219 -91q-371 -157 -408 -157q-24 0 -42 13q-28 20 -28 50q1 34 52 54l472 193q-98 32 -198 60q-165 47 -324 107q-32 13 -32 43q0 28 33.5 55.5t74.5 27.5zM153 0q-22 0 -37.5 12t-15.5 34q0 28 25 52
q44 40 281 41l130 1q143 0 245 -10q44 -5 44 -44q0 -12 -6 -25q-12 -27 -36.5 -40.5t-47.5 -13.5l-353 5q-53 0 -130.5 -6t-98.5 -6z" />
    <glyph glyph-name="uni00B9" unicode="&#xb9;" horiz-adv-x="459" 
d="M264 481q-19 0 -36 8q-26 15 -27 41q-6 219 -6 428l-50 -48q-30 -29 -61 -29q-18 0 -33 9q-25 15 -25 40q0 24 21 45q125 133 190 170q24 14 51 14q37 0 48.5 -25.5t13 -47.5t1.5 -82q0 -246 5 -449q0 -23 -19 -43q-29 -31 -73 -31z" />
    <glyph glyph-name="uni00B2" unicode="&#xb2;" horiz-adv-x="587" 
d="M197 484q-102 0 -102 73q0 50 100 180q47 59 84 123t38 135q0 50 -32 50q-41 0 -80 -103q-14 -39 -56 -39q-30 0 -50.5 18.5t-20.5 43.5q0 17 16 59q52 140 191 140q78 0 133.5 -50t55.5 -119q0 -97 -56.5 -195.5t-96.5 -144.5l-24 -27q31 6 98 32q60 23 74 23
q33 0 59 -26t26 -49q0 -25 -29 -40q-87 -43 -186 -65q-87 -19 -142 -19z" />
    <glyph glyph-name="uni00B3" unicode="&#xb3;" horiz-adv-x="549" 
d="M153 414q-39 0 -63.5 26.5t-24.5 47.5q0 42 49 50q77 12 133.5 51t56.5 103q0 55 -103 99q-28 12 -28 39q0 24 44 56q89 65 89 128q0 29 -24 29q-45 0 -86 -82q-18 -34 -56 -34q-29 0 -53.5 16.5t-24.5 41.5q0 16 10 38q18 41 58 81q60 60 152 60q72 0 125.5 -44.5
t53.5 -110.5q0 -59 -34.5 -104.5t-68.5 -69.5q104 -51 104 -154q0 -172 -214 -248q-52 -19 -95 -19z" />
    <glyph glyph-name="uni0237" unicode="&#x237;" horiz-adv-x="401" 
d="M-129 -1000q-84 0 -134 36.5t-71.5 97.5t-21.5 136q0 234 158 482q95 149 222 278q-4 376 -27 648q-5 58 -5 75q0 99 113 99q60 0 64 -52q25 -343 30 -589q37 54 72 120q98 185 131 326q9 41 55 41q44 0 44 -51q0 -13 -19 -73q-48 -153 -125 -298q-73 -137 -156 -228
q-1 -119 -6 -240q-36 -808 -324 -808zM-128 -859q78 0 116 234q32 199 35 490q-229 -304 -229 -595q0 -22 7 -52.5t23.5 -53.5t47.5 -23z" />
    <glyph glyph-name="uni02BB" unicode="&#x2bb;" horiz-adv-x="253" 
d="M188 1293q15 0 15 -15q0 -8 -6 -18q-55 -94 -55 -173q54 -14 54 -73q0 -37 -21.5 -61t-53.5 -24q-71 0 -71 105q0 98 50 178.5t88 80.5z" />
    <glyph glyph-name="uni02BC" unicode="&#x2bc;" horiz-adv-x="253" 
d="M65 929q-15 0 -15 14q0 9 6 19q55 94 55 173q-54 14 -54 72q0 38 21.5 62t53.5 24q71 0 71 -105q0 -98 -50 -178.5t-88 -80.5z" />
    <glyph glyph-name="uni02CA" unicode="&#x2ca;" horiz-adv-x="382" 
d="M95 906q-45 0 -45 39q0 27 181 193q19 18 40 18q16 0 38.5 -16t22.5 -36q0 -17 -19 -33l-175 -151q-17 -14 -43 -14z" />
    <glyph glyph-name="uni02CB" unicode="&#x2cb;" horiz-adv-x="406" 
d="M291 906q-35 0 -171 117l-54 48q-16 15 -16 32q0 28 29 51.5t59 23.5q20 0 36 -15q182 -169 182 -203q0 -15 -20 -34.5t-45 -19.5z" />
    <glyph glyph-name="uni02CD" unicode="&#x2cd;" horiz-adv-x="600" 
d="M87 -390q-16 0 -26.5 12t-10.5 34q0 28 17 52q31 40 194 41l90 1q98 0 169 -10q30 -5 30 -44q0 -12 -4 -25q-8 -27 -25 -40.5t-33 -13.5l-244 5q-36 0 -89.5 -6t-67.5 -6z" />
    <glyph glyph-name="uni02F7" unicode="&#x2f7;" horiz-adv-x="723" 
d="M465 -483q-52 0 -91.5 26t-64.5 53q-38 40 -56 40q-29 0 -69 -85q-8 -18 -28 -18q-22 0 -39 13.5t-17 29.5q0 24 30 87q39 84 113 84q60 0 129 -73q56 -58 86 -58q24 0 37 24q10 19 41 87q11 23 34 23q15 0 34 -16.5t19 -28.5q0 -21 -22 -73q-49 -115 -136 -115z" />
    <glyph glyph-name="gravecomb" unicode="&#x300;" horiz-adv-x="406" 
d="M291 906q-35 0 -172 117l-53 48q-16 15 -16 32q0 28 28.5 51.5t58.5 23.5q21 0 37 -15q182 -169 182 -203q0 -15 -20 -34.5t-45 -19.5z" />
    <glyph glyph-name="acutecomb" unicode="&#x301;" horiz-adv-x="382" 
d="M95 906q-45 0 -45 39q0 27 181 193q19 18 40 18q16 0 38.5 -16t22.5 -36q0 -17 -19 -33l-175 -151q-17 -14 -43 -14z" />
    <glyph glyph-name="uni0302" unicode="&#x302;" horiz-adv-x="577" 
d="M462 906q-37 0 -188 132l-136 -118q-17 -14 -43 -14q-45 0 -45 39q0 27 181 193q43 40 73 40q25 0 41 -15q182 -169 182 -203q0 -15 -20 -34.5t-45 -19.5z" />
    <glyph glyph-name="tildecomb" unicode="&#x303;" horiz-adv-x="623" 
d="M405 886q-52 0 -86.5 26t-59.5 53q-38 40 -56 40q-22 0 -32.5 -15t-36.5 -70q-8 -18 -28 -18q-22 0 -39 13.5t-17 29.5q0 24 30 87q39 84 123 84q33 0 62.5 -23t56.5 -50q56 -58 86 -58q24 0 37 24q10 19 41 87q11 23 34 23q15 0 34 -16.5t19 -28.5q0 -21 -22 -73
q-49 -115 -146 -115z" />
    <glyph glyph-name="uni0304" unicode="&#x304;" horiz-adv-x="550" 
d="M83 931q-14 0 -23.5 11t-9.5 30q0 26 16 47q27 36 174 37h98q77 0 135 -8q27 -4 27 -40q0 -10 -4 -22q-7 -24 -22.5 -36.5t-29.5 -12.5l-230 4q-30 0 -74 -5t-57 -5z" />
    <glyph glyph-name="uni0305" unicode="&#x305;" horiz-adv-x="825" 
d="M103 1849q-22 0 -37.5 12t-15.5 34q0 28 25 52q44 40 281 41l130 1q143 0 245 -10q44 -5 44 -44q0 -12 -6 -25q-12 -27 -36.5 -40.5t-47.5 -13.5l-353 5q-53 0 -130.5 -6t-98.5 -6z" />
    <glyph glyph-name="uni0306" unicode="&#x306;" horiz-adv-x="540" 
d="M270 886q-95 0 -159 74q-61 69 -61 117q0 42 48 42q23 0 35 -22q52 -96 137 -96t137 96q12 22 35 22q48 0 48 -42q0 -48 -61 -117q-64 -74 -159 -74z" />
    <glyph glyph-name="uni0307" unicode="&#x307;" horiz-adv-x="294" 
d="M137 934q-37 0 -62 32t-25 74q1 54 31 88t76 34q42 0 64.5 -32t22.5 -74q0 -52 -26.5 -87t-80.5 -35z" />
    <glyph glyph-name="uni0308" unicode="&#x308;" horiz-adv-x="559" 
d="M137 934q-37 0 -62 32t-25 74q1 54 31 88t76 34q42 0 64.5 -32t22.5 -74q0 -52 -26.5 -87t-80.5 -35zM402 934q-37 0 -62 32t-25 74q1 54 31 88t76 34q42 0 64.5 -32t22.5 -74q0 -52 -26.5 -87t-80.5 -35z" />
    <glyph glyph-name="uni0310" unicode="&#x310;" horiz-adv-x="540" 
d="M270 886q-95 0 -159 74q-61 69 -61 117q0 42 48 42q23 0 35 -22q52 -96 137 -96t137 96q12 22 35 22q48 0 48 -42q0 -48 -61 -117q-64 -74 -159 -74zM260 1119q-37 0 -62 32t-25 74q1 54 31.5 88t75.5 34q42 0 64.5 -32t22.5 -74q0 -53 -26 -87.5t-81 -34.5z" />
    <glyph glyph-name="uni0315" unicode="&#x315;" horiz-adv-x="253" 
d="M65 1496q-15 0 -15 15q0 8 6 18q55 94 55 173q-54 14 -54 73q0 37 21.5 61t53.5 24q71 0 71 -105q0 -98 -50 -178.5t-88 -80.5z" />
    <glyph glyph-name="dotbelowcomb" unicode="&#x323;" horiz-adv-x="294" 
d="M137 -478q-37 0 -62 32t-25 74q1 54 31 88t76 34q42 0 64.5 -32t22.5 -74q0 -53 -26.5 -87.5t-80.5 -34.5z" />
    <glyph glyph-name="uni0324" unicode="&#x324;" horiz-adv-x="559" 
d="M137 -478q-37 0 -62 32t-25 74q1 54 31 88t76 34q42 0 64.5 -32t22.5 -74q0 -53 -26.5 -87.5t-80.5 -34.5zM402 -478q-37 0 -62 32t-25 74q1 54 31 88t76 34q42 0 64.5 -32t22.5 -74q0 -53 -26.5 -87.5t-80.5 -34.5z" />
    <glyph glyph-name="uni0325" unicode="&#x325;" horiz-adv-x="435" 
d="M217 -585q-69 0 -118 49t-49 119q0 69 49 118t118 49q70 0 119 -49t49 -118q0 -70 -49 -119t-119 -49zM217 -489q30 0 51 21t21 51q0 29 -21 50t-51 21q-29 0 -50 -21t-21 -50q0 -30 21 -51t50 -21z" />
    <glyph glyph-name="uni0326" unicode="&#x326;" horiz-adv-x="253" 
d="M65 -614q-15 0 -15 15q0 8 6 18q55 94 55 173q-54 14 -54 73q0 37 21.5 61t53.5 24q71 0 71 -105q0 -98 -50 -178.5t-88 -80.5z" />
    <glyph glyph-name="Amacron" unicode="&#x100;" horiz-adv-x="1589" 
d="M365 -84q128 0 254 392q-135 -13 -212 -65q-133 -90 -133 -218q0 -109 91 -109zM1029 383q-31 319 -32 521q-1 183 -52 280q-15 -86 -48 -259q-62 -331 -100 -484q107 -12 232 -58zM321 -239q-79 0 -147 60.5t-68 180.5q0 212 222 355q133 85 332 91q45 163 85 363
q53 267 73 428q4 28 35.5 62.5t76 61.5t83.5 27q133 0 154 -394q9 -167 19 -396q23 -529 126 -529q41 0 82 60t77.5 149t64.5 180q39 127 53 197q8 41 62 41q38 0 38 -51q0 -29 -51 -210q-59 -208 -138 -345q-104 -179 -227 -179q-179 0 -229 336q-126 56 -283 64
q-154 -552 -440 -552zM747 1499q-14 0 -23.5 11t-9.5 30q0 26 16 47q27 36 174 37h98q77 0 135 -8q27 -4 27 -40q0 -10 -4 -22q-7 -24 -22.5 -36.5t-29.5 -12.5l-230 4q-30 0 -74 -5t-57 -5z" />
    <glyph glyph-name="amacron" unicode="&#x101;" horiz-adv-x="853" 
d="M179 130q49 0 95 65.5t86 158.5t69 174q0 22 -19 61.5t-56 73.5t-91 34q-55 0 -91 -50t-53 -124t-17 -149q0 -93 21 -165q23 -79 56 -79zM587 -77q-119 0 -153 181q-9 51 -13 115q-127 -245 -291 -245q-101 0 -152.5 106.5t-51.5 244.5q0 204 79.5 350.5t241.5 146.5
q110 0 173 -71q15 -18 28 -36q13 137 123 137q25 0 41 -15.5t16 -40.5q0 -17 -3 -46q-31 -338 -31 -513q0 -30 1 -57q3 -109 31 -109q48 0 124 211q61 177 103 375q8 41 61 41q39 0 39 -41q0 -31 -24 -126q-82 -333 -149 -461q-78 -147 -193 -147zM141 931q-14 0 -23.5 11
t-9.5 30q0 26 16 47q27 36 174 37h98q77 0 135 -8q27 -4 27 -40q0 -10 -4 -22q-7 -24 -22.5 -36.5t-29.5 -12.5l-230 4q-30 0 -74 -5t-57 -5z" />
    <glyph glyph-name="Abreve" unicode="&#x102;" horiz-adv-x="1589" 
d="M365 -84q128 0 254 392q-135 -13 -212 -65q-133 -90 -133 -218q0 -109 91 -109zM1029 383q-31 319 -32 521q-1 183 -52 280q-15 -86 -48 -259q-62 -331 -100 -484q107 -12 232 -58zM321 -239q-79 0 -147 60.5t-68 180.5q0 212 222 355q133 85 332 91q45 163 85 363
q53 267 73 428q4 28 35.5 62.5t76 61.5t83.5 27q133 0 154 -394q9 -167 19 -396q23 -529 126 -529q41 0 82 60t77.5 149t64.5 180q39 127 53 197q8 41 62 41q38 0 38 -51q0 -29 -51 -210q-59 -208 -138 -345q-104 -179 -227 -179q-179 0 -229 336q-126 56 -283 64
q-154 -552 -440 -552zM960 1454q-95 0 -159 74q-61 69 -61 117q0 42 48 42q23 0 35 -22q52 -96 137 -96t137 96q12 22 35 22q48 0 48 -42q0 -48 -61 -117q-64 -74 -159 -74z" />
    <glyph glyph-name="abreve" unicode="&#x103;" horiz-adv-x="853" 
d="M179 130q49 0 95 65.5t86 158.5t69 174q0 22 -19 61.5t-56 73.5t-91 34q-55 0 -91 -50t-53 -124t-17 -149q0 -93 21 -165q23 -79 56 -79zM587 -77q-119 0 -153 181q-9 51 -13 115q-127 -245 -291 -245q-101 0 -152.5 106.5t-51.5 244.5q0 204 79.5 350.5t241.5 146.5
q110 0 173 -71q15 -18 28 -36q13 137 123 137q25 0 41 -15.5t16 -40.5q0 -17 -3 -46q-31 -338 -31 -513q0 -30 1 -57q3 -109 31 -109q48 0 124 211q61 177 103 375q8 41 61 41q39 0 39 -41q0 -31 -24 -126q-82 -333 -149 -461q-78 -147 -193 -147zM326 886q-95 0 -159 74
q-61 69 -61 117q0 42 48 42q23 0 35 -22q52 -96 137 -96t137 96q12 22 35 22q48 0 48 -42q0 -48 -61 -117q-64 -74 -159 -74z" />
    <glyph glyph-name="Aogonek" unicode="&#x104;" horiz-adv-x="1589" 
d="M365 -84q128 0 254 392q-135 -13 -212 -65q-133 -90 -133 -218q0 -109 91 -109zM1029 383q-31 319 -32 521q-1 183 -52 280q-15 -86 -48 -259q-62 -331 -100 -484q107 -12 232 -58zM1249 -85q-158 21 -205 334q-126 56 -283 64q-154 -552 -440 -552q-79 0 -147 60.5
t-68 180.5q0 212 222 355q133 85 332 91q45 163 85 363q53 267 73 428q4 28 35.5 62.5t76 61.5t83.5 27q133 0 154 -394q9 -167 19 -396q23 -529 126 -529q41 0 82 60t77.5 149t64.5 180q39 127 53 197q8 41 62 41q38 0 38 -51q0 -29 -51 -210q-59 -208 -138 -345
q-71 -123 -152 -161q-12 -30 -30 -67q-52 -101 -52 -149q0 -52 85 -89q18 -8 18 -28q0 -22 -13.5 -39t-29.5 -17q-24 0 -87 30q-84 39 -84 123q0 83 65 174q16 24 29 46z" />
    <glyph glyph-name="aogonek" unicode="&#x105;" horiz-adv-x="853" 
d="M179 130q49 0 95 65.5t86 158.5t69 174q0 22 -19 61.5t-56 73.5t-91 34q-55 0 -91 -50t-53 -124t-17 -149q0 -93 21 -165q23 -79 56 -79zM546 -71q-84 27 -112 175q-9 51 -13 115q-127 -245 -291 -245q-101 0 -152.5 106.5t-51.5 244.5q0 204 79.5 350.5t241.5 146.5
q110 0 173 -71q15 -18 28 -36q13 137 123 137q25 0 41 -15.5t16 -40.5q0 -17 -3 -46q-31 -338 -31 -513q0 -30 1 -57q3 -109 31 -109q48 0 124 211q61 177 103 375q8 41 61 41q39 0 39 -41q0 -31 -24 -126q-82 -333 -149 -461q-60 -114 -143 -139q-12 -30 -30 -67
q-52 -101 -52 -149q0 -52 85 -89q18 -8 18 -28q0 -22 -13.5 -39t-29.5 -17q-24 0 -87 30q-84 39 -84 123q0 83 65 174q22 32 37 60z" />
    <glyph glyph-name="Cacute" unicode="&#x106;" horiz-adv-x="1134" 
d="M515 -172q-275 0 -418 225q-102 161 -102 450q0 172 18 282q39 245 156 411q137 193 357 193q137 0 234 -90t97 -229q0 -178 -139 -327q-31 -33 -66 -33q-31 0 -54.5 22t-23.5 42q0 23 23 50q81 95 81 206q0 89 -43.5 146.5t-126.5 57.5q-151 0 -237 -169
q-66 -130 -86 -316q-10 -88 -10 -217q0 -237 76 -379q92 -173 294 -173q301 0 499 404q59 125 90 273q8 41 62 41q38 0 38 -51q0 -19 -17 -81q-30 -116 -78 -218q-249 -520 -624 -520zM484 1474q-45 0 -45 39q0 27 181 193q19 18 40 18q16 0 38.5 -16t22.5 -36
q0 -17 -19 -33l-175 -151q-17 -14 -43 -14z" />
    <glyph glyph-name="cacute" unicode="&#x107;" horiz-adv-x="695" 
d="M247 -26q-102 0 -177.5 58.5t-109.5 142.5t-34 191q0 114 38 219.5t111.5 174.5t182.5 69q130 0 192 -114q47 -87 47 -185q0 -63 -98 -63q-36 0 -37 50q-3 85 -49 138q-25 30 -69 30q-84 0 -116 -137q-19 -79 -19 -170q0 -63 24 -126q19 -50 56 -87t92 -37q166 0 307 248
q76 133 107 281q8 41 61 41q39 0 39 -51q0 -22 -19 -88q-22 -77 -56 -148q-207 -437 -473 -437zM220 906q-45 0 -45 39q0 27 181 193q19 18 40 18q16 0 38.5 -16t22.5 -36q0 -17 -19 -33l-175 -151q-17 -14 -43 -14z" />
    <glyph glyph-name="Ccircumflex" unicode="&#x108;" horiz-adv-x="1134" 
d="M515 -172q-275 0 -418 225q-102 161 -102 450q0 172 18 282q39 245 156 411q137 193 357 193q137 0 234 -90t97 -229q0 -178 -139 -327q-31 -33 -66 -33q-31 0 -54.5 22t-23.5 42q0 23 23 50q81 95 81 206q0 89 -43.5 146.5t-126.5 57.5q-151 0 -237 -169
q-66 -130 -86 -316q-10 -88 -10 -217q0 -237 76 -379q92 -173 294 -173q301 0 499 404q59 125 90 273q8 41 62 41q38 0 38 -51q0 -19 -17 -81q-30 -116 -78 -218q-249 -520 -624 -520zM695 1474q-37 0 -188 132l-136 -118q-17 -14 -43 -14q-45 0 -45 39q0 27 181 193
q43 40 73 40q25 0 41 -15q182 -169 182 -203q0 -15 -20 -34.5t-45 -19.5z" />
    <glyph glyph-name="ccircumflex" unicode="&#x109;" horiz-adv-x="695" 
d="M247 -26q-102 0 -177.5 58.5t-109.5 142.5t-34 191q0 114 38 219.5t111.5 174.5t182.5 69q130 0 192 -114q47 -87 47 -185q0 -63 -98 -63q-36 0 -37 50q-3 85 -49 138q-25 30 -69 30q-84 0 -116 -137q-19 -79 -19 -170q0 -63 24 -126q19 -50 56 -87t92 -37q166 0 307 248
q76 133 107 281q8 41 61 41q39 0 39 -51q0 -22 -19 -88q-22 -77 -56 -148q-207 -437 -473 -437zM442 906q-37 0 -188 132l-136 -118q-17 -14 -43 -14q-45 0 -45 39q0 27 181 193q43 40 73 40q25 0 41 -15q182 -169 182 -203q0 -15 -20 -34.5t-45 -19.5z" />
    <glyph glyph-name="Cdotaccent" unicode="&#x10a;" horiz-adv-x="1134" 
d="M515 -172q-275 0 -418 225q-102 161 -102 450q0 172 18 282q39 245 156 411q137 193 357 193q137 0 234 -90t97 -229q0 -178 -139 -327q-31 -33 -66 -33q-31 0 -54.5 22t-23.5 42q0 23 23 50q81 95 81 206q0 89 -43.5 146.5t-126.5 57.5q-151 0 -237 -169
q-66 -130 -86 -316q-10 -88 -10 -217q0 -237 76 -379q92 -173 294 -173q301 0 499 404q59 125 90 273q8 41 62 41q38 0 38 -51q0 -19 -17 -81q-30 -116 -78 -218q-249 -520 -624 -520zM519 1502q-37 0 -62 32t-25 74q1 54 31 88t76 34q42 0 64.5 -32t22.5 -74
q0 -52 -26.5 -87t-80.5 -35z" />
    <glyph glyph-name="cdotaccent" unicode="&#x10b;" horiz-adv-x="695" 
d="M247 -26q-102 0 -177.5 58.5t-109.5 142.5t-34 191q0 114 38 219.5t111.5 174.5t182.5 69q130 0 192 -114q47 -87 47 -185q0 -63 -98 -63q-36 0 -37 50q-3 85 -49 138q-25 30 -69 30q-84 0 -116 -137q-19 -79 -19 -170q0 -63 24 -126q19 -50 56 -87t92 -37q166 0 307 248
q76 133 107 281q8 41 61 41q39 0 39 -51q0 -22 -19 -88q-22 -77 -56 -148q-207 -437 -473 -437zM267 934q-37 0 -62 32t-25 74q1 54 31 88t76 34q42 0 64.5 -32t22.5 -74q0 -52 -26.5 -87t-80.5 -35z" />
    <glyph glyph-name="Ccaron" unicode="&#x10c;" horiz-adv-x="1134" 
d="M515 -172q-275 0 -418 225q-102 161 -102 450q0 172 18 282q39 245 156 411q137 193 357 193q137 0 234 -90t97 -229q0 -178 -139 -327q-31 -33 -66 -33q-31 0 -54.5 22t-23.5 42q0 23 23 50q81 95 81 206q0 89 -43.5 146.5t-126.5 57.5q-151 0 -237 -169
q-66 -130 -86 -316q-10 -88 -10 -217q0 -237 76 -379q92 -173 294 -173q301 0 499 404q59 125 90 273q8 41 62 41q38 0 38 -51q0 -19 -17 -81q-30 -116 -78 -218q-249 -520 -624 -520zM348 1746q37 0 188 -132l136 118q17 14 43 14q45 0 45 -39q0 -27 -181 -193
q-43 -40 -73 -40q-25 0 -41 15q-182 169 -182 203q0 15 20 34.5t45 19.5z" />
    <glyph glyph-name="ccaron" unicode="&#x10d;" horiz-adv-x="695" 
d="M247 -26q-102 0 -177.5 58.5t-109.5 142.5t-34 191q0 114 38 219.5t111.5 174.5t182.5 69q130 0 192 -114q47 -87 47 -185q0 -63 -98 -63q-36 0 -37 50q-3 85 -49 138q-25 30 -69 30q-84 0 -116 -137q-19 -79 -19 -170q0 -63 24 -126q19 -50 56 -87t92 -37q166 0 307 248
q76 133 107 281q8 41 61 41q39 0 39 -51q0 -22 -19 -88q-22 -77 -56 -148q-207 -437 -473 -437zM101 1178q37 0 188 -132l136 118q17 14 43 14q45 0 45 -39q0 -27 -181 -193q-43 -40 -73 -40q-25 0 -41 15q-182 169 -182 203q0 15 20 34.5t45 19.5z" />
    <glyph glyph-name="Dcaron" unicode="&#x10e;" horiz-adv-x="1561" 
d="M220 28q125 0 125 486q0 229 -26 520q-99 -120 -155 -302q-60 -198 -60 -390q0 -161 40 -250q29 -64 76 -64zM735 -177q-84 0 -164 31t-112 78q-12 17 -12 38t21 45t47 24q17 0 32 -11q83 -59 195 -59q93 0 166.5 67t121.5 175q76 172 76 379q0 202 -79 357
q-55 108 -154 174.5t-246 66.5q-70 0 -132 -23q35 -295 35 -550q0 -293 -57 -481q-76 -254 -266 -254q-100 0 -160 78t-77 178.5t-17 181.5q0 210 76 429q52 152 140 280q59 87 135 151q-15 107 -15 126q0 38 33 67q38 32 77 32q26 0 44 -12t35 -107q89 34 189 34
q188 0 316 -77q132 -79 206 -211.5t88.5 -247t14.5 -182.5q0 -261 -116 -477q-33 -62 -74 -113q91 35 164.5 97.5t125.5 136.5q119 178 169 413q8 41 62 41q38 0 38 -51q0 -19 -17 -81q-58 -227 -186 -402q-257 -341 -723 -341zM577 1746q37 0 188 -132l136 118q17 14 43 14
q45 0 45 -39q0 -27 -181 -193q-43 -40 -73 -40q-25 0 -41 15q-182 169 -182 203q0 15 20 34.5t45 19.5z" />
    <glyph glyph-name="dcaron" unicode="&#x10f;" horiz-adv-x="1276" 
d="M179 130q49 0 95 65.5t86 158.5t69 174q0 22 -19 61.5t-56 73.5t-91 34q-55 0 -91 -50t-53 -124t-17 -149q0 -93 21 -165q23 -79 56 -79zM707 -77q-141 0 -206 211q-24 77 -39 172q-141 -332 -332 -332q-101 0 -152.5 106.5t-51.5 244.5q0 204 79.5 350.5t241.5 146.5
q110 0 190 -92q0 310 34 547q51 353 198 502q79 81 179 81q187 0 187 -250q0 -248 -155 -527q-153 -275 -264 -379q3 -204 16 -339q28 -294 114 -294q41 0 82 60t77.5 149t64.5 180q39 127 53 197q8 41 61 41q39 0 39 -51q0 -30 -50 -210q-59 -208 -140 -344
q-102 -170 -226 -170zM614 860q68 97 148 267q123 262 123 483q0 109 -47 109q-38 0 -84 -69.5t-74 -176.5t-42.5 -223t-19 -215t-4.5 -147v-28zM1088 1496q-15 0 -15 15q0 8 6 18q55 94 55 173q-54 14 -54 73q0 37 21.5 61t53.5 24q71 0 71 -105q0 -98 -50 -178.5
t-88 -80.5z" />
    <glyph glyph-name="Dcroat" unicode="&#x110;" horiz-adv-x="1561" 
d="M529 551q-5 -250 -56 -417q-76 -254 -266 -254q-100 0 -160 78t-77 178.5t-17 181.5q0 210 76 429q52 152 140 280q59 87 135 151q-15 107 -15 126q0 38 33 67q38 32 77 32q26 0 44 -12t35 -107q89 34 189 34q188 0 316 -77q132 -79 206 -211.5t88.5 -247t14.5 -182.5
q0 -261 -116 -477q-33 -62 -74 -113q91 35 164.5 97.5t125.5 136.5q119 178 169 413q8 41 62 41q38 0 38 -51q0 -19 -17 -81q-58 -227 -186 -402q-257 -341 -723 -341q-84 0 -164 31t-112 78q-12 17 -12 38t21 45t47 24q17 0 32 -11q83 -59 195 -59q93 0 166.5 67t121.5 175
q76 172 76 379q0 202 -79 357q-55 108 -154 174.5t-246 66.5q-70 0 -132 -23q32 -268 35 -502q76 -2 133 -9q31 -4 31 -37q0 -11 -4 -22q-9 -23 -26 -34.5t-33 -11.5zM345 553q-23 -2 -51 -4q-54 -6 -69 -6t-26 10.5t-11 28.5q0 24 17 45q25 27 138 33q-6 172 -24 374
q-99 -120 -155 -302q-60 -198 -60 -390q0 -161 40 -250q29 -64 76 -64q125 0 125 486v39z" />
    <glyph glyph-name="dcroat" unicode="&#x111;" horiz-adv-x="1023" 
d="M179 130q49 0 95 65.5t86 158.5t69 174q0 22 -19 61.5t-56 73.5t-91 34q-55 0 -91 -50t-53 -124t-17 -149q0 -93 21 -165q23 -79 56 -79zM707 -77q-141 0 -206 211q-24 77 -39 172q-141 -332 -332 -332q-101 0 -152.5 106.5t-51.5 244.5q0 204 79.5 350.5t241.5 146.5
q110 0 190 -92q0 250 22 450q-29 -1 -66 -5q-54 -6 -68 -6q-16 0 -26.5 12t-10.5 34q0 28 17 52q29 37 171 41q52 329 193 471q79 81 179 81q187 0 187 -250q0 -248 -155 -527q-153 -275 -264 -379q3 -204 16 -339q28 -294 114 -294q41 0 82 60t77.5 149t64.5 180
q39 127 53 197q8 41 61 41q39 0 39 -51q0 -30 -50 -210q-59 -208 -140 -344q-102 -170 -226 -170zM614 860q68 97 148 267q123 262 123 483q0 109 -47 109q-38 0 -84 -69q-72 -109 -108 -342q62 -2 112 -10q30 -4 30 -43q0 -12 -4 -25q-8 -27 -25 -40.5t-33 -13.5l-97 2
q-15 -149 -15 -290v-28z" />
    <glyph glyph-name="Emacron" unicode="&#x112;" horiz-adv-x="858" 
d="M217 -175q-119 0 -206 55q-126 80 -126 237q0 98 54 192q73 127 201 233q-235 138 -235 404q0 185 86 299q109 145 300 145q131 0 208 -89t77 -214q0 -31 -9 -83q-23 -136 -101 -136q-52 0 -52 54q0 10 3 21q12 47 12 92q0 98 -51 156q-39 44 -112 44q-77 0 -121 -43
q-59 -58 -59 -205q0 -231 221 -333q72 -34 72 -71q0 -19 -15 -39q-19 -25 -70 -61q-57 -41 -120 -104q-21 -21 -39 -45q-68 -93 -68 -182q0 -59 35 -104q52 -67 151 -67q256 0 436 264q120 177 169 412q9 41 53 41q47 0 47 -51q0 -19 -16 -81q-41 -159 -112 -294
q-234 -446 -613 -447zM107 1499q-14 0 -23.5 11t-9.5 30q0 26 16 47q27 36 174 37h98q77 0 135 -8q27 -4 27 -40q0 -10 -4 -22q-7 -24 -22.5 -36.5t-29.5 -12.5l-230 4q-30 0 -74 -5t-57 -5z" />
    <glyph glyph-name="emacron" unicode="&#x113;" horiz-adv-x="681" 
d="M167 400q63 0 101 21q82 46 82 145q0 47 -26.5 83t-67.5 36q-51 0 -84.5 -46t-51.5 -109.5t-22 -120.5q28 -9 69 -9zM233 -26q-146 0 -242 122q-79 100 -79 263q0 171 80 305q98 165 277 165q101 0 162 -75q56 -68 56 -167q0 -79 -40.5 -152.5t-111 -105.5t-146.5 -32
q-40 0 -86 7q12 -60 45 -107q49 -69 119 -69q166 0 307 248q76 133 107 281q8 41 61 41q39 0 39 -51q0 -22 -19 -88q-22 -77 -56 -148q-207 -437 -473 -437zM95 931q-14 0 -23.5 11t-9.5 30q0 26 16 47q27 36 174 37h98q77 0 135 -8q27 -4 27 -40q0 -10 -4 -22
q-7 -24 -22.5 -36.5t-29.5 -12.5l-230 4q-30 0 -74 -5t-57 -5z" />
    <glyph glyph-name="Ebreve" unicode="&#x114;" horiz-adv-x="858" 
d="M217 -175q-119 0 -206 55q-126 80 -126 237q0 98 54 192q73 127 201 233q-235 138 -235 404q0 185 86 299q109 145 300 145q131 0 208 -89t77 -214q0 -31 -9 -83q-23 -136 -101 -136q-52 0 -52 54q0 10 3 21q12 47 12 92q0 98 -51 156q-39 44 -112 44q-77 0 -121 -43
q-59 -58 -59 -205q0 -231 221 -333q72 -34 72 -71q0 -19 -15 -39q-19 -25 -70 -61q-57 -41 -120 -104q-21 -21 -39 -45q-68 -93 -68 -182q0 -59 35 -104q52 -67 151 -67q256 0 436 264q120 177 169 412q9 41 53 41q47 0 47 -51q0 -19 -16 -81q-41 -159 -112 -294
q-234 -446 -613 -447zM275 1454q-95 0 -159 74q-61 69 -61 117q0 42 48 42q23 0 35 -22q52 -96 137 -96t137 96q12 22 35 22q48 0 48 -42q0 -48 -61 -117q-64 -74 -159 -74z" />
    <glyph glyph-name="ebreve" unicode="&#x115;" horiz-adv-x="681" 
d="M167 400q63 0 101 21q82 46 82 145q0 47 -26.5 83t-67.5 36q-51 0 -84.5 -46t-51.5 -109.5t-22 -120.5q28 -9 69 -9zM233 -26q-146 0 -242 122q-79 100 -79 263q0 171 80 305q98 165 277 165q101 0 162 -75q56 -68 56 -167q0 -79 -40.5 -152.5t-111 -105.5t-146.5 -32
q-40 0 -86 7q12 -60 45 -107q49 -69 119 -69q166 0 307 248q76 133 107 281q8 41 61 41q39 0 39 -51q0 -22 -19 -88q-22 -77 -56 -148q-207 -437 -473 -437zM260 886q-95 0 -159 74q-61 69 -61 117q0 42 48 42q23 0 35 -22q52 -96 137 -96t137 96q12 22 35 22q48 0 48 -42
q0 -48 -61 -117q-64 -74 -159 -74z" />
    <glyph glyph-name="Edotaccent" unicode="&#x116;" horiz-adv-x="858" 
d="M217 -175q-119 0 -206 55q-126 80 -126 237q0 98 54 192q73 127 201 233q-235 138 -235 404q0 185 86 299q109 145 300 145q131 0 208 -89t77 -214q0 -31 -9 -83q-23 -136 -101 -136q-52 0 -52 54q0 10 3 21q12 47 12 92q0 98 -51 156q-39 44 -112 44q-77 0 -121 -43
q-59 -58 -59 -205q0 -231 221 -333q72 -34 72 -71q0 -19 -15 -39q-19 -25 -70 -61q-57 -41 -120 -104q-21 -21 -39 -45q-68 -93 -68 -182q0 -59 35 -104q52 -67 151 -67q256 0 436 264q120 177 169 412q9 41 53 41q47 0 47 -51q0 -19 -16 -81q-41 -159 -112 -294
q-234 -446 -613 -447zM273 1502q-37 0 -62 32t-25 74q1 54 31 88t76 34q42 0 64.5 -32t22.5 -74q0 -52 -26.5 -87t-80.5 -35z" />
    <glyph glyph-name="edotaccent" unicode="&#x117;" horiz-adv-x="681" 
d="M167 400q63 0 101 21q82 46 82 145q0 47 -26.5 83t-67.5 36q-51 0 -84.5 -46t-51.5 -109.5t-22 -120.5q28 -9 69 -9zM233 -26q-146 0 -242 122q-79 100 -79 263q0 171 80 305q98 165 277 165q101 0 162 -75q56 -68 56 -167q0 -79 -40.5 -152.5t-111 -105.5t-146.5 -32
q-40 0 -86 7q12 -60 45 -107q49 -69 119 -69q166 0 307 248q76 133 107 281q8 41 61 41q39 0 39 -51q0 -22 -19 -88q-22 -77 -56 -148q-207 -437 -473 -437zM276 934q-37 0 -62 32t-25 74q1 54 31 88t76 34q42 0 64.5 -32t22.5 -74q0 -52 -26.5 -87t-80.5 -35z" />
    <glyph glyph-name="Eogonek" unicode="&#x118;" horiz-adv-x="861" 
d="M217 -175q-117 1 -203 55q-126 80 -126 237q0 98 54 192q73 127 201 233q-235 138 -235 404q0 185 86 299q109 145 300 145q131 0 208 -89t77 -214q0 -31 -9 -83q-23 -136 -101 -136q-52 0 -52 54q0 10 3 21q12 47 12 92q0 98 -51 156q-39 44 -112 44q-77 0 -121 -43
q-59 -58 -59 -205q0 -231 221 -333q72 -34 72 -71q0 -19 -15 -39q-19 -25 -70 -61q-57 -41 -120 -104q-21 -21 -39 -45q-68 -93 -68 -182q0 -59 35 -104q52 -67 151 -67q256 0 436 264q120 177 169 412q9 41 53 41q47 0 47 -51q0 -19 -16 -81q-41 -159 -112 -294
q-206 -392 -523 -440q-13 -34 -36 -80q-52 -101 -52 -149q0 -52 85 -89q18 -8 18 -28q0 -22 -13.5 -39t-29.5 -17q-24 0 -87 30q-84 39 -84 123q0 83 65 174q25 36 41 68z" />
    <glyph glyph-name="eogonek" unicode="&#x119;" horiz-adv-x="691" 
d="M177 400q63 0 101 21q82 46 82 145q0 47 -26.5 83t-67.5 36q-51 0 -84.5 -46t-51.5 -109.5t-22 -120.5q28 -9 69 -9zM334 -13q-44 -13 -91 -13q-146 0 -242 122q-79 100 -79 263q0 171 80 305q98 165 277 165q101 0 162 -75q56 -68 56 -167q0 -79 -40.5 -152.5
t-111 -105.5t-146.5 -32q-40 0 -86 7q12 -60 45 -107q49 -69 119 -69q166 0 307 248q76 133 107 281q8 41 61 41q39 0 39 -51q0 -22 -19 -88q-22 -77 -56 -148q-125 -263 -271 -368q-10 -43 -46 -114q-52 -101 -52 -149q0 -52 85 -89q18 -8 18 -28q0 -22 -13.5 -39
t-29.5 -17q-24 0 -87 30q-84 39 -84 123q0 83 65 174q19 28 33 53z" />
    <glyph glyph-name="Ecaron" unicode="&#x11a;" horiz-adv-x="858" 
d="M217 -175q-119 0 -206 55q-126 80 -126 237q0 98 54 192q73 127 201 233q-235 138 -235 404q0 185 86 299q109 145 300 145q131 0 208 -89t77 -214q0 -31 -9 -83q-23 -136 -101 -136q-52 0 -52 54q0 10 3 21q12 47 12 92q0 98 -51 156q-39 44 -112 44q-77 0 -121 -43
q-59 -58 -59 -205q0 -231 221 -333q72 -34 72 -71q0 -19 -15 -39q-19 -25 -70 -61q-57 -41 -120 -104q-21 -21 -39 -45q-68 -93 -68 -182q0 -59 35 -104q52 -67 151 -67q256 0 436 264q120 177 169 412q9 41 53 41q47 0 47 -51q0 -19 -16 -81q-41 -159 -112 -294
q-234 -446 -613 -447zM117 1746q37 0 188 -132l136 118q17 14 43 14q45 0 45 -39q0 -27 -181 -193q-43 -40 -73 -40q-25 0 -41 15q-182 169 -182 203q0 15 20 34.5t45 19.5z" />
    <glyph glyph-name="ecaron" unicode="&#x11b;" horiz-adv-x="681" 
d="M167 400q63 0 101 21q82 46 82 145q0 47 -26.5 83t-67.5 36q-51 0 -84.5 -46t-51.5 -109.5t-22 -120.5q28 -9 69 -9zM233 -26q-146 0 -242 122q-79 100 -79 263q0 171 80 305q98 165 277 165q101 0 162 -75q56 -68 56 -167q0 -79 -40.5 -152.5t-111 -105.5t-146.5 -32
q-40 0 -86 7q12 -60 45 -107q49 -69 119 -69q166 0 307 248q76 133 107 281q8 41 61 41q39 0 39 -51q0 -22 -19 -88q-22 -77 -56 -148q-207 -437 -473 -437zM109 1178q37 0 188 -132l136 118q17 14 43 14q45 0 45 -39q0 -27 -181 -193q-43 -40 -73 -40q-25 0 -41 15
q-182 169 -182 203q0 15 20 34.5t45 19.5z" />
    <glyph glyph-name="Gcircumflex" unicode="&#x11c;" horiz-adv-x="1141" 
d="M510 -859q123 0 187 247q60 234 67 552v27q-182 -185 -276 -419q-56 -141 -56 -278q0 -23 7 -53t24 -53t47 -23zM750 279q-55 -136 -143 -235.5t-232 -99.5q-152 0 -234.5 90t-113.5 229.5t-31 295.5q0 239 73 444q84 234 251 334q88 53 206 53q137 0 234 -90t97 -228
q0 -176 -139 -327q-31 -34 -65 -34q-32 0 -55 19.5t-23 45.5q0 23 22 49q82 97 82 210q0 85 -44 142.5t-126 57.5q-158 0 -242 -176q-92 -192 -92 -504q0 -181 44 -304q55 -157 175 -157q116 0 191 120q52 84 115 276q37 117 115 117q121 0 123 -361q64 64 107 147
q67 125 96 264q8 41 54 41t46 -51q0 -18 -17 -79q-83 -300 -283 -455v-37q0 -776 -242 -1004q-77 -72 -189 -72q-84 0 -134 36.5t-72 97.5t-22 136q0 228 158 468q130 197 323 362q-1 59 -13 179zM695 1474q-37 0 -188 132l-136 -118q-17 -14 -43 -14q-45 0 -45 39
q0 27 181 193q43 40 73 40q25 0 41 -15q182 -169 182 -203q0 -15 -20 -34.5t-45 -19.5z" />
    <glyph glyph-name="gcircumflex" unicode="&#x11d;" horiz-adv-x="824" 
d="M179 130q49 0 95 65.5t86 158.5t69 174q0 22 -19 61.5t-56 73.5t-91 34q-55 0 -91 -50t-53 -124t-17 -149q0 -93 21 -165q23 -79 56 -79zM193 -1000q-84 0 -134 36.5t-72 97.5t-22 136q0 228 158 468q130 197 323 362q-1 81 -4 161q-134 -287 -312 -287
q-101 0 -152.5 106.5t-51.5 244.5q0 204 79.5 350.5t241.5 146.5q106 0 168 -67q1 30 22 55q37 42 91 42q60 0 64 -52q23 -319 29 -554q64 64 107 147q67 125 96 264q8 41 54 41t46 -51q0 -18 -17 -79q-83 -300 -283 -455v-37q0 -776 -242 -1004q-77 -72 -189 -72zM193 -859
q123 0 187 247q60 234 67 552v27q-182 -185 -276 -419q-56 -141 -56 -278q0 -23 7 -53t24 -53t47 -23zM438 906q-37 0 -188 132l-136 -118q-17 -14 -43 -14q-45 0 -45 39q0 27 181 193q43 40 73 40q25 0 41 -15q182 -169 182 -203q0 -15 -20 -34.5t-45 -19.5z" />
    <glyph glyph-name="Gbreve" unicode="&#x11e;" horiz-adv-x="1141" 
d="M510 -859q123 0 187 247q60 234 67 552v27q-182 -185 -276 -419q-56 -141 -56 -278q0 -23 7 -53t24 -53t47 -23zM750 279q-55 -136 -143 -235.5t-232 -99.5q-152 0 -234.5 90t-113.5 229.5t-31 295.5q0 239 73 444q84 234 251 334q88 53 206 53q137 0 234 -90t97 -228
q0 -176 -139 -327q-31 -34 -65 -34q-32 0 -55 19.5t-23 45.5q0 23 22 49q82 97 82 210q0 85 -44 142.5t-126 57.5q-158 0 -242 -176q-92 -192 -92 -504q0 -181 44 -304q55 -157 175 -157q116 0 191 120q52 84 115 276q37 117 115 117q121 0 123 -361q64 64 107 147
q67 125 96 264q8 41 54 41t46 -51q0 -18 -17 -79q-83 -300 -283 -455v-37q0 -776 -242 -1004q-77 -72 -189 -72q-84 0 -134 36.5t-72 97.5t-22 136q0 228 158 468q130 197 323 362q-1 59 -13 179zM489 1454q-95 0 -159 74q-61 69 -61 117q0 42 48 42q23 0 35 -22
q52 -96 137 -96t137 96q12 22 35 22q48 0 48 -42q0 -48 -61 -117q-64 -74 -159 -74z" />
    <glyph glyph-name="gbreve" unicode="&#x11f;" horiz-adv-x="824" 
d="M179 130q49 0 95 65.5t86 158.5t69 174q0 22 -19 61.5t-56 73.5t-91 34q-55 0 -91 -50t-53 -124t-17 -149q0 -93 21 -165q23 -79 56 -79zM193 -1000q-84 0 -134 36.5t-72 97.5t-22 136q0 228 158 468q130 197 323 362q-1 81 -4 161q-134 -287 -312 -287
q-101 0 -152.5 106.5t-51.5 244.5q0 204 79.5 350.5t241.5 146.5q106 0 168 -67q1 30 22 55q37 42 91 42q60 0 64 -52q23 -319 29 -554q64 64 107 147q67 125 96 264q8 41 54 41t46 -51q0 -18 -17 -79q-83 -300 -283 -455v-37q0 -776 -242 -1004q-77 -72 -189 -72zM193 -859
q123 0 187 247q60 234 67 552v27q-182 -185 -276 -419q-56 -141 -56 -278q0 -23 7 -53t24 -53t47 -23zM286 886q-95 0 -159 74q-61 69 -61 117q0 42 48 42q23 0 35 -22q52 -96 137 -96t137 96q12 22 35 22q48 0 48 -42q0 -48 -61 -117q-64 -74 -159 -74z" />
    <glyph glyph-name="Gdotaccent" unicode="&#x120;" horiz-adv-x="1141" 
d="M510 -859q123 0 187 247q60 234 67 552v27q-182 -185 -276 -419q-56 -141 -56 -278q0 -23 7 -53t24 -53t47 -23zM750 279q-55 -136 -143 -235.5t-232 -99.5q-152 0 -234.5 90t-113.5 229.5t-31 295.5q0 239 73 444q84 234 251 334q88 53 206 53q137 0 234 -90t97 -228
q0 -176 -139 -327q-31 -34 -65 -34q-32 0 -55 19.5t-23 45.5q0 23 22 49q82 97 82 210q0 85 -44 142.5t-126 57.5q-158 0 -242 -176q-92 -192 -92 -504q0 -181 44 -304q55 -157 175 -157q116 0 191 120q52 84 115 276q37 117 115 117q121 0 123 -361q64 64 107 147
q67 125 96 264q8 41 54 41t46 -51q0 -18 -17 -79q-83 -300 -283 -455v-37q0 -776 -242 -1004q-77 -72 -189 -72q-84 0 -134 36.5t-72 97.5t-22 136q0 228 158 468q130 197 323 362q-1 59 -13 179zM503 1502q-37 0 -62 32t-25 74q1 54 31 88t76 34q42 0 64.5 -32t22.5 -74
q0 -52 -26.5 -87t-80.5 -35z" />
    <glyph glyph-name="gdotaccent" unicode="&#x121;" horiz-adv-x="824" 
d="M179 130q49 0 95 65.5t86 158.5t69 174q0 22 -19 61.5t-56 73.5t-91 34q-55 0 -91 -50t-53 -124t-17 -149q0 -93 21 -165q23 -79 56 -79zM193 -1000q-84 0 -134 36.5t-72 97.5t-22 136q0 228 158 468q130 197 323 362q-1 81 -4 161q-134 -287 -312 -287
q-101 0 -152.5 106.5t-51.5 244.5q0 204 79.5 350.5t241.5 146.5q106 0 168 -67q1 30 22 55q37 42 91 42q60 0 64 -52q23 -319 29 -554q64 64 107 147q67 125 96 264q8 41 54 41t46 -51q0 -18 -17 -79q-83 -300 -283 -455v-37q0 -776 -242 -1004q-77 -72 -189 -72zM193 -859
q123 0 187 247q60 234 67 552v27q-182 -185 -276 -419q-56 -141 -56 -278q0 -23 7 -53t24 -53t47 -23zM265 934q-37 0 -62 32t-25 74q1 54 31 88t76 34q42 0 64.5 -32t22.5 -74q0 -52 -26.5 -87t-80.5 -35z" />
    <glyph glyph-name="uni0122" unicode="&#x122;" horiz-adv-x="1141" 
d="M510 -859q123 0 187 247q60 234 67 552v27q-182 -185 -276 -419q-56 -141 -56 -278q0 -23 7 -53t24 -53t47 -23zM750 279q-55 -136 -143 -235.5t-232 -99.5q-152 0 -234.5 90t-113.5 229.5t-31 295.5q0 239 73 444q84 234 251 334q88 53 206 53q137 0 234 -90t97 -228
q0 -176 -139 -327q-31 -34 -65 -34q-32 0 -55 19.5t-23 45.5q0 23 22 49q82 97 82 210q0 85 -44 142.5t-126 57.5q-158 0 -242 -176q-92 -192 -92 -504q0 -181 44 -304q55 -157 175 -157q116 0 191 120q52 84 115 276q37 117 115 117q121 0 123 -361q64 64 107 147
q67 125 96 264q8 41 54 41t46 -51q0 -18 -17 -79q-83 -300 -283 -455v-37q0 -776 -242 -1004q-77 -72 -189 -72q-84 0 -134 36.5t-72 97.5t-22 136q0 228 158 468q130 197 323 362q-1 59 -13 179zM458 -1389q-15 0 -15 15q0 8 6 18q55 94 55 173q-54 14 -54 73q0 37 21.5 61
t53.5 24q71 0 71 -105q0 -98 -50 -178.5t-88 -80.5z" />
    <glyph glyph-name="uni0123" unicode="&#x123;" horiz-adv-x="824" 
d="M179 130q49 0 95 65.5t86 158.5t69 174q0 22 -19 61.5t-56 73.5t-91 34q-55 0 -91 -50t-53 -124t-17 -149q0 -93 21 -165q23 -79 56 -79zM193 -1000q-84 0 -134 36.5t-72 97.5t-22 136q0 228 158 468q130 197 323 362q-1 81 -4 161q-134 -287 -312 -287
q-101 0 -152.5 106.5t-51.5 244.5q0 204 79.5 350.5t241.5 146.5q106 0 168 -67q1 30 22 55q37 42 91 42q60 0 64 -52q23 -319 29 -554q64 64 107 147q67 125 96 264q8 41 54 41t46 -51q0 -18 -17 -79q-83 -300 -283 -455v-37q0 -776 -242 -1004q-77 -72 -189 -72zM193 -859
q123 0 187 247q60 234 67 552v27q-182 -185 -276 -419q-56 -141 -56 -278q0 -23 7 -53t24 -53t47 -23zM336 1293q15 0 15 -15q0 -8 -6 -18q-55 -94 -55 -173q54 -14 54 -73q0 -37 -21.5 -61t-53.5 -24q-71 0 -71 105q0 98 50 178.5t88 80.5z" />
    <glyph glyph-name="Hcircumflex" unicode="&#x124;" horiz-adv-x="1387" 
d="M182 671q0 29 -2.5 92.5t-10.5 141.5t-24 150.5t-44 120.5t-72 48q-85 0 -85 -136q0 -42 16 -114t73 -161.5t149 -141.5zM774 481q-96 -15 -197 -15q-108 0 -217 17q-9 -294 -31 -579l-4 -61q-4 -81 -67 -81q-55 0 -92 43q-22 26 -22 56q0 26 5 80q22 231 32 595
q-129 57 -215.5 156t-128.5 213q-39 106 -39 203q0 118 51.5 184.5t149.5 66.5q105 0 173 -52q124 -96 166 -323q26 -142 26 -331l-1 -47q96 -19 195 -19q106 0 216 18q0 388 30 694q10 91 133 91q46 0 46 -59q0 -22 -3 -52q-26 -316 -26 -590q0 -132 8 -250
q21 -438 108 -438q115 0 264 459q39 127 53 197q8 41 62 41q38 0 38 -51q0 -29 -50 -210q-167 -584 -406 -584q-233 0 -257 628zM697 1474q-37 0 -188 132l-136 -118q-17 -14 -43 -14q-45 0 -45 39q0 27 181 193q43 40 73 40q25 0 41 -15q182 -169 182 -203q0 -15 -20 -34.5
t-45 -19.5z" />
    <glyph glyph-name="hcircumflex" unicode="&#x125;" horiz-adv-x="977" 
d="M712 -77q-89 0 -131.5 60.5t-42.5 197.5q0 73 2 155t2 192q0 145 -71 145q-101 0 -182 -282q-33 -115 -54 -209q-31 -141 -50 -165q-36 -42 -90 -42q-61 0 -65 52q-32 446 -32 724q0 809 243 1037q76 72 188 72q218 0 218 -270q0 -249 -147 -495q-124 -209 -323 -392
q2 -154 10 -307q121 426 333 426q97 0 150.5 -72.5t53.5 -191.5q0 -125 -4 -226t-4 -197q0 -64 35 -64q49 0 124 211q62 176 102 375q8 41 55 41q45 0 45 -51q0 -17 -21 -105q-80 -335 -152 -472q-78 -147 -192 -147zM175 845q182 196 276 449q56 150 56 296q0 129 -78 129
q-123 0 -186 -246q-61 -235 -68 -585v-43zM544 1917q-37 0 -188 132l-136 -118q-17 -14 -43 -14q-45 0 -45 39q0 27 181 193q43 40 73 40q25 0 41 -15q182 -169 182 -203q0 -15 -20 -34.5t-45 -19.5z" />
    <glyph glyph-name="Hbar" unicode="&#x126;" horiz-adv-x="1387" 
d="M346 937q18 -125 18 -284l-1 -47q96 -19 195 -19q106 0 216 18q0 174 6 331l-334 3q-44 0 -100 -2zM959 936q-5 -128 -5 -247q0 -132 8 -250q21 -438 108 -438q115 0 264 459q39 127 53 197q8 41 62 41q38 0 38 -51q0 -29 -50 -210q-167 -584 -406 -584q-233 0 -257 628
q-96 -15 -197 -15q-108 0 -217 17q-9 -294 -31 -579l-4 -61q-4 -81 -67 -81q-55 0 -92 43q-22 26 -22 56q0 26 5 80q22 231 32 595q-129 57 -215.5 156t-128.5 213q-39 106 -39 203q0 118 51.5 184.5t149.5 66.5q105 0 173 -52q112 -87 157 -280q67 2 151 2l181 1
q65 0 123 -1q7 142 20 270q10 91 133 91q46 0 46 -59q0 -22 -3 -52q-11 -131 -17 -254l39 -2q62 -4 62 -32q0 -8 -8 -17q-17 -20 -51 -29q-24 -7 -46 -9zM166 931q-26 -1 -38 -1q-31 0 -52.5 8.5t-21.5 24.5q0 20 35 37q19 9 64 15l-8 41q-16 72 -44 120t-72 48
q-85 0 -85 -136q0 -42 16 -114t73 -161.5t149 -141.5q0 29 -2.5 92.5t-10.5 141.5q-1 13 -3 26z" />
    <glyph glyph-name="hbar" unicode="&#x127;" horiz-adv-x="977" 
d="M712 -77q-89 0 -131.5 60.5t-42.5 197.5q0 73 2 155t2 192q0 145 -71 145q-58 0 -103.5 -83.5t-78.5 -198.5t-53 -209q-29 -138 -51 -165q-36 -42 -90 -42q-61 0 -65 52q-32 446 -32 724q0 216 17 391l-112 -10q-13 0 -22 11.5t-9 33.5q0 28 16 52q24 36 143 40
q57 375 210 519q76 72 188 72q218 0 218 -270q0 -249 -147 -495q-124 -209 -323 -392q2 -154 10 -307q115 426 333 426q97 0 150.5 -72.5t53.5 -191.5q0 -125 -4 -226t-4 -197q0 -64 35 -64q49 0 124 211q62 176 102 375q8 41 55 41q45 0 45 -51q0 -17 -21 -105
q-80 -335 -152 -472q-78 -147 -192 -147zM175 845q182 196 276 449q56 150 56 296q0 129 -78 129q-123 0 -186 -246q-24 -93 -40 -203q51 -3 91 -10q27 -4 27 -43q0 -12 -4 -25q-7 -27 -22 -40.5t-30 -13.5l-77 2q-10 -118 -13 -295z" />
    <glyph glyph-name="Itilde" unicode="&#x128;" horiz-adv-x="613" 
d="M257 -147q-257 0 -257 752q0 124 1 218.5t1 157.5t-5 117l-124 -113q-24 -20 -44 -20q-30 0 -64 32q-22 22 -22 47q0 27 27 49q90 75 172 157q121 123 172 123q63 0 68 -84q7 -107 7 -230q0 -113 -4 -308q-2 -75 -2 -138q0 -101 4 -174q22 -438 109 -438q115 0 262 460
q41 126 55 196q8 41 62 41q38 0 38 -51q0 -29 -51 -210q-166 -584 -405 -584zM230 1454q-52 0 -91.5 26t-64.5 53q-38 40 -56 40q-29 0 -69 -85q-8 -18 -28 -18q-22 0 -39 13.5t-17 29.5q0 24 30 87q39 84 113 84q60 0 129 -73q56 -58 86 -58q24 0 37 24q10 19 41 87
q11 23 34 23q15 0 34 -16.5t19 -28.5q0 -21 -22 -73q-49 -115 -136 -115z" />
    <glyph glyph-name="itilde" unicode="&#x129;" horiz-adv-x="434" 
d="M143 -77q-66 0 -102 49q-13 18 -24 41q-43 92 -43 282q0 119 20 317l7 69q9 121 121 121q25 0 41 -16t16 -40q0 -25 -6 -85q-23 -285 -23 -421l1 -61q3 -108 31 -108q55 0 117 137q76 169 135 449q9 41 59 41q41 0 41 -51q0 -14 -10 -55q-50 -214 -99 -352
q-64 -183 -158 -268q-54 -49 -124 -49zM231 886q-52 0 -91.5 26t-64.5 53q-38 40 -56 40q-29 0 -69 -85q-8 -18 -28 -18q-22 0 -39 13.5t-17 29.5q0 24 30 87q39 84 113 84q60 0 129 -73q56 -58 86 -58q24 0 37 24q10 19 41 87q11 23 34 23q15 0 34 -16.5t19 -28.5
q0 -21 -22 -73q-49 -115 -136 -115z" />
    <glyph glyph-name="Imacron" unicode="&#x12a;" horiz-adv-x="613" 
d="M257 -147q-257 0 -257 752q0 124 1 218.5t1 157.5t-5 117l-124 -113q-24 -20 -44 -20q-30 0 -64 32q-22 22 -22 47q0 27 27 49q90 75 172 157q121 123 172 123q63 0 68 -84q7 -107 7 -230q0 -113 -4 -308q-2 -75 -2 -138q0 -101 4 -174q22 -438 109 -438q115 0 262 460
q41 126 55 196q8 41 62 41q38 0 38 -51q0 -29 -51 -210q-166 -584 -405 -584zM-81 1499q-14 0 -23.5 11t-9.5 30q0 26 16 47q27 36 174 37h98q77 0 135 -8q27 -4 27 -40q0 -10 -4 -22q-7 -24 -22.5 -36.5t-29.5 -12.5l-230 4q-30 0 -74 -5t-57 -5z" />
    <glyph glyph-name="imacron" unicode="&#x12b;" horiz-adv-x="434" 
d="M143 -77q-66 0 -102 49q-13 18 -24 41q-43 92 -43 282q0 119 20 317l7 69q9 121 121 121q25 0 41 -16t16 -40q0 -25 -6 -85q-23 -285 -23 -421l1 -61q3 -108 31 -108q55 0 117 137q76 169 135 449q9 41 59 41q41 0 41 -51q0 -14 -10 -55q-50 -214 -99 -352
q-64 -183 -158 -268q-54 -49 -124 -49zM-72 931q-14 0 -23.5 11t-9.5 30q0 26 16 47q27 36 174 37h98q77 0 135 -8q27 -4 27 -40q0 -10 -4 -22q-7 -24 -22.5 -36.5t-29.5 -12.5l-230 4q-30 0 -74 -5t-57 -5z" />
    <glyph glyph-name="Ibreve" unicode="&#x12c;" horiz-adv-x="613" 
d="M257 -147q-257 0 -257 752q0 124 1 218.5t1 157.5t-5 117l-124 -113q-24 -20 -44 -20q-30 0 -64 32q-22 22 -22 47q0 27 27 49q90 75 172 157q121 123 172 123q63 0 68 -84q7 -107 7 -230q0 -113 -4 -308q-2 -75 -2 -138q0 -101 4 -174q22 -438 109 -438q115 0 262 460
q41 126 55 196q8 41 62 41q38 0 38 -51q0 -29 -51 -210q-166 -584 -405 -584zM98 1454q-95 0 -159 74q-61 69 -61 117q0 42 48 42q23 0 35 -22q52 -96 137 -96t137 96q12 22 35 22q48 0 48 -42q0 -48 -61 -117q-64 -74 -159 -74z" />
    <glyph glyph-name="ibreve" unicode="&#x12d;" horiz-adv-x="434" 
d="M143 -77q-66 0 -102 49q-13 18 -24 41q-43 92 -43 282q0 119 20 317l7 69q9 121 121 121q25 0 41 -16t16 -40q0 -25 -6 -85q-23 -285 -23 -421l1 -61q3 -108 31 -108q55 0 117 137q76 169 135 449q9 41 59 41q41 0 41 -51q0 -14 -10 -55q-50 -214 -99 -352
q-64 -183 -158 -268q-54 -49 -124 -49zM127 886q-95 0 -159 74q-61 69 -61 117q0 42 48 42q23 0 35 -22q52 -96 137 -96t137 96q12 22 35 22q48 0 48 -42q0 -48 -61 -117q-64 -74 -159 -74z" />
    <glyph glyph-name="Iogonek" unicode="&#x12e;" horiz-adv-x="613" 
d="M229 -145q-229 40 -229 750q0 124 1 218.5t1 157.5t-5 117l-124 -113q-24 -20 -44 -20q-30 0 -64 32q-22 22 -22 47q0 27 27 49q90 75 172 157q121 123 172 123q63 0 68 -84q7 -107 7 -230q0 -113 -4 -308q-2 -75 -2 -138q0 -101 4 -174q22 -438 109 -438q115 0 262 460
q41 126 55 196q8 41 62 41q38 0 38 -51q0 -29 -51 -210q-143 -502 -339 -572q-13 -35 -36 -81q-52 -101 -52 -149q0 -52 85 -89q18 -8 18 -28q0 -22 -13.5 -39t-29.5 -17q-24 0 -87 30q-84 39 -84 123q0 83 65 174q25 36 40 66z" />
    <glyph glyph-name="iogonek" unicode="&#x12f;" horiz-adv-x="434" 
d="M126 904q-37 0 -62 32t-25 74q1 54 31.5 88t75.5 34q42 0 64.5 -32t22.5 -74q0 -52 -26 -87t-81 -35zM177 -458q-24 0 -87 30q-84 39 -84 123q0 83 65 174q21 31 36 58q-41 10 -66 45q-67 93 -67 323q0 120 27 386q9 121 121 121q25 0 41 -16t16 -40q0 -25 -6 -85
q-23 -285 -23 -421l1 -61q3 -108 31 -108q55 0 117 137q76 169 135 449q9 41 59 41q41 0 41 -51q0 -14 -10 -55q-50 -214 -99 -352q-64 -183 -158 -268q-31 -28 -67 -40q-12 -30 -31 -68q-52 -101 -52 -149q0 -52 85 -89q18 -8 18 -28q0 -22 -13.5 -39t-29.5 -17z" />
    <glyph glyph-name="Idotaccent" unicode="&#x130;" horiz-adv-x="613" 
d="M257 -147q-257 0 -257 752q0 124 1 218.5t1 157.5t-5 117l-124 -113q-24 -20 -44 -20q-30 0 -64 32q-22 22 -22 47q0 27 27 49q90 75 172 157q121 123 172 123q63 0 68 -84q7 -107 7 -230q0 -113 -4 -308q-2 -75 -2 -138q0 -101 4 -174q22 -438 109 -438q115 0 262 460
q41 126 55 196q8 41 62 41q38 0 38 -51q0 -29 -51 -210q-166 -584 -405 -584zM113 1502q-37 0 -62 32t-25 74q1 54 31 88t76 34q42 0 64.5 -32t22.5 -74q0 -52 -26.5 -87t-80.5 -35z" />
    <glyph glyph-name="IJ" unicode="&#x132;" horiz-adv-x="1439" 
d="M792 -859q123 0 187 247q60 236 63 576q-179 -184 -272 -416q-56 -141 -56 -278q0 -23 7 -53t24 -53t47 -23zM657 404q-163 -551 -395 -551q-257 0 -257 752q0 124 1 218.5t1 157.5t-5 117l-124 -113q-24 -20 -44 -20q-30 0 -64 32q-22 22 -22 47q0 27 27 49
q90 75 172 157q121 123 172 123q63 0 68 -84q7 -107 7 -230q0 -113 -4 -308q-2 -75 -2 -138q0 -101 4 -174q22 -438 109 -438q115 0 262 460l11 34q-33 147 -33 275q0 255 114 435q117 185 285 185q69 0 113 -42q110 -106 133 -358q28 -302 36 -753q69 67 116 156
q66 125 95 264q8 41 54 41t46 -51q0 -18 -17 -79q-85 -307 -293 -463v-29q0 -776 -242 -1004q-77 -72 -189 -72q-84 0 -134 36.5t-72 97.5t-22 136q0 228 158 468q129 196 321 361q-1 250 -16 506q-16 271 -25 351q-33 278 -114 278q-59 0 -113.5 -125.5t-54.5 -279.5
q0 -145 41 -316q2 -8 2 -16q0 -36 -43 -66q-31 -21 -63 -27z" />
    <glyph glyph-name="ij" unicode="&#x133;" horiz-adv-x="835" 
d="M306 -859q78 0 116 234q32 199 35 490q-229 -304 -229 -595q0 -22 7 -52.5t23.5 -53.5t47.5 -23zM126 904q-37 0 -62 32t-25 74q1 54 31.5 88t75.5 34q42 0 64.5 -32t22.5 -74q0 -52 -26 -87t-81 -35zM305 -1000q-84 0 -134 36.5t-71.5 97.5t-21.5 136q0 234 158 482
q95 149 222 278q-2 154 -6 290l-27 -80q-64 -183 -158 -268q-54 -49 -124 -49q-169 0 -169 372q0 120 27 386q9 121 121 121q25 0 41 -16t16 -40q0 -25 -6 -85q-23 -285 -23 -421l1 -61q3 -108 31 -108q55 0 117 137q75 168 134 445q-7 86 -7 100q0 99 113 99q60 0 64 -52
q25 -343 30 -589q37 54 72 120q98 185 131 326q9 41 55 41q44 0 44 -51q0 -13 -18 -74q-40 -136 -126 -297q-73 -137 -156 -228q-1 -119 -6 -240q-36 -808 -324 -808zM488 934q-37 0 -62 32t-25 74q1 54 31 88t76 34q42 0 64.5 -32t22.5 -74q0 -52 -26.5 -87t-80.5 -35z" />
    <glyph glyph-name="Jcircumflex" unicode="&#x134;" horiz-adv-x="887" 
d="M246 -1000q-84 0 -134 36.5t-72 97.5t-22 136q0 228 158 468q129 196 321 361q-1 250 -16 506q-16 271 -25 351q-33 278 -114 278q-59 0 -113.5 -125.5t-54.5 -279.5q0 -145 41 -316q2 -8 2 -16q0 -36 -43.5 -66t-90.5 -30q-32 0 -43 44q-45 175 -45 325q0 255 114 435
q117 185 285 185q69 0 113 -42q110 -106 133 -358q28 -302 36 -753q69 67 116 156q66 125 95 264q8 41 54 41t46 -51q0 -18 -17 -79q-85 -307 -293 -463v-29q0 -776 -242 -1004q-77 -72 -189 -72zM246 -859q123 0 187 247q60 236 63 576q-179 -184 -272 -416
q-56 -141 -56 -278q0 -23 7 -53t24 -53t47 -23zM569 1474q-37 0 -188 132l-136 -118q-17 -14 -43 -14q-45 0 -45 39q0 27 181 193q43 40 73 40q25 0 41 -15q182 -169 182 -203q0 -15 -20 -34.5t-45 -19.5z" />
    <glyph glyph-name="jcircumflex" unicode="&#x135;" horiz-adv-x="401" 
d="M-129 -1000q-84 0 -134 36.5t-71.5 97.5t-21.5 136q0 234 158 482q95 149 222 278q-4 376 -27 648q-5 58 -5 75q0 99 113 99q60 0 64 -52q25 -343 30 -589q37 54 72 120q98 185 131 326q9 41 55 41q44 0 44 -51q0 -13 -19 -73q-48 -153 -125 -298q-73 -137 -156 -228
q-1 -119 -6 -240q-36 -808 -324 -808zM-128 -859q78 0 116 234q32 199 35 490q-229 -304 -229 -595q0 -22 7 -52.5t23.5 -53.5t47.5 -23zM276 906q-37 0 -188 132l-136 -118q-17 -14 -43 -14q-45 0 -45 39q0 27 181 193q43 40 73 40q25 0 41 -15q182 -169 182 -203
q0 -15 -20 -34.5t-45 -19.5z" />
    <glyph glyph-name="uni0136" unicode="&#x136;" horiz-adv-x="1616" 
d="M853 321q-50 116 -84 205q-48 -33 -97 -54q-3 -298 -77 -473q-94 -223 -318 -223q-137 0 -234 90.5t-97 228.5q0 178 139 327q31 33 65 33q28 0 53 -23t25 -41q0 -24 -22 -50q-82 -96 -82 -209q0 -85 43.5 -143t126.5 -58q195 0 195 440q0 471 -70 727q-55 -75 -102 -133
q-24 -29 -47 -29q-28 0 -60 21t-32 53q0 20 19 42q75 90 140 186q104 152 154 152q57 0 75 -70q52 -201 87 -462q13 -98 17 -222q183 132 276.5 319.5t123.5 350.5q6 32 35 56q34 28 74 28q33 0 51 -16.5t18 -41.5q0 -32 -8 -63q-93 -383 -330 -622q44 -130 138 -326
q156 -320 251 -320q115 0 264 459q39 127 53 197q8 41 62 41q38 0 38 -51q0 -29 -50 -210q-167 -584 -406 -584q-196 0 -407 468zM735 -614q-15 0 -15 15q0 8 6 18q55 94 55 173q-54 14 -54 73q0 37 21.5 61t53.5 24q71 0 71 -105q0 -98 -50 -178.5t-88 -80.5z" />
    <glyph glyph-name="uni0137" unicode="&#x137;" horiz-adv-x="952" 
d="M635 -77q-131 0 -226 153q-52 84 -76.5 163.5t-24.5 110.5q0 15 16.5 32.5t40.5 17.5q97 0 135 21q81 45 81 145q0 47 -26 83t-68 36q-87 0 -156 -173q-53 -133 -108 -384q-16 -84 -38 -111q-36 -42 -90 -42q-61 0 -65 52q-32 446 -32 724q0 809 243 1037q76 72 188 72
q218 0 218 -270q0 -249 -147 -495q-124 -209 -323 -392q2 -141 8 -281q39 134 92 227q91 160 232 160q105 0 157.5 -65t52.5 -157q0 -79 -40 -152q-58 -106 -193 -132q48 -117 108 -184q43 -48 80 -48q71 0 139 137q46 93 76 195q36 126 63 254q9 41 55 41q45 0 45 -51
q0 -11 -11 -60q-42 -189 -98 -346q-66 -185 -169 -269q-59 -49 -139 -49zM175 845q182 196 276 449q56 150 56 296q0 129 -78 129q-123 0 -186 -246q-61 -235 -67 -585zM276 -614q-15 0 -15 15q0 8 6 18q55 94 55 173q-54 14 -54 73q0 37 21.5 61t53.5 24q71 0 71 -105
q0 -98 -50 -178.5t-88 -80.5z" />
    <glyph glyph-name="kgreenlandic" unicode="&#x138;" horiz-adv-x="952" 
d="M635 -77q-131 0 -226 153q-43 69 -114 253q-34 -65 -52 -129q-23 -85 -37 -124q-36 -101 -126 -101q-64 0 -64 52q0 144 -11 463q-7 198 -7 256q0 23 12.5 39.5t37.5 16.5q96 0 109 -50q23 -87 31 -360q188 417 491 417q85 0 85 -47t-127 -78q-117 -29 -241 -194
q145 -312 198 -372q43 -47 80 -47q71 0 139 137q46 93 76 195q36 126 63 254q9 41 55 41q45 0 45 -51q0 -11 -11 -60q-42 -189 -98 -346q-66 -185 -169 -269q-59 -49 -139 -49z" />
    <glyph glyph-name="Lacute" unicode="&#x139;" horiz-adv-x="1120" 
d="M959 177q51 108 108 283q39 127 53 197q8 41 62 41q38 0 38 -51q0 -29 -50 -210q-51 -179 -109 -303q-180 -383 -434 -383q-115 0 -243.5 53.5t-189.5 53.5q-42 0 -88 -11q-43 -63 -86 -63q-30 0 -57 22.5t-27 49.5q0 53 75 105q33 110 33 253q0 159 -32 362
q-26 165 -26 258q0 317 161 455q118 101 291 101q122 0 204 -65q143 -114 143 -310q0 -172 -139 -339q-34 -42 -72 -42q-31 0 -56.5 18.5t-25.5 40.5q0 28 23 56q90 108 90 238q0 102 -63 176t-158 74q-124 0 -180 -131q-41 -94 -41 -205q0 -127 29 -304q32 -198 32 -346
q0 -130 -40 -253q113 0 241.5 -49.5t222.5 -49.5q175 0 311 278zM380 1474q-45 0 -45 39q0 27 181 193q19 18 40 18q16 0 38.5 -16t22.5 -36q0 -17 -19 -33l-175 -151q-17 -14 -43 -14z" />
    <glyph glyph-name="lacute" unicode="&#x13a;" 
d="M269 -77q-142 0 -207 211q-49 159 -59 389q-5 101 -5 214q0 805 232 1042q80 81 180 81q187 0 187 -250q0 -248 -155 -527q-153 -275 -264 -379q3 -204 16 -339q27 -294 114 -294q41 0 82 60t77.5 149t64.5 180q39 127 53 197q8 41 62 41q38 0 38 -51q0 -29 -51 -210
q-59 -208 -140 -344q-102 -170 -225 -170zM176 860q68 97 148 267q123 262 123 483q0 109 -47 109q-38 0 -84 -69.5t-74 -176.5t-42.5 -223t-19 -215t-4.5 -175zM299 1996q-45 0 -45 39q0 27 181 193q19 18 40 18q16 0 38.5 -16t22.5 -36q0 -17 -19 -33l-175 -151
q-17 -14 -43 -14z" />
    <glyph glyph-name="uni013B" unicode="&#x13b;" horiz-adv-x="1120" 
d="M959 177q51 108 108 283q39 127 53 197q8 41 62 41q38 0 38 -51q0 -29 -50 -210q-51 -179 -109 -303q-180 -383 -434 -383q-115 0 -243.5 53.5t-189.5 53.5q-42 0 -88 -11q-43 -63 -86 -63q-30 0 -57 22.5t-27 49.5q0 53 75 105q33 110 33 253q0 159 -32 362
q-26 165 -26 258q0 317 161 455q118 101 291 101q122 0 204 -65q143 -114 143 -310q0 -172 -139 -339q-34 -42 -72 -42q-31 0 -56.5 18.5t-25.5 40.5q0 28 23 56q90 108 90 238q0 102 -63 176t-158 74q-124 0 -180 -131q-41 -94 -41 -205q0 -127 29 -304q32 -198 32 -346
q0 -130 -40 -253q113 0 241.5 -49.5t222.5 -49.5q175 0 311 278zM405 -683q-15 0 -15 15q0 8 6 18q55 94 55 173q-54 14 -54 73q0 37 21.5 61t53.5 24q71 0 71 -105q0 -98 -50 -178.5t-88 -80.5z" />
    <glyph glyph-name="uni013C" unicode="&#x13c;" 
d="M269 -77q-142 0 -207 211q-49 159 -59 389q-5 101 -5 214q0 805 232 1042q80 81 180 81q187 0 187 -250q0 -248 -155 -527q-153 -275 -264 -379q3 -204 16 -339q27 -294 114 -294q41 0 82 60t77.5 149t64.5 180q39 127 53 197q8 41 62 41q38 0 38 -51q0 -29 -51 -210
q-59 -208 -140 -344q-102 -170 -225 -170zM176 860q68 97 148 267q123 262 123 483q0 109 -47 109q-38 0 -84 -69.5t-74 -176.5t-42.5 -223t-19 -215t-4.5 -175zM200 -614q-15 0 -15 15q0 8 6 18q55 94 55 173q-54 14 -54 73q0 37 21.5 61t53.5 24q71 0 71 -105
q0 -98 -50 -178.5t-88 -80.5z" />
    <glyph glyph-name="Lcaron" unicode="&#x13d;" horiz-adv-x="1120" 
d="M959 177q51 108 108 283q39 127 53 197q8 41 62 41q38 0 38 -51q0 -29 -50 -210q-51 -179 -109 -303q-180 -383 -434 -383q-115 0 -243.5 53.5t-189.5 53.5q-42 0 -88 -11q-43 -63 -86 -63q-30 0 -57 22.5t-27 49.5q0 53 75 105q33 110 33 253q0 159 -32 362
q-26 165 -26 258q0 317 161 455q118 101 291 101q122 0 204 -65q143 -114 143 -310q0 -172 -139 -339q-34 -42 -72 -42q-31 0 -56.5 18.5t-25.5 40.5q0 28 23 56q90 108 90 238q0 102 -63 176t-158 74q-124 0 -180 -131q-41 -94 -41 -205q0 -127 29 -304q32 -198 32 -346
q0 -130 -40 -253q113 0 241.5 -49.5t222.5 -49.5q175 0 311 278zM452 1496q-15 0 -15 15q0 8 6 18q55 94 55 173q-54 14 -54 73q0 37 21.5 61t53.5 24q71 0 71 -105q0 -98 -50 -178.5t-88 -80.5z" />
    <glyph glyph-name="lcaron" unicode="&#x13e;" horiz-adv-x="838" 
d="M269 -77q-142 0 -207 211q-49 159 -59 389q-5 101 -5 214q0 805 232 1042q80 81 180 81q187 0 187 -250q0 -248 -155 -527q-153 -275 -264 -379q3 -204 16 -339q27 -294 114 -294q41 0 82 60t77.5 149t64.5 180q39 127 53 197q8 41 62 41q38 0 38 -51q0 -29 -51 -210
q-59 -208 -140 -344q-102 -170 -225 -170zM176 860q68 97 148 267q123 262 123 483q0 109 -47 109q-38 0 -84 -69.5t-74 -176.5t-42.5 -223t-19 -215t-4.5 -175zM650 1496q-15 0 -15 15q0 8 6 18q55 94 55 173q-54 14 -54 73q0 37 21.5 61t53.5 24q71 0 71 -105
q0 -98 -50 -178.5t-88 -80.5z" />
    <glyph glyph-name="Ldot" unicode="&#x13f;" horiz-adv-x="1120" 
d="M959 177q51 108 108 283q39 127 53 197q8 41 62 41q38 0 38 -51q0 -29 -50 -210q-51 -179 -109 -303q-180 -383 -434 -383q-115 0 -243.5 53.5t-189.5 53.5q-42 0 -88 -11q-43 -63 -86 -63q-30 0 -57 22.5t-27 49.5q0 53 75 105q33 110 33 253q0 159 -32 362
q-26 165 -26 258q0 317 161 455q118 101 291 101q122 0 204 -65q143 -114 143 -310q0 -172 -139 -339q-34 -42 -72 -42q-31 0 -56.5 18.5t-25.5 40.5q0 28 23 56q90 108 90 238q0 102 -63 176t-158 74q-124 0 -180 -131q-41 -94 -41 -205q0 -127 29 -304q32 -198 32 -346
q0 -130 -40 -253q113 0 241.5 -49.5t222.5 -49.5q175 0 311 278zM795.945 324.9q-36.5488 0 -55.248 27.1992t-18.6992 62.8984q0 45.0488 22.0986 74.373q22.0996 29.3242 68.8486 29.3242q30.5986 0 52.2734 -27.1992q21.6738 -27.1992 21.6738 -62.8984
q-0.849609 -45.8984 -26.7744 -74.7979q-25.9238 -28.8994 -64.1729 -28.8994z" />
    <glyph glyph-name="ldot" unicode="&#x140;" horiz-adv-x="835" 
d="M269 -77q-142 0 -207 211q-49 159 -59 389q-5 101 -5 214q0 805 232 1042q80 81 180 81q187 0 187 -250q0 -248 -155 -527q-153 -275 -264 -379q3 -204 16 -339q27 -294 114 -294q41 0 82 60t77.5 149t64.5 180q39 127 53 197q8 41 62 41q38 0 38 -51q0 -29 -51 -210
q-59 -208 -140 -344q-102 -170 -225 -170zM176 860q68 97 148 267q123 262 123 483q0 109 -47 109q-38 0 -84 -69.5t-74 -176.5t-42.5 -223t-19 -215t-4.5 -175zM644.945 794.9q-36.5488 0 -55.248 27.1992t-18.6992 62.8984q0 45.0488 22.0986 74.373
q22.0996 29.3242 68.8486 29.3242q30.5986 0 52.2734 -27.1992q21.6738 -27.1992 21.6738 -62.8984q-0.849609 -45.8984 -26.7744 -74.7979q-25.9238 -28.8994 -64.1729 -28.8994z" />
    <glyph glyph-name="Lslash" unicode="&#x141;" horiz-adv-x="1120" 
d="M627 -249q-115 0 -243.5 53.5t-189.5 53.5q-42 0 -88 -11q-43 -63 -86 -63q-30 0 -57 22.5t-27 49.5q0 53 75 105q31 105 33 239l-88 -96q-23 -22 -43 -22q-10 0 -19 9t-9 26q0 8 2 17q10 47 153 195q-7 114 -28 247q-26 165 -26 258q0 317 161 455q118 101 291 101
q122 0 204 -65q143 -114 143 -310q0 -172 -139 -339q-34 -42 -72 -42q-31 0 -56.5 18.5t-25.5 40.5q0 28 23 56q90 108 90 238q0 102 -63 176t-158 74q-124 0 -180 -131q-41 -94 -41 -205q0 -127 29 -304l15 -101q139 135 163 135q28 0 28 -40q0 -36 -34 -72l-145 -142
q5 -67 5 -126q0 -130 -40 -253q113 0 241.5 -49.5t222.5 -49.5q175 0 311 278q51 108 108 283q39 127 53 197q8 41 62 41q38 0 38 -51q0 -29 -50.5 -209t-108.5 -304q-180 -383 -434 -383z" />
    <glyph glyph-name="lslash" unicode="&#x142;" 
d="M269 -77q-142 0 -207 211q-16 52 -28 112l-61 -68q-17 -17 -35 -17q-11 0 -20 9q-12 12 -12 32q0 44 110 159q-18 152 -18 376q0 805 232 1042q80 81 180 81q187 0 187 -250q0 -248 -155 -527q-153 -275 -264 -379q1 -95 5 -175q101 95 120 95q10 0 17.5 -7.5t11 -17.5
t3.5 -21q0 -30 -25 -56l-120 -116l4 -41q27 -294 114 -294q41 0 82 60t77.5 149t64.5 180q39 127 53 197q8 41 62 41q38 0 38 -51q0 -29 -50 -210q-60 -208 -141 -344q-102 -170 -225 -170zM176 860q68 97 148 267q123 262 123 483q0 109 -47 109q-38 0 -84 -69.5
t-74 -176.5t-42.5 -223t-19 -215t-4.5 -147v-28z" />
    <glyph glyph-name="Nacute" unicode="&#x143;" horiz-adv-x="1320" 
d="M10 -262q-172 0 -172 234q0 367 232 845q-52 248 -129 458q-4 10 -4 21q0 17 10 35q17 29 48 43.5t53 14.5q48 0 61 -34q54 -138 93 -297q213 331 438 331q293 0 293 -378q0 -123 -19.5 -293.5t-19.5 -349.5q0 -367 109 -367q115 0 264 459q39 127 53 197q8 41 62 41
q38 0 38 -51q0 -29 -50 -210q-167 -584 -406 -584q-257 0 -257 515q0 145 16.5 283t16.5 271q0 302 -107 302q-177 0 -382 -370l5 -25q64 -315 64 -559q0 -217 -64 -355q-83 -177 -246 -177zM20 -130q120 0 120 352q0 147 -27 346q-136 -331 -136 -606q0 -92 43 -92z
M480 1474q-45 0 -45 39q0 27 181 193q19 18 40 18q16 0 38.5 -16t22.5 -36q0 -17 -19 -33l-175 -151q-17 -14 -43 -14z" />
    <glyph glyph-name="nacute" unicode="&#x144;" horiz-adv-x="963" 
d="M698 -77q-89 0 -131.5 60.5t-42.5 197.5q0 73 2 155t2 192q0 145 -71 145q-101 0 -182 -282q-53 -186 -76 -306q-7 -39 -29 -67q-35 -43 -90 -43q-64 0 -64 52q0 117 -11 463q-7 198 -7 256q0 23 12.5 39.5t37.5 16.5q96 0 109 -50q21 -79 29 -308q114 378 320 378
q97 0 150.5 -72.5t53.5 -191.5q0 -125 -4 -226t-4 -197q0 -64 35 -64q49 0 124 211q62 176 102 375q8 41 55 41q45 0 45 -51q0 -14 -21 -105q-79 -332 -152 -472q-78 -147 -192 -147zM368 906q-45 0 -45 39q0 27 181 193q19 18 40 18q16 0 38.5 -16t22.5 -36q0 -17 -19 -33
l-175 -151q-17 -14 -43 -14z" />
    <glyph glyph-name="uni0145" unicode="&#x145;" horiz-adv-x="1320" 
d="M10 -262q-172 0 -172 234q0 367 232 845q-52 248 -129 458q-4 10 -4 21q0 17 10 35q17 29 48 43.5t53 14.5q48 0 61 -34q54 -138 93 -297q213 331 438 331q293 0 293 -378q0 -123 -19.5 -293.5t-19.5 -349.5q0 -367 109 -367q115 0 264 459q39 127 53 197q8 41 62 41
q38 0 38 -51q0 -29 -50 -210q-167 -584 -406 -584q-257 0 -257 515q0 145 16.5 283t16.5 271q0 302 -107 302q-177 0 -382 -370l5 -25q64 -315 64 -559q0 -217 -64 -355q-83 -177 -246 -177zM20 -130q120 0 120 352q0 147 -27 346q-136 -331 -136 -606q0 -92 43 -92z
M486 -614q-15 0 -15 15q0 8 6 18q55 94 55 173q-54 14 -54 73q0 37 21.5 61t53.5 24q71 0 71 -105q0 -98 -50 -178.5t-88 -80.5z" />
    <glyph glyph-name="uni0146" unicode="&#x146;" horiz-adv-x="963" 
d="M698 -77q-89 0 -131.5 60.5t-42.5 197.5q0 73 2 155t2 192q0 145 -71 145q-101 0 -182 -282q-53 -186 -76 -306q-7 -39 -29 -67q-35 -43 -90 -43q-64 0 -64 52q0 117 -11 463q-7 198 -7 256q0 23 12.5 39.5t37.5 16.5q96 0 109 -50q21 -79 29 -308q114 378 320 378
q97 0 150.5 -72.5t53.5 -191.5q0 -125 -4 -226t-4 -197q0 -64 35 -64q49 0 124 211q62 176 102 375q8 41 55 41q45 0 45 -51q0 -14 -21 -105q-79 -332 -152 -472q-78 -147 -192 -147zM335 -614q-15 0 -15 15q0 8 6 18q55 94 55 173q-54 14 -54 73q0 37 21.5 61t53.5 24
q71 0 71 -105q0 -98 -50 -178.5t-88 -80.5z" />
    <glyph glyph-name="Ncaron" unicode="&#x147;" horiz-adv-x="1320" 
d="M10 -262q-172 0 -172 234q0 367 232 845q-52 248 -129 458q-4 10 -4 21q0 17 10 35q17 29 48 43.5t53 14.5q48 0 61 -34q54 -138 93 -297q213 331 438 331q293 0 293 -378q0 -123 -19.5 -293.5t-19.5 -349.5q0 -367 109 -367q115 0 264 459q39 127 53 197q8 41 62 41
q38 0 38 -51q0 -29 -50 -210q-167 -584 -406 -584q-257 0 -257 515q0 145 16.5 283t16.5 271q0 302 -107 302q-177 0 -382 -370l5 -25q64 -315 64 -559q0 -217 -64 -355q-83 -177 -246 -177zM20 -130q120 0 120 352q0 147 -27 346q-136 -331 -136 -606q0 -92 43 -92z
M384 1746q37 0 188 -132l136 118q17 14 43 14q45 0 45 -39q0 -27 -181 -193q-43 -40 -73 -40q-25 0 -41 15q-182 169 -182 203q0 15 20 34.5t45 19.5z" />
    <glyph glyph-name="ncaron" unicode="&#x148;" horiz-adv-x="963" 
d="M698 -77q-89 0 -131.5 60.5t-42.5 197.5q0 73 2 155t2 192q0 145 -71 145q-101 0 -182 -282q-53 -186 -76 -306q-7 -39 -29 -67q-35 -43 -90 -43q-64 0 -64 52q0 117 -11 463q-7 198 -7 256q0 23 12.5 39.5t37.5 16.5q96 0 109 -50q21 -79 29 -308q114 378 320 378
q97 0 150.5 -72.5t53.5 -191.5q0 -125 -4 -226t-4 -197q0 -64 35 -64q49 0 124 211q62 176 102 375q8 41 55 41q45 0 45 -51q0 -14 -21 -105q-79 -332 -152 -472q-78 -147 -192 -147zM216 1178q37 0 188 -132l136 118q17 14 43 14q45 0 45 -39q0 -27 -181 -193
q-43 -40 -73 -40q-25 0 -41 15q-182 169 -182 203q0 15 20 34.5t45 19.5z" />
    <glyph glyph-name="napostrophe" unicode="&#x149;" horiz-adv-x="1092" 
d="M65 929q-15 0 -15 14q0 9 6 19q55 94 55 173q-54 14 -54 72q0 38 21.5 62t53.5 24q71 0 71 -105q0 -98 -50 -178.5t-88 -80.5zM827 -77q-89 0 -131.5 60.5t-42.5 197.5q0 73 2 155t2 192q0 145 -71 145q-101 0 -182 -282q-53 -186 -76 -306q-7 -39 -29 -67
q-35 -43 -90 -43q-64 0 -64 52q0 117 -11 463q-7 198 -7 256q0 23 12.5 39.5t37.5 16.5q96 0 109 -50q21 -79 29 -308q114 378 320 378q97 0 150.5 -72.5t53.5 -191.5q0 -125 -4 -226t-4 -197q0 -64 35 -64q49 0 124 211q62 176 102 375q8 41 55 41q45 0 45 -51
q0 -14 -21 -105q-79 -332 -152 -472q-78 -147 -192 -147z" />
    <glyph glyph-name="Eng" unicode="&#x14a;" horiz-adv-x="1452" 
d="M283 -207q81 0 107 180q13 94 13 202q0 125 -8 210q-108 -199 -142 -378q-13 -69 -13 -122q0 -92 43 -92zM812 -1000q-84 0 -84 71q0 70 85 70q123 0 186.5 399t63.5 1106q0 370 -84 370q-51 0 -109 -49q-178 -152 -318 -338q31 -204 31 -403q0 -230 -64 -377
q-83 -188 -276 -188q-72 0 -110.5 40t-50 93t-11.5 101q0 85 21 163q79 289 273 566q-58 371 -161 670q-4 11 -4 22q0 18 10 37q17 31 48 46.5t53 15.5q48 0 61 -36q36 -98 64 -198q30 -108 83 -361q321 371 509 371q224 0 224 -505q0 -1686 -440 -1686z" />
    <glyph glyph-name="eng" unicode="&#x14b;" horiz-adv-x="910" 
d="M192 76q0 -30 -22 -58q-35 -43 -90 -43q-64 0 -64 52q0 117 -11 463q-7 198 -7 256q0 23 12.5 39.5t37.5 16.5q96 0 109 -50q21 -79 29 -308q114 378 320 378q97 0 150.5 -72.5t53.5 -191.5q0 -613 -83 -1036q-109 -522 -354 -522q-84 0 -84 71q0 70 85 70q123 0 187 399
q67 463 67 988q0 145 -71 145q-58 0 -103.5 -83.5t-78.5 -198.5t-55 -209q-17 -77 -27 -106h-1z" />
    <glyph glyph-name="Omacron" unicode="&#x14c;" horiz-adv-x="1210" 
d="M779 483q0 168 -40 281q-41 -52 -74 -59q-23 -4 -33 -4q-24 0 -43 13q-24 16 -24 45q0 30 28 62q80 89 80 208q0 81 -55 138t-152 57q-148 0 -225 -239q-69 -210 -69 -377q0 -212 59 -387q39 -115 105 -171.5t146 -56.5q32 0 67 9q95 24 145.5 107t67.5 184t17 190z
M534 -163q-346 0 -469 286q-73 180 -73 409q0 281 88 494q42 104 104 181q100 126 191.5 152t147.5 26q60 0 117 -20q109 -39 166 -133q48 -80 48 -172q0 -48 -13 -99q121 -145 121 -427q0 -280 -121 -474q111 52 200 184q119 178 169 413q8 41 62 41q38 0 38 -51
q0 -19 -17 -81q-58 -227 -186 -402q-242 -327 -573 -327zM348 1499q-14 0 -23.5 11t-9.5 30q0 26 16 47q27 36 174 37h98q77 0 135 -8q27 -4 27 -40q0 -10 -4 -22q-7 -24 -22.5 -36.5t-29.5 -12.5l-230 4q-30 0 -74 -5t-57 -5z" />
    <glyph glyph-name="omacron" unicode="&#x14d;" horiz-adv-x="810" 
d="M217 -24q-104 0 -171.5 53.5t-99.5 140.5t-32 183q0 69 21 152q26 106 85 185q104 139 277 139q110 0 179 -50t101.5 -130t32.5 -171q0 -25 -2 -51q44 6 79 30q94 62 123 200q8 41 62 41q38 0 38 -51q0 -23 -23 -86q-49 -130 -154 -196q-62 -38 -142 -42
q-17 -74 -41 -127q-101 -220 -333 -220zM260 129q82 0 125 62t58 141l6 38q-45 47 -45 113q0 56 32 94q-43 107 -153 107q-138 0 -175 -166q-16 -69 -16 -132q0 -49 16.5 -109.5t53.5 -104t98 -43.5zM106 931q-14 0 -23.5 11t-9.5 30q0 26 16 47q27 36 174 37h98
q77 0 135 -8q27 -4 27 -40q0 -10 -4 -22q-7 -24 -22.5 -36.5t-29.5 -12.5l-230 4q-30 0 -74 -5t-57 -5z" />
    <glyph glyph-name="Obreve" unicode="&#x14e;" horiz-adv-x="1210" 
d="M779 483q0 168 -40 281q-41 -52 -74 -59q-23 -4 -33 -4q-24 0 -43 13q-24 16 -24 45q0 30 28 62q80 89 80 208q0 81 -55 138t-152 57q-148 0 -225 -239q-69 -210 -69 -377q0 -212 59 -387q39 -115 105 -171.5t146 -56.5q32 0 67 9q95 24 145.5 107t67.5 184t17 190z
M534 -163q-346 0 -469 286q-73 180 -73 409q0 281 88 494q42 104 104 181q100 126 191.5 152t147.5 26q60 0 117 -20q109 -39 166 -133q48 -80 48 -172q0 -48 -13 -99q121 -145 121 -427q0 -280 -121 -474q111 52 200 184q119 178 169 413q8 41 62 41q38 0 38 -51
q0 -19 -17 -81q-58 -227 -186 -402q-242 -327 -573 -327zM501 1454q-95 0 -159 74q-61 69 -61 117q0 42 48 42q23 0 35 -22q52 -96 137 -96t137 96q12 22 35 22q48 0 48 -42q0 -48 -61 -117q-64 -74 -159 -74z" />
    <glyph glyph-name="obreve" unicode="&#x14f;" horiz-adv-x="810" 
d="M217 -24q-104 0 -171.5 53.5t-99.5 140.5t-32 183q0 69 21 152q26 106 85 185q104 139 277 139q110 0 179 -50t101.5 -130t32.5 -171q0 -25 -2 -51q44 6 79 30q94 62 123 200q8 41 62 41q38 0 38 -51q0 -23 -23 -86q-49 -130 -154 -196q-62 -38 -142 -42
q-17 -74 -41 -127q-101 -220 -333 -220zM260 129q82 0 125 62t58 141l6 38q-45 47 -45 113q0 56 32 94q-43 107 -153 107q-138 0 -175 -166q-16 -69 -16 -132q0 -49 16.5 -109.5t53.5 -104t98 -43.5zM298 886q-95 0 -159 74q-61 69 -61 117q0 42 48 42q23 0 35 -22
q52 -96 137 -96t137 96q12 22 35 22q48 0 48 -42q0 -48 -61 -117q-64 -74 -159 -74z" />
    <glyph glyph-name="Ohungarumlaut" unicode="&#x150;" horiz-adv-x="1210" 
d="M779 483q0 168 -40 281q-41 -52 -74 -59q-23 -4 -33 -4q-24 0 -43 13q-24 16 -24 45q0 30 28 62q80 89 80 208q0 81 -55 138t-152 57q-148 0 -225 -239q-69 -210 -69 -377q0 -212 59 -387q39 -115 105 -171.5t146 -56.5q32 0 67 9q95 24 145.5 107t67.5 184t17 190z
M534 -163q-346 0 -469 286q-73 180 -73 409q0 281 88 494q42 104 104 181q100 126 191.5 152t147.5 26q60 0 117 -20q109 -39 166 -133q48 -80 48 -172q0 -48 -13 -99q121 -145 121 -427q0 -280 -121 -474q111 52 200 184q119 178 169 413q8 41 62 41q38 0 38 -51
q0 -19 -17 -81q-58 -227 -186 -402q-242 -327 -573 -327zM377 1474q-45 0 -45 39q0 27 181 193q19 18 40 18q16 0 38.5 -16t22.5 -36q0 -17 -19 -33l-175 -151q-17 -14 -43 -14zM659 1474q-45 0 -45 39q0 27 181 193q19 18 40 18q16 0 38.5 -16t22.5 -36q0 -17 -19 -33
l-175 -151q-17 -14 -43 -14z" />
    <glyph glyph-name="ohungarumlaut" unicode="&#x151;" horiz-adv-x="810" 
d="M217 -24q-104 0 -171.5 53.5t-99.5 140.5t-32 183q0 69 21 152q26 106 85 185q104 139 277 139q110 0 179 -50t101.5 -130t32.5 -171q0 -25 -2 -51q44 6 79 30q94 62 123 200q8 41 62 41q38 0 38 -51q0 -23 -23 -86q-49 -130 -154 -196q-62 -38 -142 -42
q-17 -74 -41 -127q-101 -220 -333 -220zM260 129q82 0 125 62t58 141l6 38q-45 47 -45 113q0 56 32 94q-43 107 -153 107q-138 0 -175 -166q-16 -69 -16 -132q0 -49 16.5 -109.5t53.5 -104t98 -43.5zM142 906q-45 0 -45 39q0 27 181 193q19 18 40 18q16 0 38.5 -16t22.5 -36
q0 -17 -19 -33l-175 -151q-17 -14 -43 -14zM424 906q-45 0 -45 39q0 27 181 193q19 18 40 18q16 0 38.5 -16t22.5 -36q0 -17 -19 -33l-175 -151q-17 -14 -43 -14z" />
    <glyph glyph-name="OE" unicode="&#x152;" horiz-adv-x="1704" 
d="M779 483q0 168 -40 281q-41 -52 -74 -59q-23 -4 -33 -4q-24 0 -43 13q-24 16 -24 45q0 30 28 62q80 89 80 208q0 81 -55 138t-152 57q-148 0 -225 -239q-69 -210 -69 -377q0 -212 59 -387q39 -115 105 -171.5t146 -56.5q32 0 67 9q95 24 145.5 107t67.5 184t17 190z
M771 -35q-118 -128 -289 -128q-294 0 -417 286q-73 180 -73 409q0 281 88 494q42 104 104 181q100 126 191.5 152t147.5 26q60 0 117 -20q109 -39 166 -133l10 -18q10 16 21 31q109 145 300 145q131 0 208 -89t77 -214q0 -31 -9 -83q-23 -136 -101 -136q-52 0 -52 54
q0 10 3 21q12 47 12 92q0 98 -51 156q-39 44 -112 44q-77 0 -121 -43q-59 -58 -59 -205q0 -231 221 -333q72 -34 72 -71q0 -19 -15 -39q-19 -25 -70 -61q-57 -41 -120 -104q-21 -21 -39 -45q-68 -93 -68 -182q0 -59 35 -104q52 -67 151 -67q256 0 435 264q121 177 170 412
q9 41 53 41q47 0 47 -51q0 -19 -17 -81q-40 -159 -111 -294q-234 -446 -613 -447q-119 0 -207 55q-55 35 -85 85z" />
    <glyph glyph-name="oe" unicode="&#x153;" horiz-adv-x="1270" 
d="M260 129q82 0 125 62t57.5 140.5t14.5 122.5q0 114 -53 177q-45 53 -121 53q-138 0 -175 -166q-16 -69 -16 -132q0 -49 16.5 -109.5t53.5 -104t98 -43.5zM756 400q63 0 101 21q82 46 82 145q0 47 -26.5 83t-67.5 36q-51 0 -84.5 -46t-51.5 -109.5t-22 -120.5q28 -9 69 -9
zM537 169q-103 -193 -320 -193q-104 0 -171.5 53.5t-99.5 140.5t-32 183q0 69 21 152q26 106 85 185q104 139 277 139q110 0 179 -50q67 -48 99 -125l6 10q98 165 277 165q101 0 162 -75q56 -68 56 -167q0 -79 -40.5 -152.5t-111 -105.5t-146.5 -32q-40 0 -86 7
q12 -60 45 -107q49 -69 119 -69q166 0 307 248q76 133 107 281q8 41 61 41q39 0 39 -51q0 -22 -19 -88q-22 -77 -55 -148q-208 -437 -474 -437q-146 0 -242 122q-26 33 -43 73z" />
    <glyph glyph-name="Racute" unicode="&#x154;" horiz-adv-x="1455" 
d="M271 -78q62 0 91 163q19 111 20 201v65q0 292 -66 667q-124 -188 -163 -499q-11 -91 -11 -210q0 -387 129 -387zM560 517q117 29 188.5 106t98.5 188q14 57 14 107q0 87 -42 153q-66 103 -245 103q-50 0 -94 -17q59 -330 80 -640zM224 -233q-95 0 -150 66.5t-82.5 170
t-27.5 286.5q0 169 30 328q28 150 98.5 308.5t191.5 272.5q-17 84 -17 95q0 27 39 62.5t96 35.5q36 0 44 -46l8 -42q74 29 162 29q69 0 146 -19q157 -40 218.5 -144.5t61.5 -219.5q0 -174 -118 -340q-47 -67 -103 -116q155 -493 317 -493q115 0 264 459q39 127 53 197
q8 41 62 41q38 0 38 -51q0 -29 -50 -210q-167 -584 -406 -584q-261 0 -428 548q-50 -23 -108 -42q0 -268 -85 -430t-254 -162zM635 1474q-45 0 -45 39q0 27 181 193q19 18 40 18q16 0 38.5 -16t22.5 -36q0 -17 -19 -33l-175 -151q-17 -14 -43 -14z" />
    <glyph glyph-name="racute" unicode="&#x155;" horiz-adv-x="630" 
d="M314 -77q-94 0 -140 92q-27 57 -27 179q0 170 63 432l13 65q-56 8 -106 31l-15 -74q-10 -52 -52 -52q-21 0 -36 12.5t-15 37.5q0 6 1 11q1 6 10.5 50.5t16.5 83.5q-58 74 -58 173q0 60 25 86.5t60 26.5q50 0 77 -43q20 -32 20 -76q0 -43 -14 -129v-2q57 -37 141 -40
q27 15 67 15q25 0 40.5 -16.5t15.5 -39.5q0 -24 -29 -146q-63 -261 -63 -428q0 -101 44 -101q62 0 134 137q53 102 80 195q37 126 63 254q9 41 61 41q39 0 39 -51q0 -15 -18 -94q-42 -184 -93 -312q-73 -184 -174 -269q-58 -49 -131 -49zM301 906q-45 0 -45 39q0 27 181 193
q19 18 40 18q16 0 38.5 -16t22.5 -36q0 -17 -19 -33l-175 -151q-17 -14 -43 -14z" />
    <glyph glyph-name="uni0156" unicode="&#x156;" horiz-adv-x="1455" 
d="M271 -78q62 0 91 163q19 111 20 201v65q0 292 -66 667q-124 -188 -163 -499q-11 -91 -11 -210q0 -387 129 -387zM560 517q117 29 188.5 106t98.5 188q14 57 14 107q0 87 -42 153q-66 103 -245 103q-50 0 -94 -17q59 -330 80 -640zM224 -233q-95 0 -150 66.5t-82.5 170
t-27.5 286.5q0 169 30 328q28 150 98.5 308.5t191.5 272.5q-17 84 -17 95q0 27 39 62.5t96 35.5q36 0 44 -46l8 -42q74 29 162 29q69 0 146 -19q157 -40 218.5 -144.5t61.5 -219.5q0 -174 -118 -340q-47 -67 -103 -116q155 -493 317 -493q115 0 264 459q39 127 53 197
q8 41 62 41q38 0 38 -51q0 -29 -50 -210q-167 -584 -406 -584q-261 0 -428 548q-50 -23 -108 -42q0 -268 -85 -430t-254 -162zM634 -614q-15 0 -15 15q0 8 6 18q55 94 55 173q-54 14 -54 73q0 37 21.5 61t53.5 24q71 0 71 -105q0 -98 -50 -178.5t-88 -80.5z" />
    <glyph glyph-name="uni0157" unicode="&#x157;" horiz-adv-x="630" 
d="M314 -77q-94 0 -140 92q-27 57 -27 179q0 170 63 432l13 65q-56 8 -106 31l-15 -74q-10 -52 -52 -52q-21 0 -36 12.5t-15 37.5q0 6 1 11q1 6 10.5 50.5t16.5 83.5q-58 74 -58 173q0 60 25 86.5t60 26.5q50 0 77 -43q20 -32 20 -76q0 -43 -14 -129v-2q57 -37 141 -40
q27 15 67 15q25 0 40.5 -16.5t15.5 -39.5q0 -24 -29 -146q-63 -261 -63 -428q0 -101 44 -101q62 0 134 137q53 102 80 195q37 126 63 254q9 41 61 41q39 0 39 -51q0 -15 -18 -94q-42 -184 -93 -312q-73 -184 -174 -269q-58 -49 -131 -49zM241 -614q-15 0 -15 15q0 8 6 18
q55 94 55 173q-54 14 -54 73q0 37 21.5 61t53.5 24q71 0 71 -105q0 -98 -50 -178.5t-88 -80.5z" />
    <glyph glyph-name="Rcaron" unicode="&#x158;" horiz-adv-x="1455" 
d="M271 -78q62 0 91 163q19 111 20 201v65q0 292 -66 667q-124 -188 -163 -499q-11 -91 -11 -210q0 -387 129 -387zM560 517q117 29 188.5 106t98.5 188q14 57 14 107q0 87 -42 153q-66 103 -245 103q-50 0 -94 -17q59 -330 80 -640zM224 -233q-95 0 -150 66.5t-82.5 170
t-27.5 286.5q0 169 30 328q28 150 98.5 308.5t191.5 272.5q-17 84 -17 95q0 27 39 62.5t96 35.5q36 0 44 -46l8 -42q74 29 162 29q69 0 146 -19q157 -40 218.5 -144.5t61.5 -219.5q0 -174 -118 -340q-47 -67 -103 -116q155 -493 317 -493q115 0 264 459q39 127 53 197
q8 41 62 41q38 0 38 -51q0 -29 -50 -210q-167 -584 -406 -584q-261 0 -428 548q-50 -23 -108 -42q0 -268 -85 -430t-254 -162zM464 1746q37 0 188 -132l136 118q17 14 43 14q45 0 45 -39q0 -27 -181 -193q-43 -40 -73 -40q-25 0 -41 15q-182 169 -182 203q0 15 20 34.5
t45 19.5z" />
    <glyph glyph-name="rcaron" unicode="&#x159;" horiz-adv-x="630" 
d="M314 -77q-94 0 -140 92q-27 57 -27 179q0 170 63 432l13 65q-56 8 -106 31l-15 -74q-10 -52 -52 -52q-21 0 -36 12.5t-15 37.5q0 6 1 11q1 6 10.5 50.5t16.5 83.5q-58 74 -58 173q0 60 25 86.5t60 26.5q50 0 77 -43q20 -32 20 -76q0 -43 -14 -129v-2q57 -37 141 -40
q27 15 67 15q25 0 40.5 -16.5t15.5 -39.5q0 -24 -29 -146q-63 -261 -63 -428q0 -101 44 -101q62 0 134 137q53 102 80 195q37 126 63 254q9 41 61 41q39 0 39 -51q0 -15 -18 -94q-42 -184 -93 -312q-73 -184 -174 -269q-58 -49 -131 -49zM176 1392q37 0 188 -132l136 118
q17 14 43 14q45 0 45 -39q0 -27 -181 -193q-43 -40 -73 -40q-25 0 -41 15q-182 169 -182 203q0 15 20 34.5t45 19.5z" />
    <glyph glyph-name="Sacute" unicode="&#x15a;" horiz-adv-x="1098" 
d="M979 328q80 147 119 329q8 41 62 41q38 0 38 -51q0 -19 -17 -81q-41 -162 -119 -298q-278 -484 -667 -484q-213 0 -329 105t-116 254q0 86 46 166t145 135q26 14 52 14q18 0 47.5 -10t42.5 -40q3 -7 3 -14q0 -22 -33 -39q-67 -36 -104.5 -99.5t-37.5 -130.5
q0 -68 45 -121q57 -69 190 -69q136 0 216.5 81t80.5 215q0 71 -35 126t-91 102t-122 93q-79 55 -153.5 120t-123.5 152t-49 208q0 122 57.5 210t160.5 127q56 21 122 21q176 0 282 -107q85 -85 85 -233q0 -85 -21 -157q-12 -40 -67 -40q-35 0 -60 16.5t-25 48.5q0 11 4 25
q12 43 12 99q0 191 -160 191q-96 0 -153.5 -70.5t-57.5 -160.5q0 -75 34.5 -130.5t90 -102.5t120.5 -92q80 -56 155.5 -122.5t126 -160.5t50.5 -229q0 -31 -4 -60q67 63 158 223zM392 1474q-45 0 -45 39q0 27 181 193q19 18 40 18q16 0 38.5 -16t22.5 -36q0 -17 -19 -33
l-175 -151q-17 -14 -43 -14z" />
    <glyph glyph-name="sacute" unicode="&#x15b;" horiz-adv-x="771" 
d="M602 244q119 178 169 413q8 41 62 41q38 0 38 -51q0 -19 -17 -81q-58 -227 -186 -402q-179 -239 -385 -239q-99 0 -156.5 33t-83 83.5t-25.5 106.5q0 49 27 60q24 9 39 9q17 0 34 -8q32 -13 35 -49q2 -55 35.5 -81t74.5 -26q43 0 78 26.5t35 76.5q0 37 -40 66.5t-97.5 61
t-114.5 71t-95.5 94.5t-38.5 144q0 78 38 142.5t100.5 93.5t135.5 29q95 0 155.5 -42t87.5 -103.5t27 -126.5q0 -94 -70 -94q-16 0 -33 9q-33 18 -33 71q0 62 -19.5 100.5t-51 57t-64.5 18.5q-57 0 -90 -46t-33 -99q0 -69 47 -106t113 -74q54 -31 106 -67.5t86.5 -84.5
t34.5 -113q39 33 75 86zM235 906q-45 0 -45 39q0 27 181 193q19 18 40 18q16 0 38.5 -16t22.5 -36q0 -17 -19 -33l-175 -151q-17 -14 -43 -14z" />
    <glyph glyph-name="Scircumflex" unicode="&#x15c;" horiz-adv-x="1098" 
d="M979 328q80 147 119 329q8 41 62 41q38 0 38 -51q0 -19 -17 -81q-41 -162 -119 -298q-278 -484 -667 -484q-213 0 -329 105t-116 254q0 86 46 166t145 135q26 14 52 14q18 0 47.5 -10t42.5 -40q3 -7 3 -14q0 -22 -33 -39q-67 -36 -104.5 -99.5t-37.5 -130.5
q0 -68 45 -121q57 -69 190 -69q136 0 216.5 81t80.5 215q0 71 -35 126t-91 102t-122 93q-79 55 -153.5 120t-123.5 152t-49 208q0 122 57.5 210t160.5 127q56 21 122 21q176 0 282 -107q85 -85 85 -233q0 -85 -21 -157q-12 -40 -67 -40q-35 0 -60 16.5t-25 48.5q0 11 4 25
q12 43 12 99q0 191 -160 191q-96 0 -153.5 -70.5t-57.5 -160.5q0 -75 34.5 -130.5t90 -102.5t120.5 -92q80 -56 155.5 -122.5t126 -160.5t50.5 -229q0 -31 -4 -60q67 63 158 223zM622 1474q-37 0 -188 132l-136 -118q-17 -14 -43 -14q-45 0 -45 39q0 27 181 193q43 40 73 40
q25 0 41 -15q182 -169 182 -203q0 -15 -20 -34.5t-45 -19.5z" />
    <glyph glyph-name="scircumflex" unicode="&#x15d;" horiz-adv-x="771" 
d="M602 244q119 178 169 413q8 41 62 41q38 0 38 -51q0 -19 -17 -81q-58 -227 -186 -402q-179 -239 -385 -239q-99 0 -156.5 33t-83 83.5t-25.5 106.5q0 49 27 60q24 9 39 9q17 0 34 -8q32 -13 35 -49q2 -55 35.5 -81t74.5 -26q43 0 78 26.5t35 76.5q0 37 -40 66.5t-97.5 61
t-114.5 71t-95.5 94.5t-38.5 144q0 78 38 142.5t100.5 93.5t135.5 29q95 0 155.5 -42t87.5 -103.5t27 -126.5q0 -94 -70 -94q-16 0 -33 9q-33 18 -33 71q0 62 -19.5 100.5t-51 57t-64.5 18.5q-57 0 -90 -46t-33 -99q0 -69 47 -106t113 -74q54 -31 106 -67.5t86.5 -84.5
t34.5 -113q39 33 75 86zM450 906q-37 0 -188 132l-136 -118q-17 -14 -43 -14q-45 0 -45 39q0 27 181 193q43 40 73 40q25 0 41 -15q182 -169 182 -203q0 -15 -20 -34.5t-45 -19.5z" />
    <glyph glyph-name="Scedilla" unicode="&#x15e;" horiz-adv-x="1098" 
d="M285 -208q-135 21 -219 97q-116 105 -116 254q0 86 46 166t145 135q26 14 52 14q18 0 47.5 -10t42.5 -40q3 -7 3 -14q0 -22 -33 -39q-67 -36 -104.5 -99.5t-37.5 -130.5q0 -68 45 -121q57 -69 190 -69q136 0 216.5 81t80.5 215q0 71 -35 126t-91 102t-122 93
q-79 55 -153.5 120t-123.5 152t-49 208q0 122 57.5 210t160.5 127q56 21 122 21q176 0 282 -107q85 -85 85 -233q0 -85 -21 -157q-12 -40 -67 -40q-35 0 -60 16.5t-25 48.5q0 11 4 25q12 43 12 99q0 191 -160 191q-96 0 -153.5 -70.5t-57.5 -160.5q0 -75 34.5 -130.5
t90 -102.5t120.5 -92q80 -56 155.5 -122.5t126 -160.5t50.5 -229q0 -31 -4 -60q67 63 158 223q80 147 119 329q8 41 62 41q38 0 38 -51q0 -19 -17 -81q-41 -162 -119 -298q-278 -484 -667 -484h-15q1 -49 55 -114q54 -66 54 -109q0 -84 -84 -123q-63 -30 -87 -30
q-16 0 -29.5 17t-13.5 39q0 20 18 28q55 26 70 36.5t15 32.5q0 28 -47.5 89t-47.5 113q0 15 2 29z" />
    <glyph glyph-name="scedilla" unicode="&#x15f;" horiz-adv-x="771" 
d="M215 -70q-53 7 -88 28q-58 33 -83.5 83.5t-25.5 106.5q0 49 27 60q24 9 39 9q17 0 34 -8q32 -13 35 -49q2 -55 35.5 -81t74.5 -26q43 0 78 26.5t35 76.5q0 37 -40 66.5t-97.5 61t-114.5 71t-95.5 94.5t-38.5 144q0 78 38 142.5t100.5 93.5t135.5 29q95 0 155.5 -42
t87.5 -103.5t27 -126.5q0 -94 -70 -94q-16 0 -33 9q-33 18 -33 71q0 62 -19.5 100.5t-51 57t-64.5 18.5q-57 0 -90 -46t-33 -99q0 -69 47 -106t113 -74q54 -31 106 -67.5t86.5 -84.5t34.5 -113q39 33 75 86q119 178 169 413q8 41 62 41q38 0 38 -51q0 -19 -17 -81
q-58 -227 -186 -402q-168 -224 -359 -238v-6q0 -50 54.5 -116t54.5 -109q0 -84 -84 -123q-63 -30 -87 -30q-16 0 -29.5 17t-13.5 39q0 20 18 28q55 26 70 36.5t15 32.5q0 28 -47.5 89t-47.5 113q0 16 3 33z" />
    <glyph glyph-name="Scaron" unicode="&#x160;" horiz-adv-x="1098" 
d="M979 328q80 147 119 329q8 41 62 41q38 0 38 -51q0 -19 -17 -81q-41 -162 -119 -298q-278 -484 -667 -484q-213 0 -329 105t-116 254q0 86 46 166t145 135q26 14 52 14q18 0 47.5 -10t42.5 -40q3 -7 3 -14q0 -22 -33 -39q-67 -36 -104.5 -99.5t-37.5 -130.5
q0 -68 45 -121q57 -69 190 -69q136 0 216.5 81t80.5 215q0 71 -35 126t-91 102t-122 93q-79 55 -153.5 120t-123.5 152t-49 208q0 122 57.5 210t160.5 127q56 21 122 21q176 0 282 -107q85 -85 85 -233q0 -85 -21 -157q-12 -40 -67 -40q-35 0 -60 16.5t-25 48.5q0 11 4 25
q12 43 12 99q0 191 -160 191q-96 0 -153.5 -70.5t-57.5 -160.5q0 -75 34.5 -130.5t90 -102.5t120.5 -92q80 -56 155.5 -122.5t126 -160.5t50.5 -229q0 -31 -4 -60q67 63 158 223zM282 1746q37 0 188 -132l136 118q17 14 43 14q45 0 45 -39q0 -27 -181 -193q-43 -40 -73 -40
q-25 0 -41 15q-182 169 -182 203q0 15 20 34.5t45 19.5z" />
    <glyph glyph-name="scaron" unicode="&#x161;" horiz-adv-x="771" 
d="M602 244q119 178 169 413q8 41 62 41q38 0 38 -51q0 -19 -17 -81q-58 -227 -186 -402q-179 -239 -385 -239q-99 0 -156.5 33t-83 83.5t-25.5 106.5q0 49 27 60q24 9 39 9q17 0 34 -8q32 -13 35 -49q2 -55 35.5 -81t74.5 -26q43 0 78 26.5t35 76.5q0 37 -40 66.5t-97.5 61
t-114.5 71t-95.5 94.5t-38.5 144q0 78 38 142.5t100.5 93.5t135.5 29q95 0 155.5 -42t87.5 -103.5t27 -126.5q0 -94 -70 -94q-16 0 -33 9q-33 18 -33 71q0 62 -19.5 100.5t-51 57t-64.5 18.5q-57 0 -90 -46t-33 -99q0 -69 47 -106t113 -74q54 -31 106 -67.5t86.5 -84.5
t34.5 -113q39 33 75 86zM123 1178q37 0 188 -132l136 118q17 14 43 14q45 0 45 -39q0 -27 -181 -193q-43 -40 -73 -40q-25 0 -41 15q-182 169 -182 203q0 15 20 34.5t45 19.5z" />
    <glyph glyph-name="uni0162" unicode="&#x162;" horiz-adv-x="1038" 
d="M646 -213q-221 51 -221 748q0 388 30 696q-136 -16 -215 -97q-98 -101 -98 -257q0 -215 85 -358q24 -40 24 -68q0 -16 -7 -28q-18 -30 -56 -30q-53 0 -95 62q-127 188 -127 444q0 197 150.5 344t473.5 147q97 0 184.5 7.5t172.5 38.5q17 6 32 6q22 0 33 -17t11 -37
q0 -109 -239 -141q-65 -8 -151 -11q-28 -347 -28 -617q0 -132 8 -250q21 -438 108 -438q115 0 264 529q39 127 53 197q8 41 62 41q38 0 38 -51q0 -29 -50 -210q-146 -572 -347 -644q-2 -10 -2 -21q0 -50 54.5 -116t54.5 -109q0 -84 -84 -123q-63 -30 -87 -30q-16 0 -29.5 17
t-13.5 39q0 20 18 28q55 26 70 36.5t15 32.5q0 28 -47.5 89t-47.5 113q0 19 4 38z" />
    <glyph glyph-name="uni0163" unicode="&#x163;" horiz-adv-x="511" 
d="M148 -63q-79 34 -113 153q-36 127 -36 505q0 267 7 401q-21 -6 -46 -15t-34 -9q-25 0 -38 17.5t-13 38.5q0 30 32 42q51 19 103 31q5 108 13 193q5 50 60 50q116 0 116 -102q0 -39 -3 -124q66 -3 133 -16q40 -7 40 -40q0 -59 -50 -59q-18 0 -31 3q-39 9 -96 11
q-14 -226 -14 -530q0 -212 21 -314t56 -102q74 0 145 186q45 118 80 266l31 134q10 41 56 41q44 0 44 -51q0 -15 -32 -151q-96 -405 -245 -530q-42 -35 -93 -42v-4q0 -50 54.5 -116t54.5 -109q0 -84 -84 -123q-63 -30 -87 -30q-16 0 -29.5 17t-13.5 39q0 20 18 28
q55 26 70 36.5t15 32.5q0 28 -47.5 89t-47.5 113q0 20 4 40z" />
    <glyph glyph-name="Tcaron" unicode="&#x164;" horiz-adv-x="1038" 
d="M784 1247q-65 -8 -151 -11q-28 -347 -28 -617q0 -132 8 -250q21 -438 108 -438q115 0 264 529q39 127 53 197q8 41 62 41q38 0 38 -51q0 -29 -50 -210q-167 -654 -406 -654q-257 0 -257 752q0 388 30 696q-136 -16 -215 -97q-98 -101 -98 -257q0 -215 85 -358
q24 -40 24 -68q0 -16 -7 -28q-18 -30 -56 -30q-53 0 -95 62q-127 188 -127 444q0 197 150.5 344t473.5 147q97 0 184.5 7.5t172.5 38.5q17 6 32 6q22 0 33 -17t11 -37q0 -109 -239 -141zM420 1746q37 0 188 -132l136 118q17 14 43 14q45 0 45 -39q0 -27 -181 -193
q-43 -40 -73 -40q-25 0 -41 15q-182 169 -182 203q0 15 20 34.5t45 19.5z" />
    <glyph glyph-name="tcaron" unicode="&#x165;" horiz-adv-x="764" 
d="M219 -77q-136 0 -184 167q-36 127 -36 505q0 267 7 401q-21 -6 -46 -15t-34 -9q-25 0 -38 17.5t-13 38.5q0 30 32 42q51 19 103 31q5 108 13 193q5 50 60 50q116 0 116 -102q0 -39 -3 -124q66 -3 133 -16q40 -7 40 -40q0 -59 -50 -59q-18 0 -31 3q-39 9 -96 11
q-14 -226 -14 -530q0 -212 21 -314t56 -102q74 0 145 186q45 118 80 266l31 134q10 41 56 41q44 0 44 -51q0 -15 -32 -151q-96 -405 -245 -530q-51 -43 -115 -43zM576 1496q-15 0 -15 15q0 8 6 18q55 94 55 173q-54 14 -54 73q0 37 21.5 61t53.5 24q71 0 71 -105
q0 -98 -50 -178.5t-88 -80.5z" />
    <glyph glyph-name="Tbar" unicode="&#x166;" horiz-adv-x="1038" 
d="M426 669q4 308 29 562q-136 -16 -215 -97q-98 -101 -98 -257q0 -215 85 -358q24 -40 24 -68q0 -16 -7 -28q-18 -30 -56 -30q-53 0 -95 62q-127 188 -127 444q0 197 150.5 344t473.5 147q97 0 184.5 7.5t172.5 38.5q17 6 32 6q22 0 33 -17t11 -37q0 -109 -239 -141
q-65 -8 -151 -11q-25 -313 -28 -563q74 -1 128 -9q29 -4 29 -38q0 -10 -4 -21q-8 -23 -23.5 -34.5t-30.5 -11.5l-99 2q2 -100 8 -192q21 -438 108 -438q115 0 264 529q39 127 53 197q8 41 62 41q38 0 38 -51q0 -29 -50 -210q-167 -654 -406 -654q-257 0 -257 752v25l-27 -2
q-49 -5 -63 -5t-23.5 10t-9.5 29q0 24 15 45q21 25 109 32z" />
    <glyph glyph-name="tbar" unicode="&#x167;" horiz-adv-x="511" 
d="M10 1101q5 108 13 193q5 50 60 50q116 0 116 -102q0 -39 -3 -123v-1q66 -3 133 -16q40 -7 40 -40q0 -27 -11.5 -43t-38.5 -16q-18 0 -31.5 3t-31.5 5q-32 4 -64 6q-1 -43 -3 -90q-6 -188 -8 -299q74 -1 148 -16q40 -7 40 -40q0 -27 -11.5 -43t-38.5 -16q-18 0 -31.5 3
t-31.5 5q-39 5 -78 6v-40q0 -212 21 -314t56 -102q74 0 145 186q45 118 80 266l31 134q10 41 56 41q44 0 44 -51q0 -15 -33 -151q-95 -405 -244 -530q-51 -43 -115 -43q-136 0 -182 168q-34 126 -37 374v39l-7 -2q-11 -3 -34.5 -11.5t-32.5 -8.5q-25 0 -38 17.5t-13 38.5
q0 30 32 43q46 17 93 27q0 218 6 388q-7 -2 -13 -4q-11 -3 -34.5 -11.5t-32.5 -8.5q-25 0 -38 17.5t-13 38.5q0 30 32 43q51 18 103 30z" />
    <glyph glyph-name="Utilde" unicode="&#x168;" horiz-adv-x="1699" 
d="M687 -209q-163 0 -229 145q-48 106 -48 267q0 128 9 219q22 210 24 336v88q0 381 -128 381q-81 0 -123 -95q-47 -99 -47 -255q0 -215 85 -358q24 -40 24 -68q0 -16 -7 -28q-18 -30 -56 -30q-53 0 -95 62q-127 188 -127 444q0 134 41 248q37 103 108.5 166.5t176.5 63.5
q117 0 185.5 -58.5t101.5 -151t40 -179t7 -151.5q0 -120 -22 -318q-21 -189 -21 -319q0 -260 82 -260q75 0 152 176q168 387 290 1228q5 32 67 32q38 0 70 -14q40 -18 40 -61q0 -16 -4 -60q-22 -213 -22 -387v-169q0 -109 10 -247t23 -233q29 -204 88 -204q115 0 264 459
q39 127 53 197q8 41 62 41q38 0 38 -51q0 -29 -50 -210q-167 -584 -406 -584q-232 0 -257 623q-160 -685 -399 -685zM904 1454q-52 0 -91.5 26t-64.5 53q-38 40 -56 40q-29 0 -69 -85q-8 -18 -28 -18q-22 0 -39 13.5t-17 29.5q0 24 30 87q39 84 113 84q60 0 129 -73
q56 -58 86 -58q24 0 37 24q10 19 41 87q11 23 34 23q15 0 34 -16.5t19 -28.5q0 -21 -22 -73q-49 -115 -136 -115z" />
    <glyph glyph-name="utilde" unicode="&#x169;" horiz-adv-x="915" 
d="M623 -77q-119 0 -153 177q-14 71 -16 120q-100 -245 -249 -245q-112 0 -164.5 74.5t-52.5 228.5q0 105 13 411q2 56 34 84.5t87 28.5q25 0 41 -16.5t16 -39.5q0 -114 -7 -229q-8 -138 -8 -240q0 -171 65 -171q107 0 201 361q18 68 37 167t38 126q30 42 97 42q25 0 41 -16
t16 -40q0 -25 -6 -85q-22 -243 -22 -407l1 -75q2 -108 30 -108q55 0 117 137q76 169 135 449q9 41 65 41q36 0 36 -51q0 -16 -35 -160q-140 -564 -357 -564zM464 886q-52 0 -91.5 26t-64.5 53q-38 40 -56 40q-29 0 -69 -85q-8 -18 -28 -18q-22 0 -39 13.5t-17 29.5
q0 24 30 87q39 84 113 84q60 0 129 -73q56 -58 86 -58q24 0 37 24q10 19 41 87q11 23 34 23q15 0 34 -16.5t19 -28.5q0 -21 -22 -73q-49 -115 -136 -115z" />
    </font>
</defs>
</svg>
